<svg width="283" height="183" viewBox="0 0 283 183" fill="none" xmlns="http://www.w3.org/2000/svg">
<path d="M283 180.932H0V183H283V180.932Z" fill="#85848B"/>
<path d="M224.21 144.409C224.21 146 214.937 150.639 203.922 150.639C192.908 150.639 184.326 146 184.326 144.409C184.326 142.818 193.253 143.331 204.278 143.331C215.304 143.331 224.21 142.815 224.21 144.409Z" fill="#504F60"/>
<path opacity="0.2" d="M224.21 144.409C224.21 146 214.937 150.639 203.922 150.639C192.908 150.639 184.326 146 184.326 144.409" fill="black"/>
<path d="M113.286 115.214C115.073 115.443 116.928 115.589 118.641 115.033C118.91 114.95 119.207 114.764 119.18 114.494C119.161 114.396 119.119 114.304 119.059 114.224C118.413 113.256 117.871 112.223 117.441 111.142C117.424 111.086 117.389 111.036 117.341 111.002C117.285 110.981 117.224 110.981 117.168 111.002C116.378 111.209 115.696 111.719 114.912 111.937C114.512 112.047 114.094 112.078 113.682 112.029C113.326 111.989 112.841 111.695 112.517 111.732C112.701 112.911 113.148 114.011 113.286 115.214Z" fill="#66D655"/>
<path d="M147.095 112.229C148.273 111.42 149.495 110.57 150.19 109.322C150.24 109.247 150.269 109.16 150.274 109.071C150.262 108.983 150.228 108.899 150.174 108.828C149.511 107.774 148.658 106.854 147.658 106.112C147.137 106.481 146.665 106.916 146.256 107.407C145.96 107.72 145.14 108.216 145.132 108.693C145.132 108.963 145.445 109.276 145.59 109.502C145.787 109.794 145.973 110.09 146.151 110.392C146.254 110.541 147.189 112.169 147.095 112.229Z" fill="#66D655"/>
<path d="M120.293 118.825C120.315 119.103 120.238 119.379 120.078 119.607C119.952 119.734 119.796 119.826 119.625 119.877C117.125 120.772 114.232 119.656 111.738 120.537C111.226 120.718 110.74 120.98 110.225 121.152C109.611 121.337 108.978 121.449 108.338 121.487C107.456 121.57 106.569 121.624 105.685 121.649C105.013 121.696 104.338 121.637 103.684 121.473C103.357 121.39 103.052 121.238 102.788 121.029C102.523 120.819 102.306 120.556 102.15 120.257C102.014 119.989 101.987 119.679 102.074 119.391C102.114 119.293 102.169 119.202 102.239 119.122C102.408 118.932 102.606 118.771 102.827 118.644L103.746 118.051C104.177 117.746 104.646 117.498 105.14 117.312C105.504 117.193 105.89 117.142 106.259 117.042C107.551 116.665 108.538 115.64 109.454 114.656L110.705 113.321C110.822 113.174 110.971 113.055 111.139 112.973C111.313 112.915 111.497 112.898 111.679 112.922C112.894 113.009 114.067 113.402 115.09 114.065C115.351 114.261 115.633 114.428 115.931 114.561C116.664 114.847 117.605 114.632 118.282 114.27C118.603 114.098 118.533 114 118.668 113.693C118.802 113.386 119.131 113.189 119.417 113.469C119.503 113.566 119.565 113.683 119.595 113.809C119.865 114.699 119.762 115.656 119.762 116.589C119.754 116.735 119.773 116.881 119.816 117.021C119.885 117.161 119.967 117.295 120.062 117.42C120.081 117.453 120.098 117.487 120.113 117.522C120.278 117.936 120.34 118.383 120.293 118.825Z" fill="#514E7F"/>
<path d="M120.293 118.825C120.315 119.103 120.238 119.379 120.078 119.607C119.952 119.734 119.796 119.826 119.625 119.877C117.125 120.772 114.232 119.656 111.738 120.537C111.226 120.718 110.74 120.98 110.225 121.152C109.611 121.337 108.978 121.449 108.338 121.487C107.456 121.57 106.569 121.624 105.685 121.649C105.013 121.696 104.338 121.637 103.684 121.473C103.357 121.39 103.052 121.238 102.788 121.028C102.523 120.819 102.306 120.556 102.15 120.257C102.014 119.989 101.987 119.679 102.074 119.391C102.114 119.293 102.169 119.202 102.239 119.122C102.385 119.426 102.49 119.831 102.581 119.977C102.705 120.192 102.874 120.379 103.075 120.525C103.277 120.67 103.508 120.771 103.752 120.821C104.117 120.843 104.482 120.796 104.83 120.683C107.095 120.122 109.503 120.114 111.679 119.265C112.426 118.971 113.137 118.58 113.922 118.402C114.707 118.224 115.54 118.272 116.349 118.205C117.627 118.102 118.864 117.717 120.124 117.514C120.286 117.931 120.345 118.381 120.293 118.825Z" fill="#464353"/>
<path d="M152.819 112.064C152.701 113.013 152.099 113.831 151.439 114.524C150.778 115.217 150.031 115.84 149.505 116.638C148.858 117.628 148.567 118.855 147.726 119.691C147.403 119.995 147.04 120.253 146.647 120.459C146.207 120.719 145.742 120.933 145.259 121.098C144.002 121.5 142.649 121.409 141.336 121.311C140.909 121.307 140.487 121.226 140.09 121.071C139.909 120.98 139.736 120.873 139.572 120.753C139.243 120.55 138.966 120.273 138.763 119.944C138.664 119.765 138.636 119.555 138.685 119.356C138.76 119.137 138.889 118.941 139.06 118.785C139.355 118.477 139.672 118.192 140.009 117.93C140.471 117.632 140.887 117.268 141.244 116.851C141.463 116.521 141.624 116.156 141.721 115.772C141.912 115.099 142.029 114.408 142.069 113.709C142.067 113.245 142.115 112.782 142.212 112.328C142.411 111.617 142.94 110.98 142.881 110.244C142.857 110.138 142.866 110.028 142.907 109.928C142.97 109.85 143.058 109.796 143.156 109.775C143.568 109.61 144.002 109.509 144.444 109.475C144.666 109.46 144.889 109.494 145.096 109.575C145.303 109.656 145.489 109.783 145.642 109.945C145.825 110.166 145.946 110.484 146.216 110.57C146.349 110.607 146.49 110.612 146.626 110.586C147.289 110.519 147.99 110.435 148.513 110.007C148.755 109.79 148.949 109.525 149.084 109.229C149.218 108.934 149.29 108.614 149.295 108.289C149.295 108.043 149.185 107.787 149.565 107.749C149.85 107.712 150.077 108.019 150.223 108.208C150.748 108.912 151.288 109.648 151.484 110.505C151.561 110.476 151.642 110.46 151.724 110.46C151.893 110.458 152.059 110.497 152.208 110.574C152.358 110.65 152.487 110.762 152.585 110.899C152.799 111.247 152.883 111.66 152.819 112.064Z" fill="#514E7F"/>
<path d="M152.819 112.064C152.7 113.013 152.099 113.831 151.439 114.524C150.778 115.217 150.031 115.84 149.505 116.638C148.858 117.628 148.567 118.855 147.726 119.691C147.403 119.995 147.04 120.253 146.647 120.459C146.207 120.719 145.742 120.933 145.259 121.098C144.002 121.5 142.649 121.409 141.336 121.311C140.909 121.307 140.487 121.226 140.09 121.071C139.909 120.98 139.736 120.873 139.572 120.753C139.243 120.55 138.966 120.273 138.763 119.944C139.016 119.823 139.292 119.756 139.572 119.75C140.155 119.782 140.581 120.333 141.139 120.502C141.934 120.742 142.727 120.181 143.533 119.99C144.059 119.866 144.612 119.898 145.132 119.72C145.566 119.553 145.966 119.31 146.316 119.003C146.794 118.661 147.22 118.25 147.58 117.784C147.879 117.318 148.127 116.822 148.322 116.304C148.747 115.31 149.249 114.351 149.821 113.434C149.905 113.289 150.008 113.155 150.125 113.035C150.252 112.919 150.395 112.838 150.538 112.736C151.077 112.328 151.301 111.657 151.49 110.999C151.541 110.799 151.612 110.605 151.703 110.419C151.871 110.418 152.037 110.457 152.187 110.533C152.337 110.61 152.466 110.722 152.563 110.859C152.795 111.215 152.886 111.645 152.819 112.064Z" fill="#464353"/>
<path d="M96.2801 27.9844C96.9512 28.4874 97.5035 29.1318 97.8979 29.8721C98.2754 30.611 100.451 36.3443 100.325 37.1776C101.034 36.463 103.83 36.347 104.547 35.6324C104.846 35.3331 106.461 33.839 106.704 33.4912C106.947 33.1433 108.748 32.4125 108.945 32.0457C109.681 30.727 103.725 25.7299 104.488 24.4273C104.53 24.3675 104.552 24.2956 104.55 24.2224C104.532 24.1609 104.498 24.1057 104.45 24.0633C103.962 23.5644 103.315 23.2542 102.727 22.8848C102.139 22.5153 101.573 22.0002 101.414 21.3206C100.853 21.5787 100.339 21.9267 99.8904 22.3508C98.7975 23.2875 97.7235 24.243 96.6684 25.2175C96.2558 25.6004 95.4577 26.1101 95.2663 26.6576C95.0398 27.2455 95.8864 27.6634 96.2801 27.9844Z" fill="#A1616A"/>
<path d="M105.922 25.862C105.008 26.4762 104.154 27.175 103.371 27.9493C102.633 28.6801 101.932 29.5269 101.754 30.549C101.678 30.9508 101.689 31.358 101.627 31.7652C101.357 33.5316 99.8311 34.8261 99.157 36.4792C98.9618 36.9894 98.8182 37.5179 98.7283 38.0568C98.5389 39.0783 98.4352 40.1139 98.4183 41.1527C98.4021 42.1586 99.3889 42.8516 99.7502 43.7901C100.112 44.7286 100.209 45.694 100.392 46.6568C100.737 48.4744 101.371 50.2273 102.01 51.9694C103.339 55.6424 107.648 65.7957 108.977 69.4714C113.051 68.4494 123.896 66.1005 127.503 63.9458C128.706 63.2284 119.158 55.1354 120.444 54.5772C120.518 54.5657 120.588 54.5374 120.649 54.4943C120.709 54.4512 120.759 54.3946 120.794 54.3289C120.829 54.2633 120.848 54.1904 120.85 54.116C120.852 54.0416 120.837 53.9678 120.806 53.9003C119.52 48.2748 115.497 43.6526 113.671 38.1754C113.038 36.2742 111.9 34.6508 111.037 32.8439C110.255 31.207 109.837 29.3975 108.902 27.8414C108.725 27.5208 108.494 27.2334 108.219 26.9919C107.986 26.813 107.734 26.6602 107.467 26.5362C106.933 26.2773 106.437 26.1236 105.922 25.862Z" fill="#514E7F"/>
<path d="M96.4958 27.3452C100.018 27.3452 102.873 24.4898 102.873 20.9674C102.873 17.445 100.018 14.5895 96.4958 14.5895C92.974 14.5895 90.119 17.445 90.119 20.9674C90.119 24.4898 92.974 27.3452 96.4958 27.3452Z" fill="#A1616A"/>
<path d="M102.983 23.9635C103.301 23.6703 103.7 23.4804 104.128 23.4187C104.556 23.3571 104.993 23.4267 105.38 23.6183C105.812 23.8421 106.189 24.2952 106.092 24.7698L109.255 24.8183C109.758 24.8046 110.261 24.8507 110.754 24.9559C111.25 25.0638 111.692 25.3414 112.005 25.7406C112.043 25.7919 112.086 25.8539 112.151 25.862C112.203 25.8628 112.255 25.8457 112.296 25.8135C112.783 25.5694 113.331 25.4755 113.871 25.5438C115.58 25.6543 117.16 26.5092 118.5 27.5771C118.742 27.7433 118.93 27.9768 119.04 28.2486C119.15 28.6073 119.018 29.0577 119.309 29.3139C119.309 32.2803 120.329 35.0526 121.008 37.9435C121.129 38.4586 121.623 38.9144 121.965 39.3189C122.388 39.7673 122.734 40.2832 122.987 40.8452C123.564 42.3446 122.769 44.1083 123.33 45.6131C123.567 46.2496 124.025 46.7727 124.408 47.3256C124.913 47.9639 125.232 48.7291 125.33 49.5369C125.354 49.8983 125.309 50.2624 125.33 50.6156C125.366 51.1015 125.457 51.5818 125.6 52.0476C125.83 52.9178 126.071 53.787 126.322 54.6554C126.732 56.0577 127.266 57.5706 128.523 58.3176C125.489 58.8327 122.291 59.337 119.401 58.2825C118.998 58.145 118.615 57.9536 118.263 57.7135C117.22 56.9692 116.715 55.6963 116.265 54.4936C115.764 53.1452 115.254 51.7725 115.152 50.3379C115.153 49.8816 115.088 49.4275 114.96 48.9895C114.666 48.2074 113.882 47.7355 113.17 47.3013C112.366 46.8608 111.638 46.2945 111.013 45.6239C110.703 45.2862 110.465 44.8884 110.315 44.4551C110.165 44.0219 110.105 43.5624 110.139 43.1051C110.193 42.6602 110.368 42.2314 110.385 41.7837C110.401 41.3361 110.201 40.8237 109.772 40.705C107.564 40.0362 106.51 37.4203 106.019 35.1658C105.807 34.0006 105.713 32.8172 105.736 31.6331L105.706 29.3327C105.402 29.0554 105.157 28.719 104.986 28.344C104.815 27.9689 104.723 27.563 104.714 27.1511C104.743 26.9107 104.739 26.6674 104.701 26.4283C104.594 26.1361 104.42 25.8728 104.194 25.6597C103.706 25.1593 103.298 24.5873 102.983 23.9635Z" fill="#464353"/>
<path d="M96.1911 31.2556C96.1183 31.9675 96.2801 32.6983 96.121 33.3968C96.059 33.6665 95.9511 33.9361 95.8729 34.1869C95.6339 35.1922 95.7373 36.2486 96.1668 37.1884C96.5958 38.119 97.1093 39.0082 97.701 39.8448C97.9012 40.1303 98.066 40.4391 98.1918 40.7644C98.2938 41.1059 98.3571 41.4578 98.3805 41.8134C98.5367 43.2415 98.7871 44.6577 99.1301 46.0527C99.4321 47.2609 102.862 57.5895 103.66 58.5468C103.805 58.7588 104.024 58.9081 104.275 58.9648C104.455 58.9716 104.635 58.9346 104.798 58.857L106.416 58.2367C106.553 58.1946 106.681 58.1249 106.79 58.0318C106.942 57.8546 107.024 57.6285 107.022 57.3953C107.138 56.0793 103.7 45.6779 103.264 44.4347C101.942 40.6808 100.184 37.0617 99.3242 33.1756C99.0842 32.0969 98.9575 30.4357 98.1675 29.5755C97.8413 29.2195 97.9518 29.3705 97.5608 29.5566C97.3633 29.6423 97.1722 29.7424 96.9892 29.8559C96.7604 30.015 96.5699 30.2233 96.4319 30.4654C96.2938 30.7076 96.2115 30.9775 96.1911 31.2556Z" fill="#464353"/>
<path d="M101.101 38.3777C101.535 40.6727 101.983 42.9622 102.428 45.2572L108.759 43.5987C108.81 42.9353 108.457 42.3204 108.219 41.7109C107.642 40.2628 107.629 38.6501 107.162 37.1615C106.809 36.0288 106.194 34.9879 105.863 33.8471C105.671 33.1837 105.574 32.4988 105.386 31.8273C105.183 31.1678 104.934 30.5235 104.641 29.8991C104.286 28.9935 103.822 28.1342 103.261 27.3398C102.452 27.6419 101.589 27.9925 101.128 28.7233C100.892 29.1351 100.757 29.5973 100.734 30.0717C100.624 31.4929 101.139 32.9222 100.969 34.3353C100.794 35.681 100.839 37.0463 101.101 38.3777Z" fill="#66D655"/>
<path d="M108.864 68.9051C109.22 70.2535 108.705 71.672 108.284 73.0069C107.651 75.0176 107.219 77.0863 106.995 79.1825C106.968 79.716 106.861 80.2423 106.677 80.7439C106.478 81.1943 106.138 81.5745 105.906 82.0033C105.27 83.1306 105.286 84.5059 105.423 85.795C105.515 86.6445 105.652 87.4912 105.822 88.3272C106.03 89.3493 106.286 90.4172 105.987 91.415C106.488 91.3045 106.828 91.9544 106.796 92.4641C106.763 92.9738 106.599 93.5428 106.844 93.9824C107.464 94.2089 107.47 95.0611 107.451 95.7218C107.461 96.8674 107.606 98.0079 107.882 99.1197C108.821 103.632 109.816 108.132 110.87 112.62C113.148 113.326 115.81 114.062 117.983 113.084C118.387 112.903 118.792 112.614 118.883 112.177C118.907 111.942 118.878 111.704 118.797 111.482L117.767 107.733C117.516 106.827 117.266 105.891 117.398 104.961C117.497 104.268 117.799 103.521 117.46 102.909C117.344 102.698 117.16 102.534 117.026 102.334C116.486 101.544 116.769 100.487 116.813 99.5296C116.829 99.3147 116.815 99.0985 116.769 98.8878C116.696 98.6417 116.592 98.4054 116.462 98.1839C115.611 96.5311 115.202 94.6859 115.276 92.8281C115.308 92.5911 115.275 92.3497 115.181 92.1297C115.116 92.0389 115.057 91.9433 115.006 91.8438C114.966 91.6707 114.986 91.489 115.063 91.3287C114.754 91.0942 114.475 90.8225 114.232 90.5197C114.382 90.4267 114.508 90.301 114.602 90.1519C114.696 90.0029 114.755 89.8345 114.774 89.6594C114.793 89.4844 114.772 89.3072 114.713 89.1414C114.654 88.9755 114.557 88.8253 114.432 88.7021C114.542 88.6799 114.643 88.6277 114.725 88.5513C114.807 88.4748 114.867 88.3771 114.897 88.269C114.927 88.1608 114.926 88.0465 114.895 87.9387C114.864 87.831 114.803 87.7339 114.72 87.6584C114.588 87.5667 114.413 87.5263 114.318 87.3888C114.173 87.1892 114.291 86.9114 114.41 86.6984L115.038 85.5631C115.508 84.719 115.613 83.6753 116.117 82.8663C116.839 81.6878 117.311 80.3745 117.778 79.0746L119.592 74.0667L120.814 75.1266C121.221 75.4374 121.562 75.8261 121.817 76.27C121.991 76.7087 122.1 77.17 122.143 77.6399C122.591 80.3583 124.3 82.7153 124.934 85.3932C125.074 85.9891 125.168 86.6148 125.511 87.1245C125.633 87.281 125.743 87.4469 125.84 87.6207C125.929 87.8858 125.975 88.1635 125.977 88.4432C126.034 88.9909 126.208 89.5201 126.487 89.9947C126.766 90.4694 127.144 90.8783 127.595 91.1939C128.196 91.6065 128.943 91.8897 129.27 92.5423C129.335 92.7444 129.425 92.9374 129.539 93.1167C129.83 93.4673 130.459 93.5077 130.583 93.9473C130.653 94.1927 130.523 94.4867 130.661 94.7024C130.739 94.8022 130.842 94.8795 130.96 94.9262L132.715 95.8027C134.678 96.7843 135.681 99.0388 137.129 100.681C137.629 101.216 138.072 101.802 138.45 102.429C139.076 103.548 139.365 104.953 140.421 105.665C140.706 105.812 140.964 106.004 141.187 106.234C141.519 106.671 141.398 107.283 141.427 107.833C141.457 108.383 141.878 109.038 142.401 108.871C142.217 109.538 142.217 110.241 142.401 110.907C144.697 110.789 146.887 109.902 148.618 108.389C149.131 107.941 149.624 107.369 149.629 106.69C149.637 106.572 149.611 106.455 149.554 106.352C149.45 106.22 149.314 106.116 149.158 106.053C147.516 105.163 147.022 103.1 146.192 101.425C145.466 99.9476 144.393 98.6747 143.495 97.3021C141.543 94.3491 140.211 90.7759 137.259 88.8261C136.609 88.3974 135.854 88.0171 135.528 87.3079C135.347 86.9114 135.325 86.4584 135.183 86.0485C135.04 85.6386 134.697 85.2394 134.26 85.2394C134.503 84.6461 134.455 83.9234 134.471 83.2816C134.487 82.9967 134.454 82.7112 134.374 82.4375C134.261 82.1431 134.116 81.8626 133.94 81.6015C133.169 80.297 132.784 78.801 132.829 77.2867C132.85 76.5073 132.988 75.7037 132.753 74.9594C132.635 74.5845 132.427 74.242 132.284 73.8807C132.069 73.2259 131.955 72.5419 131.947 71.8527L131.785 69.2611C131.761 68.398 131.649 67.5396 131.451 66.6992C130.912 64.6874 130.372 56.26 128.525 55.3107C126.678 54.3614 123.505 60.8472 121.426 60.9739C120.506 61.0122 119.597 61.1876 118.73 61.4944C117.346 62.0122 116.187 62.9776 115.057 63.9215L111.234 67.1333C110.425 67.7994 109.756 68.4359 108.864 68.9051Z" fill="#464353"/>
<path d="M90.5126 13.8857C91.3539 12.7368 92.7991 12.1274 94.2228 12.0761C95.6464 12.0249 97.0485 12.4726 98.3239 13.1063C98.7003 13.3204 99.1027 13.4854 99.521 13.5971C100.195 13.7346 100.945 13.5513 101.554 13.8668C102.363 14.2956 102.519 15.3878 102.449 16.2939C102.379 17.2 102.209 18.2059 102.692 18.9906C102.863 19.2145 103.019 19.4496 103.158 19.6945C103.366 20.161 103.245 20.7004 103.121 21.1939C102.805 20.9242 102.627 20.517 102.347 20.2042C102.066 19.8914 101.578 19.681 101.231 19.9156C100.883 20.1503 100.888 20.5763 100.869 20.9593C100.85 21.3422 100.753 21.8007 100.392 21.9247C100.241 21.9591 100.083 21.9474 99.9391 21.8911C99.7949 21.8349 99.6709 21.7367 99.5831 21.6092C98.9656 20.8541 99.2137 19.6487 98.6016 18.8882C98.2538 18.4567 97.6741 18.2463 97.3532 17.7933C97.0998 17.4373 97.035 16.9843 96.8139 16.6013C96.5928 16.2184 96.0778 15.9379 95.7354 16.2022C95.6185 16.3139 95.5211 16.4442 95.4469 16.5878C95.2334 16.8937 94.9229 17.1187 94.5658 17.2263C94.2086 17.334 93.8256 17.3181 93.4786 17.1811C93.2135 17.0183 92.9266 16.8939 92.6266 16.8117C92.4302 16.8018 92.2349 16.8471 92.0629 16.9424C91.8909 17.0377 91.749 17.1793 91.6532 17.351C91.4597 17.6941 91.3663 18.0847 91.3836 18.4783C91.3836 19.0176 91.4806 19.592 91.1732 20.0235C91.0564 20.1859 90.91 20.325 90.7418 20.4334C90.2916 20.722 89.6633 20.9161 89.2481 20.5871C89.1073 20.456 89.0026 20.2909 88.9441 20.1077C88.8855 19.9244 88.8751 19.7292 88.9137 19.5408C88.9946 19.1654 89.1009 18.796 89.2319 18.4351C89.4692 17.5991 89.1591 16.6579 89.4179 15.8705C89.6891 15.1613 90.0575 14.4933 90.5126 13.8857Z" fill="#464353"/>
<path d="M93.9289 32.9114C93.8884 33.1079 93.9091 33.3121 93.9882 33.4966C94.0683 33.6222 94.1775 33.7267 94.3064 33.8013C95.2131 34.3663 96.2444 34.7005 97.3101 34.7748C97.4551 34.7773 97.5974 34.8143 97.7253 34.8827C97.9788 35.0499 97.9949 35.4221 97.9006 35.7187C97.7747 35.9985 97.7095 36.3018 97.7091 36.6086C97.7873 37.1723 98.456 37.4177 99.0195 37.5013C99.8096 37.601 100.675 37.5498 101.301 37.0563C101.724 36.6697 102.047 36.1856 102.242 35.6459C103.789 32.0888 104.331 28.157 105.898 24.6107C106.017 24.3792 106.096 24.1294 106.132 23.8718C106.149 23.7428 106.131 23.6118 106.079 23.4923C106.028 23.3728 105.946 23.2692 105.841 23.1922C105.55 23.0115 105.097 23.114 104.9 22.8308C104.803 22.6879 104.814 22.4937 104.728 22.3427C104.547 22.0218 104.072 22.073 103.749 21.887C103.495 21.7521 103.32 21.4744 103.037 21.4204C102.898 21.4126 102.759 21.4373 102.631 21.4925C102.504 21.5477 102.39 21.632 102.301 21.7386C101.382 22.5962 100.899 23.8125 100.387 24.9613C99.6043 26.7223 98.6885 28.4208 97.6471 30.042C97.7684 29.8532 97.0647 28.4239 96.7897 28.3619C96.307 28.2648 95.6896 29.1116 95.428 29.4271C94.6073 30.4224 94.0873 31.631 93.9289 32.9114Z" fill="#66D655"/>
<path opacity="0.1" d="M103.725 22.1378C103.531 22.141 103.34 22.1878 103.167 22.2746C102.994 22.3614 102.843 22.4861 102.724 22.6394C102.436 23.0142 102.379 23.5104 102.306 23.9878C102.061 25.5 101.521 26.9495 100.718 28.2541" fill="black"/>
<path opacity="0.1" d="M105.1 23.2138C104.832 23.2197 104.571 23.2952 104.342 23.4328C104.113 23.5704 103.923 23.7654 103.792 23.9985C103.614 24.4227 103.503 24.8722 103.463 25.3307C103.232 26.3473 102.786 27.3026 102.155 28.1327" fill="black"/>
<path d="M169.18 75.9356V72.5862C169.18 70.1206 168.2 67.7562 166.456 66.013C164.713 64.2697 162.349 63.2905 159.883 63.2905H27.6319C25.1666 63.2905 22.8023 64.2697 21.0589 66.013C19.3155 67.7562 18.3357 70.1206 18.335 72.5862V78.7618L169.18 75.9356Z" fill="#33323D"/>
<path d="M64.4231 59.364C64.4231 59.364 64.0456 82.7881 68.1979 90.4955C72.3503 98.2028 74.1298 131.732 74.1298 131.732C74.1298 131.732 117.659 136.235 147.993 126.338C178.326 116.441 242.871 112.393 242.871 112.393L231.994 39.0708C231.994 39.0708 178.259 35.6243 147.691 50.2057C117.123 64.7872 64.4231 59.364 64.4231 59.364Z" fill="#8DD070"/>
<path opacity="0.1" d="M64.4231 59.364C64.4231 59.364 64.0456 82.7881 68.1979 90.4955C72.3503 98.2028 74.1298 131.732 74.1298 131.732C74.1298 131.732 117.659 136.235 147.993 126.338C178.326 116.441 242.871 112.393 242.871 112.393L231.994 39.0708C231.994 39.0708 178.259 35.6243 147.691 50.2057C117.123 64.7872 64.4231 59.364 64.4231 59.364Z" fill="black"/>
<path d="M74.0571 67.9208C74.0571 67.9208 72.6954 87.2485 76.1116 93.4241C79.5279 99.5997 79.687 127.169 79.687 127.169C79.687 127.169 118.862 128.986 146.728 119.499C174.595 110.012 233.153 103.858 233.153 103.858L226.499 43.8953C226.499 43.8953 178.046 43.3964 149.767 56.7508C121.488 70.1052 74.0571 67.9208 74.0571 67.9208Z" fill="#8DD070"/>
<path opacity="0.1" d="M149.337 108.521C154.911 107.826 158.222 97.5704 156.733 85.6137C155.244 73.657 149.518 64.527 143.944 65.2214C138.37 65.9158 135.059 76.1716 136.548 88.1283C138.037 100.085 143.763 109.215 149.337 108.521Z" fill="black"/>
<path opacity="0.2" d="M202.534 3.35208C202.534 3.35208 150.33 16.5662 125.713 39.8259C101.096 63.0855 49.2725 74.0991 49.2725 74.0991C49.2725 74.0991 56.0996 96.5066 62.4143 102.569C68.7291 108.631 80.7062 140 80.7062 140C80.7062 140 123.516 130.923 149.346 112.186C175.177 93.4484 235.378 69.7843 235.378 69.7843L202.534 3.35208Z" fill="black"/>
<path d="M48.4879 70.7443C48.4879 70.7443 55.3122 93.1545 61.6216 99.2168C67.931 105.279 79.9134 136.645 79.9134 136.645C79.9134 136.645 122.728 127.571 148.562 108.833C174.395 90.0963 234.59 66.4403 234.59 66.4403L201.746 0C201.746 0 149.546 13.2142 124.928 36.4738C100.311 59.7334 48.4879 70.7443 48.4879 70.7443Z" fill="#8DD070"/>
<path opacity="0.1" d="M48.4879 70.7443C48.4879 70.7443 55.3122 93.1545 61.6216 99.2168C67.931 105.279 79.9134 136.645 79.9134 136.645C79.9134 136.645 122.728 127.571 148.562 108.833C174.395 90.0963 234.59 66.4403 234.59 66.4403L201.746 0C201.746 0 149.546 13.2142 124.928 36.4738C100.311 59.7334 48.4879 70.7443 48.4879 70.7443Z" fill="black"/>
<path d="M60.2735 75.9329C60.2735 75.9329 64.9084 94.7482 70.0557 99.5754C75.203 104.403 83.8069 130.588 83.8069 130.588C83.8069 130.588 121.647 120.292 145.259 102.709C168.87 85.1261 222.721 61.3218 222.721 61.3218L197.993 6.27536C197.993 6.27536 151.727 20.668 128.908 42.0588C106.089 63.4495 60.2735 75.9329 60.2735 75.9329Z" fill="#8DD070"/>
<path opacity="0.1" d="M144.386 91.4686C149.478 89.097 149.483 78.3197 144.397 67.3968C139.312 56.474 131.061 49.5418 125.969 51.9134C120.877 54.2849 120.872 65.0622 125.958 75.9851C131.043 86.908 139.294 93.8402 144.386 91.4686Z" fill="black"/>
<path opacity="0.1" d="M172.75 79.223V172.261C172.75 173.318 172.542 174.364 172.138 175.341C171.733 176.317 171.141 177.204 170.394 177.951C169.646 178.698 168.759 179.29 167.783 179.694C166.807 180.099 165.761 180.306 164.705 180.306H26.3835C24.2508 180.305 22.2057 179.457 20.6979 177.949C19.1901 176.44 18.3431 174.395 18.3431 172.261V69.8436C22.3066 71.316 22.3066 71.316 26.3835 71.192H164.705C166.836 71.192 168.88 72.0376 170.388 73.5432C171.896 75.0489 172.746 77.0915 172.75 79.223Z" fill="black"/>
<path d="M172.75 80.4068V173.445C172.75 175.579 171.902 177.625 170.393 179.134C168.884 180.642 166.838 181.49 164.705 181.49H26.3835C24.2508 181.489 22.2057 180.641 20.6979 179.133C19.1901 177.624 18.3431 175.578 18.3431 173.445V71.0248C22.3066 72.4945 22.3066 72.4945 26.3835 72.3732H164.705C166.836 72.3732 168.881 73.2191 170.389 74.7253C171.898 76.2316 172.747 78.2749 172.75 80.4068Z" fill="#504F60"/>
<path opacity="0.1" d="M172.357 114.804V144.558H143.506C139.596 144.505 135.864 142.914 133.117 140.13C130.371 137.346 128.831 133.592 128.831 129.681C128.831 125.77 130.371 122.016 133.117 119.232C135.864 116.447 139.596 114.857 143.506 114.804H172.357Z" fill="black"/>
<path d="M172.75 114.011V143.77H143.9C139.99 143.717 136.257 142.127 133.511 139.343C130.764 136.559 129.224 132.805 129.224 128.893C129.224 124.982 130.764 121.228 133.511 118.444C136.257 115.66 139.99 114.069 143.9 114.017L172.75 114.011Z" fill="#33323D"/>
<path opacity="0.1" d="M145.283 135.483C148.486 135.483 151.083 132.886 151.083 129.682C151.083 126.479 148.486 123.881 145.283 123.881C142.08 123.881 139.483 126.479 139.483 129.682C139.483 132.886 142.08 135.483 145.283 135.483Z" fill="black"/>
<path d="M145.677 134.696C148.88 134.696 151.476 132.098 151.476 128.895C151.476 125.691 148.88 123.094 145.677 123.094C142.473 123.094 139.877 125.691 139.877 128.895C139.877 132.098 142.473 134.696 145.677 134.696Z" fill="#66D655"/>
<path d="M222.829 113.755C223.058 116.239 221.179 118.65 221.726 121.082C221.845 121.603 222.069 122.093 222.15 122.619C222.376 124.065 221.516 125.432 220.694 126.64L213.629 137.007C213.346 137.462 213.007 137.881 212.621 138.253C211.273 139.455 209.245 139.331 207.471 139.69C206.224 139.943 205.046 140.464 204.019 141.216C203.977 141.253 203.949 141.305 203.943 141.361C203.937 141.417 203.953 141.473 203.987 141.518C204.28 141.918 204.669 142.237 205.117 142.448C205.566 142.658 206.06 142.753 206.554 142.724C206.74 142.969 206.554 143.328 206.284 143.503C205.904 143.773 205.384 143.838 205.308 144.479C205.281 144.703 205.327 144.93 205.438 145.127C205.722 145.563 206.165 145.871 206.673 145.987C209.118 146.734 211.761 145.421 213.591 143.633C215.422 141.845 216.735 139.587 218.531 137.767C219.526 136.761 220.656 135.898 221.68 134.922C223.724 132.975 225.312 130.607 226.847 128.237C227.308 127.522 227.771 126.789 227.966 125.961C228.16 125.133 228.068 124.297 228.286 123.496C228.572 122.444 229.341 121.608 229.98 120.726C231.233 119 232.069 116.889 231.905 114.764C231.74 112.639 230.422 110.538 228.416 109.815C227.794 109.565 227.108 109.524 226.461 109.696C225.639 109.95 225.032 110.63 224.471 111.279L223.123 112.83C222.787 113.17 222.521 113.574 222.341 114.017C222.255 114.239 222.234 114.482 222.282 114.716C222.33 114.95 222.444 115.165 222.611 115.335" fill="#FBBEBE"/>
<path opacity="0.05" d="M222.829 113.755C223.058 116.239 221.179 118.65 221.726 121.082C221.845 121.603 222.069 122.093 222.15 122.619C222.376 124.065 221.516 125.432 220.694 126.64L213.629 137.007C213.346 137.462 213.007 137.881 212.621 138.253C211.273 139.455 209.245 139.331 207.471 139.69C206.224 139.943 205.046 140.464 204.019 141.216C203.977 141.253 203.949 141.305 203.943 141.361C203.937 141.417 203.953 141.473 203.987 141.518C204.28 141.918 204.669 142.237 205.117 142.448C205.566 142.658 206.06 142.753 206.554 142.724C206.74 142.969 206.554 143.328 206.284 143.503C205.904 143.773 205.384 143.838 205.308 144.479C205.281 144.703 205.327 144.93 205.438 145.127C205.722 145.563 206.165 145.871 206.673 145.987C209.118 146.734 211.761 145.421 213.591 143.633C215.422 141.845 216.735 139.587 218.531 137.767C219.526 136.761 220.656 135.898 221.68 134.922C223.724 132.975 225.312 130.607 226.847 128.237C227.308 127.522 227.771 126.789 227.966 125.961C228.16 125.133 228.068 124.297 228.286 123.496C228.572 122.444 229.341 121.608 229.98 120.726C231.233 119 232.069 116.889 231.905 114.764C231.74 112.639 230.422 110.538 228.416 109.815C227.794 109.565 227.108 109.524 226.461 109.696C225.639 109.95 225.032 110.63 224.471 111.279L223.123 112.83C222.787 113.17 222.521 113.574 222.341 114.017C222.255 114.239 222.234 114.482 222.282 114.716C222.33 114.95 222.444 115.165 222.611 115.335" fill="black"/>
<path d="M228.176 177.695C226.634 178.637 224.711 178.693 222.918 178.475C222.629 178.44 222.287 178.418 222.109 178.642C221.839 178.966 222.158 179.451 222.487 179.702C223.544 180.496 224.787 181.007 226.097 181.188C227.267 181.354 228.448 181.432 229.629 181.422C232.865 181.479 236.1 181.533 239.285 181.069C239.473 181.055 239.657 181.002 239.824 180.913C240.029 180.769 240.172 180.552 240.223 180.306C240.441 179.475 240.021 178.585 239.384 178.008C238.748 177.431 237.931 177.11 237.133 176.8L234.329 175.708C233.671 175.452 232.617 174.772 231.902 174.826C230.559 174.923 229.289 177.043 228.176 177.695Z" fill="#3F3D56"/>
<path opacity="0.05" d="M228.176 177.695C226.634 178.637 224.711 178.693 222.918 178.475C222.629 178.44 222.287 178.418 222.109 178.642C221.839 178.966 222.158 179.451 222.487 179.702C223.544 180.496 224.787 181.007 226.097 181.188C227.267 181.354 228.448 181.432 229.629 181.422C232.865 181.479 236.1 181.533 239.285 181.069C239.473 181.055 239.657 181.002 239.824 180.913C240.029 180.769 240.172 180.552 240.223 180.306C240.441 179.475 240.021 178.585 239.384 178.008C238.748 177.431 237.931 177.11 237.133 176.8L234.329 175.708C233.671 175.452 232.617 174.772 231.902 174.826C230.559 174.923 229.289 177.043 228.176 177.695Z" fill="black"/>
<path d="M230.141 140.464C228.974 142.017 227.766 143.811 228.054 145.733C228.211 146.769 228.791 147.683 229.217 148.64C229.794 149.94 230.096 151.337 230.392 152.729C230.829 154.762 231.268 156.801 231.535 158.867C231.84 161.199 230.408 167.949 230.276 170.298C230.244 170.865 230.176 171.477 229.783 171.884C229.629 172.046 229.424 172.175 229.354 172.386C229.313 172.588 229.347 172.799 229.448 172.979C230.106 174.462 231.452 175.568 232.954 176.199C234.456 176.83 238.077 177.919 239.713 177.976C239.929 178 240.147 177.971 240.35 177.892C240.567 177.759 240.739 177.563 240.84 177.329C242.013 175.085 240.886 167.108 240.902 164.576C240.919 162.464 241.417 160.366 241.326 158.257C241.25 156.564 240.786 154.908 240.633 153.22C240.363 150.453 240.87 147.672 241.38 144.938C241.768 142.84 242.159 140.742 242.658 138.67C242.962 137.406 243.316 136.13 244.006 135.033C244.545 134.161 245.303 133.433 245.931 132.605C247.675 130.319 248.45 127.438 248.088 124.585C248.05 124.316 244.044 125.602 243.69 125.756C242.249 126.366 240.923 127.219 239.77 128.277C238.842 129.162 238.112 130.343 237.3 131.333C236.151 132.733 235.017 134.144 233.897 135.564C232.619 137.187 231.367 138.821 230.141 140.464Z" fill="#464353"/>
<path opacity="0.05" d="M230.141 140.369C228.974 141.923 227.766 143.719 228.054 145.639C228.211 146.677 228.791 147.591 229.217 148.549C229.794 149.846 230.096 151.246 230.392 152.634C230.829 154.67 231.268 156.709 231.535 158.772C231.84 161.108 230.408 167.855 230.276 170.204C230.244 170.77 230.176 171.385 229.783 171.792C229.629 171.951 229.424 172.081 229.354 172.291C229.313 172.494 229.346 172.705 229.448 172.884C230.106 174.37 231.452 175.473 232.954 176.121C234.456 176.768 238.077 177.331 239.713 177.385C239.929 177.409 240.147 177.38 240.35 177.302C240.568 177.171 240.739 176.974 240.84 176.741C242.013 174.497 240.886 167.032 240.902 164.497C240.919 162.383 241.417 160.288 241.326 158.176C241.25 156.483 240.786 154.827 240.633 153.141C240.363 150.372 240.87 147.591 241.38 144.857C241.768 142.762 242.159 140.663 242.658 138.59C242.962 137.325 243.316 136.049 244.006 134.952C244.545 134.081 245.303 133.352 245.931 132.525C247.675 130.238 248.45 127.357 248.088 124.504C248.05 124.235 244.044 125.521 243.69 125.675C242.25 126.287 240.924 127.141 239.77 128.199C238.842 129.081 238.112 130.262 237.3 131.252C236.152 132.652 235.017 134.064 233.897 135.486C232.619 137.097 231.367 138.724 230.141 140.369Z" fill="black"/>
<path d="M217.151 106.253C220.765 106.253 223.695 103.322 223.695 99.7076C223.695 96.0929 220.765 93.1626 217.151 93.1626C213.536 93.1626 210.607 96.0929 210.607 99.7076C210.607 103.322 213.536 106.253 217.151 106.253Z" fill="#FBBEBE"/>
<path d="M223.045 99.4325C223.649 100.397 224.442 101.23 225.375 101.881C226.309 102.533 227.364 102.989 228.478 103.224L227.984 105.018C227.132 108.097 226.175 111.355 223.797 113.491C224.067 112.447 223.721 111.333 223.134 110.427C222.546 109.521 221.721 108.809 220.912 108.105L217.145 104.842C217.036 104.754 216.945 104.646 216.876 104.524C216.783 104.294 216.783 104.037 216.876 103.807C217.355 102.313 218.725 101.38 219.841 100.371C220.402 99.8494 220.902 99.2669 221.333 98.6343C222.085 97.5609 222.551 98.6397 223.045 99.4325Z" fill="#FBBEBE"/>
<path d="M208.53 93.1275L208.382 91.8978C209.415 92.1674 210.396 91.2883 211.057 90.3795C211.717 89.4707 212.33 88.4 213.335 88.0198C214.557 87.5613 215.851 88.2895 217.018 88.9043C218.326 89.6298 219.76 90.0967 221.244 90.2797C221.48 90.2875 221.715 90.3256 221.942 90.393C222.702 90.6626 223.064 91.6173 223.174 92.483C223.285 93.3486 223.255 94.2682 223.63 95.0395C223.899 95.6247 224.401 96.0589 224.708 96.636C225.517 98.1839 224.735 100.301 225.579 101.819L223.482 99.8964C223.29 99.7211 223.02 99.5377 222.807 99.686C222.64 99.8047 222.627 100.061 222.559 100.266C222.357 100.865 221.608 101.042 221.066 100.805C220.524 100.568 220.127 100.053 219.717 99.5835C218.79 98.4887 217.684 97.5259 216.39 97.0594C215.823 96.8472 215.217 96.7582 214.613 96.7982C214.008 96.8382 213.419 97.0063 212.885 97.2913C211.906 97.8441 211.189 99.1332 209.989 99.179C208.344 99.241 207.66 96.1775 206.899 94.9667C207.177 94.7573 207.373 94.4566 207.452 94.1174C207.531 93.7782 207.488 93.422 207.331 93.1113C207.441 93.0655 208.506 92.9387 208.53 93.1275Z" fill="#464353"/>
<path d="M127.59 54.8631C127.064 55.3308 126.578 55.8414 126.136 56.3894C125.692 56.9451 125.456 57.6385 125.468 58.35C125.47 58.5563 125.536 58.7569 125.656 58.9244C125.718 59.0046 125.803 59.0635 125.9 59.093C125.996 59.1225 126.1 59.1211 126.196 59.0889C126.304 59.0337 126.397 58.9521 126.465 58.8516C126.75 58.5091 127.053 58.1815 127.371 57.87C127.487 57.754 127.641 57.6327 127.797 57.6758C127.867 57.7007 127.93 57.7423 127.981 57.7972C128.162 57.954 128.294 58.1601 128.361 58.3904C128.455 58.8031 128.215 59.2157 127.943 59.5393C127.671 59.8629 127.35 60.173 127.239 60.5802C127.197 60.6878 127.197 60.8071 127.239 60.9146C127.291 60.9924 127.364 61.0541 127.45 61.0926C127.836 61.3052 128.264 61.4304 128.704 61.4593C129.143 61.4882 129.584 61.4201 129.995 61.2598C130.534 61.0414 131.014 60.6665 131.569 60.4724C131.81 60.4065 132.043 60.3162 132.265 60.2027C132.424 60.0969 132.56 59.9607 132.666 59.802C132.772 59.6432 132.846 59.465 132.883 59.2777C132.953 58.9034 132.966 58.5207 132.923 58.1423C132.856 56.6773 132.542 55.2341 131.996 53.8734C131.964 53.7856 131.91 53.7075 131.839 53.6468C131.758 53.5974 131.664 53.5721 131.569 53.574C130.879 53.5012 129.747 53.1479 129.081 53.4041C128.848 53.5319 128.647 53.7107 128.493 53.9273C128.369 54.0648 127.59 54.6824 127.59 54.8631Z" fill="#A1616A"/>
<path d="M127.371 54.2536C127.371 53.5956 126.562 52.0072 127.849 51.902C127.849 51.1981 126.854 50.7613 127.04 50.0142C127.099 49.7661 127.309 49.5639 127.334 49.3104C127.414 48.5904 126.115 48.1993 126.331 47.509C126.411 47.2393 126.697 47.0829 126.759 46.8159C126.905 46.1929 125.791 45.9152 125.77 45.276C125.77 45.0603 125.891 44.858 125.88 44.6423C125.88 44.3726 125.646 44.1677 125.516 43.933C125.179 43.3317 125.344 42.4013 124.729 42.0911C125.136 42.1262 125.268 41.5221 125.101 41.1527C124.934 40.7832 124.591 40.4623 124.589 40.0524C124.609 39.9039 124.609 39.7533 124.589 39.6047C124.475 39.211 123.831 39.1786 123.723 38.7957C123.709 38.6487 123.705 38.501 123.71 38.3534C123.667 38.0487 123.354 37.8545 123.06 37.7682C122.755 37.7164 122.461 37.6114 122.192 37.4581C122.003 37.3152 121.785 37.0779 121.582 37.1884C121.507 37.2343 121.469 37.3206 121.412 37.3853C121.17 37.6684 120.706 37.5444 120.401 37.3367C119.501 36.7246 119.053 35.627 118.862 34.5564C118.67 33.4858 118.676 32.3801 118.436 31.3203C118.363 30.99 118.265 30.6655 118.145 30.3494C118.042 30.0797 117.713 29.6563 117.692 29.384C117.643 28.7637 118.926 29.1871 119.414 29.2491C119.888 29.2954 120.357 29.3857 120.814 29.5188C121.302 29.7032 121.78 29.9129 122.246 30.1472C124.192 31.0074 126.544 31.1126 128.107 32.5581C128.622 33.0327 129.057 33.6557 129.725 33.8714C130.032 33.9302 130.335 34.0086 130.631 34.106C131.373 34.4539 131.489 35.4382 131.893 36.1502C132.02 36.3382 132.131 36.5367 132.225 36.7435C132.303 36.9873 132.339 37.2426 132.333 37.4985L132.389 39.3674C132.481 42.4984 132.573 45.6374 132.238 48.7495C132.13 49.7769 131.969 50.8341 132.273 51.8211C132.354 52.0908 132.467 52.3443 132.543 52.6166C132.61 52.936 132.644 53.2612 132.645 53.5875L132.688 54.7983C132.703 54.8925 132.682 54.9888 132.629 55.068C132.584 55.1046 132.531 55.1306 132.475 55.1442C132.418 55.1577 132.36 55.1584 132.303 55.1462C130.618 54.9952 128.914 54.0459 127.323 54.6203" fill="#464353"/>
<path d="M204.276 147.292C215.289 147.292 224.218 146.001 224.218 144.409C224.218 142.817 215.289 141.526 204.276 141.526C193.262 141.526 184.334 142.817 184.334 144.409C184.334 146.001 193.262 147.292 204.276 147.292Z" fill="#504F60"/>
<path d="M221.432 144.549C221.082 143.047 220.863 141.729 220.863 141.729C220.863 141.729 220.944 140.094 220.211 138.867V138.457V135.437C220.42 134.889 220.675 134.359 220.974 133.854C221.513 132.905 220.974 129.426 220.974 129.426C220.974 129.426 218.96 124.521 219.448 121.408C219.936 118.296 215.312 107.59 215.312 107.59C215.34 106.558 215.486 105.532 215.746 104.532C215.795 104.322 215.815 104.106 215.805 103.89C215.805 103.863 215.805 103.839 215.805 103.812C215.805 103.785 215.805 103.828 215.805 103.836C215.735 101.784 214.112 97.9385 214.112 97.9385L214.33 90.6087C214.33 90.6087 215.366 86.2939 213.678 80.4823C213.087 78.4571 212.71 76.8363 212.47 75.585C212.443 75.4448 212.416 75.3153 212.394 75.1778C215.87 74.6385 218.526 74.207 218.526 74.207C218.526 74.207 216.509 65.7688 215.147 64.291C213.786 62.8131 212.696 58.172 212.696 58.172C212.696 58.172 211.987 52.2148 213.133 50.4727C214.279 48.7306 214.441 45.7264 214.441 45.7264C214.441 45.7264 217.053 43.8387 217.382 42.9838C217.711 42.1289 218.253 40.2412 218.253 39.2407C218.253 38.2402 217.927 37.3529 218.035 36.8136C218.143 36.2742 217.272 34.2813 217.709 33.3321C217.822 33.0405 217.88 32.7306 217.881 32.4178C217.882 32.4089 217.882 32.3998 217.881 32.3909C217.885 31.5602 217.809 30.7311 217.652 29.9152C216.896 29.2769 216.014 28.8055 215.064 28.5318L215.007 28.3053L214.859 27.712C214.776 27.6573 214.69 27.6069 214.603 27.561V27.3452L214.578 26.4877L214.988 24.5622C215.797 21.2128 211.324 20.7139 211.324 20.7139C211.053 20.2001 210.601 19.8045 210.057 19.6028C209.159 19.2873 209.908 24.6404 210.326 24.9963C210.642 25.266 211.618 26.9326 212.09 27.7578L212.165 27.8927C212.091 27.9591 212.023 28.0312 211.96 28.1084L212.13 29.2707L212.157 29.4487C211.86 29.8169 211.62 30.2267 211.442 30.6649C211.442 30.6649 212.251 31.5603 212.098 32.5527C211.944 33.5451 212.348 34.8045 212.367 34.8719C212.319 34.8153 211.744 34.195 211.17 34.346C210.596 34.4971 208.991 34.9798 208.991 34.9798C208.991 34.9798 207.794 35.1901 207.913 35.4544C208.032 35.7187 207.104 36.8783 207.104 36.8783L203.885 33.8256C203.852 33.7339 203.817 33.6422 203.79 33.5559C203.659 33.1157 203.569 32.6643 203.521 32.2075C203.872 32.1241 204.216 32.015 204.551 31.8812C204.889 31.765 205.194 31.5689 205.44 31.3095C205.767 30.9238 205.829 30.4007 205.961 29.9206C206.214 28.9822 206.77 28.1489 207.155 27.2562C207.808 25.7479 208.019 24.0849 207.762 22.4614C207.713 21.9611 207.543 21.4801 207.269 21.0591C206.743 20.3363 205.788 20.0424 205.095 19.4653C204.402 18.8882 203.955 18.0063 203.146 17.5775C202.415 17.1865 201.528 17.2323 200.703 17.3672C199.092 17.633 197.544 18.1963 196.138 19.0284C195.669 19.2981 195.151 19.6298 194.612 19.53C194.148 19.4464 193.803 19.0769 193.512 18.721C193.515 18.7062 193.52 18.6918 193.525 18.6778C193.512 18.6647 193.501 18.6502 193.49 18.6347C193.149 19.392 192.978 20.215 192.989 21.0456C192.989 21.175 192.989 21.3153 193.005 21.4312V21.5661C193.005 21.6038 193.005 21.6416 193.005 21.6766C193.005 21.7341 192.997 21.7913 192.981 21.8465C192.913 22.0115 192.81 22.1596 192.679 22.2807C192.58 22.3931 192.49 22.513 192.409 22.6394C192.409 22.5962 192.436 22.5531 192.452 22.5072C192.247 22.8075 192.131 23.1601 192.118 23.5239C192.103 23.7887 192.19 24.0492 192.361 24.252C192.522 24.4088 192.698 24.5497 192.886 24.6727C192.822 25.0287 192.79 25.3897 192.789 25.7514C192.795 26.8238 193.078 27.8765 193.61 28.8076C194.142 29.7388 194.905 30.5169 195.825 31.0668C195.863 31.1558 195.898 31.2474 195.933 31.3364C196.346 32.4151 196.656 33.6826 196.518 34.8422C196.518 34.9258 196.494 35.0121 196.481 35.0957C196.467 35.1793 196.4 35.1847 196.365 35.2306C196.365 35.2306 191.045 35.2845 189.794 34.1519C188.543 33.0192 186.634 36.9214 186.634 36.9214C186.634 36.9214 184.727 37.2909 184.344 36.9214C183.962 36.552 181.732 36.8702 181.732 36.8702C180.818 36.0576 179.629 35.6237 178.407 35.6567C177.667 35.0938 176.85 34.6398 175.98 34.3083L175.921 34.2867C175.538 34.1469 175.128 34.0953 174.721 34.1357C174.721 34.1357 172.106 31.9783 171.343 30.8133C170.58 29.6483 166.948 25.3469 166.932 25.328V25.1204L166.891 24.4947C166.783 24.5117 166.674 24.5207 166.565 24.5217C166.546 24.4597 166.519 24.3869 166.492 24.3033C166.283 23.693 166.025 23.1005 165.721 22.5315C165.721 22.5315 165.721 21.7413 165.95 21.5418C166.179 21.3422 165.856 18.4432 165.856 18.4432C165.856 18.4432 163.499 12.9337 161.388 17.0463C161.388 17.0463 157.397 19.708 160.746 22.8093C160.746 22.8093 162.094 23.4565 162.272 23.9689C162.396 24.3006 162.849 25.231 163.154 25.8566L163.292 26.1263L163.254 26.1586L163.302 26.6764L163.324 26.876C162.693 27.2347 162.264 27.5906 162.37 27.8576C162.555 28.3145 162.683 28.7928 162.75 29.2815C162.75 29.2815 167.382 35.0849 167.981 37.5633C167.981 37.5633 180.402 44.947 184.487 45.4729L183.765 49.154C183.659 50.1529 183.605 51.1565 183.603 52.1609C183.657 52.951 183.112 56.5377 183.112 56.5377C183.112 56.5377 182.403 61.8126 181.805 62.5515C181.206 63.2904 181.314 66.4538 181.314 66.4538C181.172 67.9681 180.902 69.4676 180.505 70.9358C179.906 72.9395 180.34 75.4205 180.34 75.4205C180.34 75.4205 178.272 80.1668 183.228 76.9496C183.228 76.9496 185.655 76.7986 188.464 76.7015C188.464 76.7932 188.464 76.8876 188.464 76.9712C188.464 77.3325 188.464 77.7235 188.446 78.1335C188.408 80.8518 188.392 84.6057 188.516 87.4319C188.734 92.4425 190.26 102.359 190.26 102.359V107.35C190.162 107.818 190.113 108.296 190.115 108.774C190.082 110.53 190.55 112.26 191.463 113.76L191.846 117.083C191.846 117.083 192.741 119.273 192.757 120.589C192.754 120.695 192.741 120.8 192.719 120.904C192.684 121.072 192.67 121.243 192.676 121.414C192.625 122.924 193.534 126.538 193.534 126.538C193.534 126.538 193.587 130.176 194.132 130.389C194.599 130.569 193.509 132.484 193.186 133.034C193.177 133.001 193.171 132.966 193.167 132.932L193.099 133.04C192.987 133.334 192.929 133.647 192.93 133.962C192.899 134.21 192.939 134.462 193.046 134.689C193.153 134.915 193.322 135.106 193.534 135.24C194.569 135.874 195.124 136.4 194.245 136.61C193.922 136.66 193.602 136.728 193.285 136.812C193.285 136.772 193.253 136.729 193.24 136.691C193.116 136.74 193.012 136.829 192.947 136.945C192.881 137.061 192.858 137.196 192.881 137.328C192.889 137.755 192.999 138.175 193.202 138.552C194.073 140.504 194.677 141.249 194.677 141.249L195.095 141.203C195.033 141.362 194.951 141.514 194.852 141.653C194.693 141.879 194.482 142.064 194.237 142.192C194.009 142.329 193.754 142.416 193.49 142.449C193.195 142.458 192.905 142.53 192.639 142.659C192.374 142.788 192.138 142.972 191.948 143.198C191.409 143.902 191.064 144.86 192.137 145.701L196.033 147.049C196.033 147.049 202.736 147.92 202.38 146.416C202.024 144.911 201.808 143.595 201.808 143.595C201.837 142.676 201.653 141.763 201.269 140.928C201.199 140.791 201.12 140.66 201.032 140.534L201.269 140.51C201.269 140.51 201.76 137.185 202.412 136.554C202.563 136.408 202.599 136.284 202.563 136.208C202.631 136.028 202.458 135.923 202.24 135.86L202.191 135.993C201.978 135.946 201.76 135.922 201.542 135.92C201.542 135.92 201.323 134.18 202.032 133.547C202.09 133.474 202.131 133.391 202.155 133.302C202.179 133.213 202.184 133.12 202.17 133.029C202.175 132.79 202.15 132.552 202.094 132.32C202.087 132.335 202.079 132.349 202.07 132.363C201.714 130.782 200.506 128.272 200.506 128.272C200.506 128.272 200.452 126.691 200.889 126.058C201.326 125.424 200.832 117.46 200.832 117.46C200.832 117.46 200.997 113.612 200.506 111.819C200.015 110.025 201.105 107.914 201.105 107.914C201.105 107.914 201.105 107.873 201.105 107.801V107.774L201.043 107.167C201.041 107.179 201.041 107.192 201.043 107.205C200.932 106.185 200.725 104.338 200.571 103.486C200.352 102.272 200.628 96.4742 200.628 96.4742L201.606 93.9931L203.351 98.2675L205.203 103.963C205.203 103.963 206.12 105.166 206.141 106.39C206.141 106.45 206.141 106.509 206.141 106.568C206.127 106.694 206.119 106.821 206.12 106.948C206.087 107.668 206.284 108.379 206.683 108.979C206.683 108.979 207.174 111.676 207.937 112.353C208.7 113.03 208.7 114.356 208.7 114.356C208.7 114.356 209.625 118.261 210.048 118.941C210.415 119.518 210.434 121.098 210.431 121.592C210.431 121.681 210.431 121.732 210.431 121.732C210.431 121.732 210.561 123.129 210.555 124.299C210.555 124.445 210.555 124.585 210.555 124.717C210.557 124.708 210.557 124.698 210.555 124.688C210.555 125.008 210.517 125.326 210.442 125.637L210.426 125.691C210.426 125.624 210.426 125.559 210.445 125.494C210.255 126.289 210.165 127.104 210.175 127.921C210.151 129.324 210.364 130.985 211.213 131.966C212.685 133.655 213.61 133.444 213.61 133.444C213.61 133.444 212.904 135.553 212.03 135.976C211.997 135.992 211.966 136.012 211.939 136.036C211.939 135.993 211.922 135.952 211.917 135.912C211.82 136.017 211.745 136.141 211.699 136.277C211.652 136.413 211.635 136.556 211.647 136.699C211.585 137.627 212.17 139.126 212.726 139.825C212.932 140.027 213.185 140.175 213.462 140.256C213.418 140.287 213.372 140.315 213.324 140.34C213.227 140.393 213.128 140.441 213.025 140.483C212.883 140.543 212.733 140.582 212.58 140.599C212.285 140.607 211.994 140.678 211.728 140.807C211.462 140.936 211.227 141.121 211.038 141.348C210.499 142.05 210.154 143.007 211.227 143.848L215.123 145.197C215.123 145.197 221.783 146.052 221.432 144.549Z" fill="url(#paint0_linear)"/>
<path d="M195.842 147.041L192.067 145.693C191.026 144.852 191.358 143.894 191.883 143.19C192.064 142.966 192.291 142.783 192.549 142.653C192.807 142.524 193.089 142.452 193.377 142.441C193.633 142.408 193.878 142.321 194.097 142.184C194.336 142.054 194.541 141.87 194.696 141.645C194.971 141.208 195.119 140.703 195.124 140.186C195.124 140.186 199.266 138.973 200.398 140.186C200.6 140.406 200.769 140.654 200.9 140.922C201.276 141.76 201.46 142.671 201.439 143.589C201.439 143.589 201.649 144.905 201.992 146.41C202.334 147.915 195.842 147.041 195.842 147.041Z" fill="#2D293D"/>
<path d="M214.295 145.18L210.52 143.832C209.48 142.991 209.811 142.033 210.337 141.332C210.517 141.107 210.743 140.923 211 140.794C211.258 140.664 211.54 140.592 211.828 140.583C211.977 140.567 212.123 140.528 212.259 140.467C212.359 140.424 212.456 140.377 212.551 140.324C213.605 139.744 213.578 138.32 213.578 138.32C213.578 138.32 217.717 137.106 218.852 138.32C219.004 138.484 219.137 138.665 219.248 138.859C219.957 140.086 219.879 141.723 219.879 141.723C219.879 141.723 220.09 143.042 220.419 144.544C220.747 146.046 214.295 145.18 214.295 145.18Z" fill="#2D293D"/>
<path opacity="0.1" d="M200.401 140.183C200.603 140.403 200.772 140.651 200.903 140.92L194.701 141.64C194.976 141.202 195.125 140.697 195.13 140.181C195.13 140.181 199.269 138.97 200.401 140.183Z" fill="black"/>
<path opacity="0.1" d="M219.254 138.865V140.027C218.288 141.615 213.621 141.268 212.265 140.472C212.365 140.43 212.462 140.382 212.556 140.329C213.61 139.749 213.583 138.325 213.583 138.325C213.583 138.325 217.722 137.112 218.857 138.325C219.009 138.49 219.142 138.671 219.254 138.865Z" fill="black"/>
<path d="M219.99 133.854C219.701 134.361 219.455 134.89 219.254 135.437V139.604C218.197 141.343 212.715 140.763 211.974 139.814C211.232 138.865 210.458 136.394 211.291 135.966C212.125 135.537 212.82 133.433 212.82 133.433C212.82 133.433 211.922 133.644 210.499 131.956C209.075 130.267 209.498 126.524 209.763 125.629C210.027 124.734 209.763 121.727 209.763 121.727C209.763 121.727 209.817 119.615 209.396 118.93C208.975 118.245 208.077 114.346 208.077 114.346C208.077 114.346 208.077 113.027 207.339 112.342C206.6 111.657 206.125 108.966 206.125 108.966C205.693 108.293 205.508 107.492 205.6 106.698C205.756 105.379 204.702 103.955 204.702 103.955L202.909 98.2568L201.221 93.9851L200.272 96.4634C200.272 96.4634 200.002 102.264 200.22 103.475C200.439 104.686 200.76 107.906 200.76 107.906C200.76 107.906 199.705 110.015 200.18 111.808C200.654 113.601 200.482 117.455 200.482 117.455C200.482 117.455 200.956 125.416 200.533 126.05C200.11 126.683 200.164 128.266 200.164 128.266C200.164 128.266 202.321 132.905 201.641 133.539C200.962 134.172 201.167 135.912 201.167 135.912C201.167 135.912 202.642 135.912 202.011 136.545C201.38 137.179 200.903 140.502 200.903 140.502L194.526 141.249C194.526 141.249 193.943 140.512 193.099 138.552C192.255 136.591 193.256 136.812 194.105 136.599C194.954 136.386 194.418 135.863 193.415 135.229C192.412 134.596 192.994 133.172 192.994 133.172C192.994 133.172 194.523 130.588 193.995 130.378C193.466 130.168 193.415 126.527 193.415 126.527C193.415 126.527 192.361 122.212 192.625 121.042C192.889 119.871 191.781 117.088 191.781 117.088L191.412 113.766C190.283 111.881 189.872 109.652 190.252 107.488V102.364C190.252 102.364 188.775 92.4506 188.564 87.44C188.429 84.2309 188.467 79.8513 188.51 77.1195C188.537 75.5877 188.564 74.571 188.564 74.571L211.343 72.1979C211.343 72.1979 211.321 73.2496 211.755 75.5823C211.99 76.8336 212.354 78.4544 212.925 80.4797C214.559 86.2804 213.559 90.6033 213.559 90.6033L213.346 97.9358C213.346 97.9358 215.349 102.839 214.929 104.527C214.675 105.529 214.532 106.557 214.503 107.59C214.503 107.59 218.984 118.296 218.509 121.409C218.035 124.521 219.984 129.426 219.984 129.426C219.984 129.426 220.518 132.905 219.99 133.854Z" fill="#464353"/>
<path opacity="0.05" d="M206.967 106.379L213.902 105.454C213.902 105.454 209.973 109.465 206.967 106.379Z" fill="black"/>
<path opacity="0.1" d="M212.898 98.6775C212.898 98.6775 213.136 101.131 211.634 102.054C211.634 102.054 214.322 101.633 212.898 98.6775Z" fill="black"/>
<path opacity="0.1" d="M212.472 90.873C212.472 90.873 206.675 95.6463 204.567 95.2499C202.458 94.8534 212.472 90.873 212.472 90.873Z" fill="black"/>
<path opacity="0.1" d="M198.371 108.618C198.371 108.618 193.968 109.618 193.836 111.387C193.703 113.156 198.371 108.618 198.371 108.618Z" fill="black"/>
<path opacity="0.05" d="M199.339 130.613C199.339 130.613 193.118 131.772 194.884 132.562C196.65 133.352 199.552 133.986 199.552 133.986C199.552 133.986 201.56 134.091 199.339 130.613Z" fill="black"/>
<g opacity="0.05">
<path opacity="0.05" d="M193.628 133.819C193.471 133.721 193.339 133.59 193.241 133.434C193.142 133.278 193.08 133.102 193.059 132.918L192.994 133.029C192.994 133.029 192.415 134.453 193.418 135.084C193.531 135.157 193.641 135.229 193.741 135.3C193.927 135.264 194.127 135.238 194.318 135.189C195.167 134.979 194.631 134.453 193.628 133.819Z" fill="black"/>
<path opacity="0.05" d="M201.641 133.396C201.814 133.239 201.808 132.835 201.703 132.317C201.434 132.724 201.356 133.361 201.35 133.843C201.416 133.676 201.515 133.523 201.641 133.396Z" fill="black"/>
<path opacity="0.05" d="M200.684 107.159C200.455 107.783 200.314 108.435 200.264 109.098C200.384 108.64 200.545 108.194 200.746 107.766L200.684 107.159Z" fill="black"/>
<path opacity="0.05" d="M214.931 104.392C214.973 104.202 214.992 104.009 214.988 103.815C214.91 104.208 214.856 104.573 214.816 104.893C214.851 104.729 214.888 104.573 214.931 104.392Z" fill="black"/>
<path opacity="0.05" d="M200.536 125.909C200.622 125.78 200.671 125.343 200.692 124.736C200.497 125.206 200.394 125.708 200.388 126.217C200.424 126.109 200.474 126.005 200.536 125.909Z" fill="black"/>
<path opacity="0.05" d="M201.83 135.855C201.503 136.913 201.261 137.995 201.105 139.091L194.728 139.827C194.728 139.827 194.146 139.091 193.302 137.131C193.234 136.979 193.173 136.824 193.121 136.667C192.738 136.842 192.582 137.239 193.089 138.395C193.933 140.348 194.518 141.092 194.518 141.092L200.894 140.353C200.894 140.353 201.369 137.031 202 136.397C202.324 136.092 202.124 135.933 201.83 135.855Z" fill="black"/>
<path opacity="0.05" d="M193.418 126.384C193.418 126.384 193.469 130.022 193.997 130.232C194.267 129.631 194.442 129.059 194.205 128.965C193.666 128.754 193.625 125.114 193.625 125.114C193.625 125.114 192.571 120.799 192.835 119.629C193.099 118.458 191.991 115.675 191.991 115.675L191.622 112.353C190.494 110.467 190.082 108.239 190.462 106.075V100.951C190.462 100.951 188.985 91.0375 188.775 86.0269C188.64 82.8177 188.677 78.4382 188.721 75.7064C188.721 75.2129 188.737 74.776 188.745 74.4065L188.564 74.4254C188.564 74.4254 188.535 75.4394 188.51 76.9738C188.467 79.7057 188.427 84.0852 188.564 87.2917C188.775 92.3023 190.249 102.218 190.249 102.218V107.342C189.871 109.506 190.283 111.733 191.412 113.618L191.778 116.94C191.778 116.94 192.886 119.734 192.622 120.896C192.358 122.058 193.418 126.384 193.418 126.384Z" fill="black"/>
<path opacity="0.05" d="M212.189 138.406C211.671 137.656 211.326 136.8 211.178 135.901C210.528 136.489 211.275 138.77 211.987 139.676C212.723 140.626 218.208 141.205 219.267 139.463V138.46C217.83 139.871 212.885 139.304 212.189 138.406Z" fill="black"/>
<path opacity="0.05" d="M220.203 132.446C219.914 132.953 219.667 133.482 219.464 134.029V134.776C219.585 134.507 219.755 134.145 220.003 133.719C220.17 133.304 220.249 132.859 220.235 132.411C220.235 132.411 220.211 132.436 220.203 132.446Z" fill="black"/>
<path opacity="0.05" d="M212.513 133.28C212.713 132.873 212.887 132.455 213.033 132.026C213.033 132.026 212.135 132.236 210.712 130.548C209.676 129.321 209.617 127.002 209.765 125.486C209.496 126.384 209.078 130.127 210.501 131.815C211.432 132.918 212.135 133.21 212.513 133.28Z" fill="black"/>
<path opacity="0.05" d="M209.763 121.584C209.856 122.623 209.891 123.666 209.868 124.709C209.894 124.545 209.93 124.382 209.976 124.221C210.245 123.323 209.976 120.319 209.976 120.319C209.976 120.319 210.03 118.207 209.606 117.522C209.183 116.837 208.301 112.933 208.301 112.933C208.301 112.933 208.301 111.614 207.562 110.929C206.824 110.244 206.349 107.552 206.349 107.552C205.913 106.881 205.723 106.08 205.81 105.285C205.969 103.966 204.915 102.542 204.915 102.542L203.122 96.8463L201.434 92.5746L200.482 95.0557C200.482 95.0557 200.482 95.3685 200.45 95.8647L201.221 93.8502L202.909 98.1138L204.702 103.809C204.702 103.809 205.756 105.233 205.597 106.552C205.51 107.348 205.7 108.149 206.136 108.82C206.136 108.82 206.611 111.517 207.349 112.196C208.088 112.876 208.086 114.2 208.086 114.2C208.086 114.2 208.983 118.102 209.404 118.785C209.825 119.467 209.763 121.584 209.763 121.584Z" fill="black"/>
</g>
<path d="M214.19 24.5541L213.794 26.4796L213.818 27.3371L213.834 27.9682L211.634 28.1947L211.389 27.739C210.933 26.9138 209.986 25.2364 209.682 24.9775C209.275 24.6377 208.549 19.2819 209.412 19.6001C209.943 19.8053 210.379 20.2002 210.636 20.7085C210.636 20.7085 214.969 21.2047 214.19 24.5541Z" fill="#FFCDD3"/>
<path opacity="0.1" d="M213.834 27.9682L211.634 28.1947L211.389 27.739C211.684 27.402 212.088 27.1781 212.531 27.1053C212.973 27.0325 213.427 27.1154 213.815 27.3398L213.834 27.9682Z" fill="black"/>
<path d="M214.39 29.0118L211.488 29.6833L211.426 29.2518L211.262 28.0895C211.262 28.0895 212.41 26.5578 214.071 27.7066L214.217 28.2972L214.39 29.0118Z" fill="#66D655"/>
<path d="M167.393 24.7644L164.295 26.4257L164.025 25.8432C163.731 25.2256 163.292 24.2952 163.17 23.9554C162.987 23.443 161.695 22.7958 161.695 22.7958C158.46 19.6972 162.316 17.0328 162.316 17.0328C164.359 12.9202 166.63 18.4297 166.63 18.4297C166.63 18.4297 166.948 21.3342 166.724 21.5283C166.5 21.7225 166.5 22.518 166.5 22.518C166.796 23.088 167.045 23.6805 167.247 24.2898C167.342 24.5838 167.393 24.7644 167.393 24.7644Z" fill="#FFCDD3"/>
<path opacity="0.1" d="M167.393 24.7644L164.295 26.4256L164.025 25.8431C164.462 25.4764 166.012 24.2251 166.522 24.2763C166.765 24.3067 167.011 24.313 167.255 24.2952C167.342 24.5837 167.393 24.7644 167.393 24.7644Z" fill="black"/>
<path d="M167.708 25.7002L164.227 27.4153L164.157 26.6683L164.109 26.1506C164.109 26.1506 166.125 24.4219 166.721 24.4893C167.023 24.533 167.329 24.533 167.63 24.4893L167.67 25.115L167.708 25.7002Z" fill="#66D655"/>
<path d="M205.753 37.3449C205.753 37.3449 190.578 39.0573 193.415 38.135C195.389 37.4905 196.173 36.2473 196.338 34.845C196.472 33.6773 196.17 32.4179 195.774 31.3392C195.417 30.3822 194.966 29.4634 194.426 28.5965C194.426 28.5965 206.02 22.216 203.704 28.0167C203.347 28.8941 203.125 29.8207 203.046 30.7647C202.977 31.7029 203.078 32.6459 203.345 33.5478C203.783 35.0112 204.616 36.3253 205.753 37.3449Z" fill="#FFCDD3"/>
<path opacity="0.1" d="M203.696 28.0086C203.339 28.886 203.117 29.8126 203.038 30.7567C201.946 31.6762 200.749 31.6142 199.209 31.6142C198.028 31.6142 196.718 31.9001 195.774 31.3311C195.418 30.3741 194.966 29.4553 194.426 28.5885C194.426 28.5885 206.017 22.2079 203.696 28.0086Z" fill="black"/>
<path d="M199.004 32.0187C202.47 32.0187 205.279 29.2091 205.279 25.7433C205.279 22.2775 202.47 19.468 199.004 19.468C195.539 19.468 192.73 22.2775 192.73 25.7433C192.73 29.2091 195.539 32.0187 199.004 32.0187Z" fill="#FFCDD3"/>
<path opacity="0.1" d="M205.753 37.3448C205.753 37.3448 190.578 39.0573 193.415 38.135C195.389 37.4904 196.173 36.2472 196.338 34.8449C197.093 34.0359 198.611 33.4345 199.573 33.1217C200.463 32.8224 201.424 32.8063 202.324 33.0758C202.677 33.1824 203.014 33.3386 203.324 33.5397C203.766 35.0085 204.607 36.3258 205.753 37.3448Z" fill="black"/>
<path opacity="0.1" d="M214.39 29.0118L211.488 29.6833L211.426 29.2518C211.737 28.8251 212.171 28.5045 212.671 28.3336C213.17 28.1628 213.71 28.1501 214.217 28.2972L214.39 29.0118Z" fill="black"/>
<path opacity="0.1" d="M167.708 25.7002L164.227 27.4153L164.157 26.6683C165.285 26.062 166.456 25.5419 167.662 25.1123L167.708 25.7002Z" fill="black"/>
<path opacity="0.1" d="M211.755 75.5877C205.875 76.5262 197.516 77.7236 196.189 77.319C195.087 76.9846 191.571 77.0197 188.51 77.1249C188.537 75.5931 188.564 74.5764 188.564 74.5764L211.343 72.2033C211.343 72.2033 211.321 73.255 211.755 75.5877Z" fill="black"/>
<path d="M217.617 74.207C217.617 74.207 198.266 77.5294 196.189 76.9037C194.113 76.2781 183.449 76.955 183.449 76.955C178.65 80.1722 180.653 75.4259 180.653 75.4259C180.653 75.4259 180.233 72.9476 180.812 70.9439C181.202 69.4728 181.468 67.9718 181.608 66.4565C181.608 66.4565 181.503 63.2904 182.082 62.5515C182.662 61.8126 183.35 56.5404 183.35 56.5404C183.35 56.5404 183.875 52.9537 183.824 52.1636C183.773 51.3734 183.98 49.1567 183.98 49.1567L184.668 45.4648C180.713 44.9389 168.69 37.5552 168.69 37.5552C168.11 35.0769 163.629 29.2761 163.629 29.2761C163.563 28.7883 163.439 28.3102 163.259 27.8522C162.944 27.0081 167.689 25.3199 167.689 25.3199C167.689 25.3199 171.221 29.6348 171.96 30.8052C172.699 31.9756 175.228 34.1276 175.228 34.1276C175.621 34.0872 176.018 34.1389 176.388 34.2786L176.45 34.2975C177.297 34.6303 178.092 35.0845 178.809 35.6459C179.998 35.6177 181.151 36.0528 182.026 36.8594C182.026 36.8594 184.183 36.5412 184.557 36.9107C184.932 37.2801 186.771 36.9107 186.771 36.9107C186.771 36.9107 188.615 33.0084 189.829 34.1411C191.042 35.2737 196.189 35.2198 196.189 35.2198C196.874 34.3083 198.543 33.6557 199.587 33.332C200.477 33.034 201.437 33.018 202.337 33.2862C202.725 33.402 203.09 33.5845 203.416 33.8256L206.546 36.8837C206.546 36.8837 207.441 35.7214 207.336 35.4598C207.231 35.1982 208.39 34.9852 208.39 34.9852C208.39 34.9852 209.919 34.5105 210.499 34.3514C211.078 34.1923 211.61 34.8207 211.658 34.8773C211.639 34.8099 211.243 33.5289 211.389 32.5581C211.534 31.5872 210.755 30.6703 210.755 30.6703C212.599 26.1344 216.765 29.9314 216.765 29.9314C216.765 29.9314 217.24 32.4097 216.819 33.359C216.398 34.3083 217.24 36.312 217.134 36.8405C217.029 37.3691 217.347 38.2644 217.347 39.2676C217.347 40.2708 216.808 42.1667 216.503 43.0107C216.199 43.8548 213.656 45.7534 213.656 45.7534C213.656 45.7534 213.497 48.7603 212.389 50.4997C211.281 52.2391 211.976 58.1882 211.976 58.1882C211.976 58.1882 213.031 62.8293 214.349 64.3071C215.668 65.785 217.617 74.207 217.617 74.207Z" fill="#3F3D56"/>
<path opacity="0.1" d="M189.408 39.505C189.408 39.505 188.828 37.7655 188.3 37.6172C187.775 37.4242 187.264 37.1953 186.771 36.9322L187.111 36.2823C187.111 36.2823 189.09 36.8217 189.408 37.4069C189.726 37.9921 189.408 39.505 189.408 39.505Z" fill="black"/>
<path opacity="0.1" d="M178.809 35.6567C178.704 36.196 174.009 36.6572 174.009 36.6572L176.382 34.2786L176.442 34.3002C177.292 34.6348 178.09 35.0918 178.809 35.6567Z" fill="black"/>
<path d="M165.23 28.8392C165.463 28.8392 165.651 28.6509 165.651 28.4185C165.651 28.1862 165.463 27.9978 165.23 27.9978C164.998 27.9978 164.81 28.1862 164.81 28.4185C164.81 28.6509 164.998 28.8392 165.23 28.8392Z" fill="#575988"/>
<path d="M165.77 29.6833C166.002 29.6833 166.19 29.495 166.19 29.2626C166.19 29.0303 166.002 28.8419 165.77 28.8419C165.537 28.8419 165.349 29.0303 165.349 29.2626C165.349 29.495 165.537 29.6833 165.77 29.6833Z" fill="#575988"/>
<path d="M166.298 30.4627C166.53 30.4627 166.719 30.2743 166.719 30.042C166.719 29.8097 166.53 29.6213 166.298 29.6213C166.066 29.6213 165.877 29.8097 165.877 30.042C165.877 30.2743 166.066 30.4627 166.298 30.4627Z" fill="#575988"/>
<path d="M166.851 31.3041C167.083 31.3041 167.271 31.1157 167.271 30.8834C167.271 30.6511 167.083 30.4627 166.851 30.4627C166.618 30.4627 166.43 30.6511 166.43 30.8834C166.43 31.1157 166.618 31.3041 166.851 31.3041Z" fill="#575988"/>
<path d="M216.555 31.18C216.744 31.18 216.897 31.0267 216.897 30.8375C216.897 30.6484 216.744 30.4951 216.555 30.4951C216.366 30.4951 216.212 30.6484 216.212 30.8375C216.212 31.0267 216.366 31.18 216.555 31.18Z" fill="#575988"/>
<path d="M216.609 31.9594C216.798 31.9594 216.951 31.8061 216.951 31.6169C216.951 31.4278 216.798 31.2744 216.609 31.2744C216.419 31.2744 216.266 31.4278 216.266 31.6169C216.266 31.8061 216.419 31.9594 216.609 31.9594Z" fill="#575988"/>
<path d="M216.654 32.7361C216.844 32.7361 216.997 32.5827 216.997 32.3936C216.997 32.2044 216.844 32.0511 216.654 32.0511C216.465 32.0511 216.312 32.2044 216.312 32.3936C216.312 32.5827 216.465 32.7361 216.654 32.7361Z" fill="#575988"/>
<path opacity="0.1" d="M189.427 53.7978C189.376 53.7358 201.264 68.7487 210.491 60.0732C210.499 60.0759 195.92 62.0526 189.427 53.7978Z" fill="black"/>
<path opacity="0.1" d="M182.605 61.6023C182.605 61.6023 189.718 61.7965 190.462 63.8433V65.9738C190.26 66.0861 190.032 66.1451 189.8 66.1451C189.569 66.1451 189.341 66.0861 189.139 65.9738C188.421 65.5854 184.121 63.401 182.605 64.4528V61.6023Z" fill="black"/>
<path d="M182.737 61.6023C182.737 61.6023 189.54 61.7884 190.252 63.7408V65.7688C190.058 65.8765 189.84 65.933 189.618 65.933C189.397 65.933 189.179 65.8765 188.985 65.7688C188.3 65.402 184.188 63.3174 182.737 64.3206V61.6023Z" fill="#3F3D56"/>
<path opacity="0.1" d="M186.488 46.1552C187.215 47.8375 188.141 49.4265 189.246 50.888C190.449 52.5034 191.906 53.9124 193.56 55.0599C193.56 55.0599 186.607 47.1314 186.488 46.1552Z" fill="black"/>
<path opacity="0.1" d="M184.161 37.8896C184.161 37.8896 185.348 43.0135 188.405 44.7529L184.161 37.8896Z" fill="black"/>
<path opacity="0.1" d="M182.341 38.4073C182.311 38.313 181.287 42.4525 186.283 44.7529C186.283 44.7529 184.161 44.0328 182.341 38.4073Z" fill="black"/>
<path opacity="0.1" d="M213.4 34.9717C213.322 34.9717 215.864 36.5897 216.557 37.3448C216.557 37.3448 214.902 34.8638 213.4 34.9717Z" fill="black"/>
<path d="M197.308 31.4309C197.309 31.5678 197.339 31.703 197.394 31.828C197.45 31.953 197.532 32.065 197.633 32.157C197.734 32.249 197.854 32.319 197.983 32.3625C198.113 32.406 198.251 32.4221 198.387 32.4098C200.299 32.5285 202.291 32.6121 204.049 31.8704C204.379 31.7527 204.675 31.5565 204.912 31.2987C205.225 30.9131 205.287 30.3899 205.413 29.9099C205.662 28.9714 206.19 28.1381 206.57 27.2455C207.213 25.7374 207.429 24.0812 207.193 22.4587C207.143 21.9614 206.979 21.4823 206.713 21.0591C206.206 20.3337 205.281 20.0397 204.61 19.4626C203.939 18.8855 203.507 18.0037 202.723 17.5749C202.016 17.1811 201.151 17.2297 200.355 17.3645C198.791 17.6302 197.291 18.1932 195.939 19.023C195.483 19.2927 194.984 19.6244 194.461 19.5246C194.003 19.4383 193.668 19.0527 193.383 18.6913C193.015 19.5543 192.86 20.4932 192.932 21.4286C192.952 21.5658 192.948 21.7055 192.919 21.8412C192.853 22.0052 192.753 22.1532 192.625 22.2753C192.153 22.8147 191.859 23.6911 192.326 24.2467C192.528 24.4867 192.841 24.6188 193.037 24.8642C193.391 25.3038 193.272 25.9429 193.264 26.5039C193.244 26.6997 193.294 26.8962 193.404 27.0594C193.506 27.1545 193.631 27.2216 193.767 27.2542C193.902 27.2868 194.044 27.2838 194.178 27.2455C194.445 27.165 194.726 27.1384 195.003 27.1673C195.295 27.2623 195.548 27.4521 195.72 27.7066C196.591 28.842 196.936 30.0771 197.308 31.4309Z" fill="#2D293D"/>
<g opacity="0.1">
<path opacity="0.1" d="M205.136 30.8214C204.899 31.0791 204.603 31.2754 204.273 31.3931C202.504 32.1293 200.514 32.0457 198.611 31.9324C198.406 31.9345 198.204 31.8892 198.02 31.8003C197.729 31.6304 197.618 31.2744 197.529 30.9508C197.157 29.6024 196.815 28.3646 195.931 27.2401C195.76 26.9807 195.508 26.786 195.213 26.6872C194.936 26.661 194.656 26.6876 194.388 26.7654C194.254 26.8041 194.113 26.8075 193.977 26.7754C193.842 26.7433 193.717 26.6767 193.614 26.582C193.504 26.4189 193.455 26.2224 193.474 26.0265C193.474 25.4602 193.601 24.8264 193.248 24.3869C193.051 24.1415 192.738 24.0093 192.536 23.7666C192.404 23.5877 192.323 23.3763 192.302 23.155C192.28 22.9337 192.319 22.7108 192.415 22.5099C192.078 23.0493 191.935 23.7262 192.326 24.19C192.528 24.43 192.841 24.5622 193.037 24.8076C193.391 25.2498 193.272 25.8863 193.264 26.4472C193.243 26.6428 193.292 26.8394 193.401 27.0027C193.504 27.0983 193.629 27.1657 193.765 27.1983C193.901 27.2309 194.043 27.2276 194.178 27.1888C194.445 27.1083 194.726 27.0818 195.003 27.1106C195.295 27.2057 195.548 27.3955 195.72 27.65C196.602 28.7745 196.947 30.0096 197.319 31.3634C197.363 31.6965 197.529 32.0014 197.786 32.2183C197.97 32.3074 198.174 32.3517 198.379 32.3477C200.291 32.4664 202.283 32.5527 204.041 31.8084C204.371 31.6914 204.668 31.4951 204.904 31.2367C205.023 31.0847 205.114 30.9131 205.174 30.7297C205.176 30.7647 205.157 30.7944 205.136 30.8214Z" fill="black"/>
<path opacity="0.1" d="M192.932 21.6766C193.017 21.5846 193.082 21.4764 193.124 21.3584C193.148 21.2219 193.148 21.0823 193.124 20.9458C193.071 20.1769 193.171 19.4053 193.418 18.6751L193.383 18.6347C193.014 19.4964 192.859 20.4347 192.932 21.3692C192.94 21.4715 192.94 21.5743 192.932 21.6766Z" fill="black"/>
</g>
<path opacity="0.1" d="M196.189 35.2333C196.189 35.2333 204.028 36.2742 204.731 35.0957L196.189 35.2333Z" fill="black"/>
<path opacity="0.1" d="M211.426 31.9891C211.426 31.9891 215.784 31.9891 216.741 33.6287L211.426 31.9891Z" fill="black"/>
<path d="M235.804 177.655C234.511 178.811 232.832 179.438 231.099 179.413C230.656 179.413 230.044 179.497 230.042 179.939C230.052 180.069 230.097 180.194 230.171 180.301C230.718 181.213 231.582 181.891 232.598 182.207C233.541 182.493 234.55 182.444 235.534 182.393L238.406 182.245C238.945 182.215 239.484 182.188 240.023 182.121C240.563 182.053 241.15 181.943 241.714 181.851C243.099 181.654 244.499 181.589 245.896 181.657C246.268 181.671 246.705 181.657 246.926 181.387C247.147 181.118 247.034 180.603 246.95 180.198C246.778 179.365 246.95 178.491 246.791 177.655C246.522 176.188 245.252 175.063 243.86 174.532C242.566 174.041 240.274 173.478 239.05 174.298C237.758 175.158 236.968 176.595 235.804 177.655Z" fill="#3F3D56"/>
<path d="M238.656 128.504C238.91 129.709 240.077 130.631 240.11 131.861C240.139 132.848 239.436 133.676 238.929 134.52C238.451 135.394 238.048 136.307 237.723 137.249C236.769 139.702 235.585 142.059 234.186 144.288C233.512 145.367 232.757 146.518 232.911 147.772C233.018 148.359 233.225 148.922 233.523 149.439L235.545 153.457C235.988 154.259 236.334 155.111 236.578 155.995C236.753 156.758 236.769 157.548 236.871 158.325C237.19 160.789 238.346 163.27 237.661 165.66C237.602 165.865 237.392 166.113 237.227 165.97C237.896 167.218 238.433 168.475 238.381 169.891C238.354 170.633 238.128 171.407 238.4 172.097C238.516 172.386 238.718 172.655 238.716 172.965C238.716 173.17 238.621 173.362 238.6 173.561C238.543 174.13 239.066 174.605 239.608 174.786C240.15 174.966 240.741 174.953 241.288 175.117C242.34 175.433 243.092 176.339 243.984 176.967C244.9 177.598 245.979 177.949 247.09 177.979C247.249 177.996 247.409 177.964 247.549 177.887C247.628 177.818 247.692 177.732 247.735 177.636C247.779 177.541 247.802 177.437 247.802 177.331C247.851 176.828 247.775 176.32 247.582 175.852C247.388 175.385 247.082 174.972 246.691 174.651C246.52 174.544 246.378 174.395 246.279 174.219C246.228 174.064 246.216 173.898 246.241 173.737C246.404 171.526 246.364 169.306 246.122 167.103C246.013 166.404 245.978 165.697 246.017 164.991C246.074 164.403 246.252 163.821 246.187 163.235C246.122 162.65 245.823 162.116 245.648 161.553C245.335 160.549 245.421 159.471 245.378 158.422C245.324 156.599 244.906 154.808 244.491 153.028C244.327 152.33 244.146 151.599 243.653 151.081C243.232 150.641 242.553 150.221 242.712 149.636C242.8 149.42 242.931 149.224 243.097 149.061C243.292 148.816 243.436 148.534 243.518 148.231C243.601 147.929 243.621 147.613 243.577 147.303C243.755 147.348 243.942 147.33 244.108 147.253C244.274 147.175 244.407 147.042 244.486 146.877C247.77 145.326 250.418 142.225 251.599 138.786C251.668 138.531 251.776 138.288 251.917 138.064C252.222 137.638 252.75 137.454 253.219 137.22C254.691 136.478 255.708 135.089 256.641 133.73C257.18 132.943 257.719 132.128 257.962 131.2C258.09 130.6 258.15 129.988 258.143 129.375L258.226 126.206C258.245 125.997 258.224 125.787 258.167 125.586C258.087 125.398 257.971 125.227 257.824 125.084C256.928 124.136 255.75 123.5 254.465 123.272C253.602 123.118 252.72 123.148 251.847 123.075C250.153 122.935 248.482 122.409 246.788 122.536C244.127 122.733 241.757 124.577 240.503 126.934C240.064 127.765 239.6 128.488 238.656 128.504Z" fill="#464353"/>
<path d="M223.881 107.9C223.916 108.39 223.85 108.881 223.686 109.343C223.479 109.785 222.958 110.131 222.503 109.95C222.64 109.64 222.276 109.287 221.937 109.324C221.769 109.363 221.614 109.441 221.484 109.553C221.354 109.665 221.253 109.807 221.19 109.966C220.964 110.419 220.889 110.932 220.974 111.43C221.082 112.051 221.44 112.647 221.346 113.27C221.271 113.787 220.89 114.303 221.093 114.783C221.224 115.002 221.388 115.199 221.581 115.368C221.847 115.696 221.977 116.114 221.945 116.535C221.912 116.957 221.719 117.35 221.405 117.633L226.507 117.736C226.321 118.588 226.704 119.459 227.14 120.217C228.364 122.3 230.053 124.072 232.076 125.392C234.099 126.713 236.4 127.547 238.799 127.83C238.67 127.905 238.558 128.009 238.474 128.133C238.389 128.257 238.333 128.398 238.309 128.547C238.286 128.695 238.295 128.847 238.338 128.991C238.38 129.135 238.454 129.268 238.554 129.38C238.969 129.793 239.673 129.742 240.193 129.475C240.714 129.208 241.121 128.765 241.595 128.423C242.433 127.829 243.455 127.554 244.478 127.646C245.117 127.708 245.737 127.916 246.379 127.948C248.266 128.048 249.884 126.689 251.701 126.133C253.025 125.726 254.527 125.726 255.638 124.898C256.118 124.542 256.511 123.957 256.371 123.38C256.255 123.048 256.072 122.744 255.832 122.487C255.193 121.659 254.815 120.664 254.357 119.723C253.449 117.86 252.199 116.184 250.671 114.783C249.518 113.775 248.297 112.848 247.015 112.01C246.705 111.782 246.375 111.582 246.028 111.414C245.581 111.217 245.084 111.123 244.68 110.875C244.081 110.497 243.736 109.831 243.275 109.295C242.264 108.113 240.711 107.571 239.465 106.644C238.629 106.021 237.891 105.201 236.893 104.902C236.408 104.753 235.893 104.742 235.407 104.597C234.305 104.262 233.501 103.284 232.42 102.887C231.565 102.574 230.621 102.655 229.723 102.545C228.711 102.42 227.745 102.051 226.906 101.471C226.636 101.251 226.333 101.075 226.008 100.948C224.641 100.533 224.53 103.079 224.39 103.96C224.21 105.271 223.881 106.574 223.881 107.9Z" fill="#66D655"/>
<path d="M225.213 116.438C225.442 118.925 223.565 121.333 224.112 123.768C224.228 124.286 224.452 124.779 224.533 125.305C224.762 126.748 223.899 128.115 223.077 129.324L216.013 139.693C215.729 140.148 215.39 140.566 215.004 140.939C213.656 142.139 211.629 142.017 209.854 142.373C208.608 142.629 207.431 143.15 206.403 143.9C206.357 143.935 206.326 143.988 206.318 144.046C206.31 144.104 206.325 144.163 206.36 144.21C206.653 144.609 207.041 144.928 207.489 145.138C207.937 145.349 208.43 145.444 208.924 145.415C209.11 145.658 208.924 146.019 208.668 146.195C208.29 146.464 207.767 146.526 207.692 147.171C207.666 147.395 207.712 147.621 207.821 147.818C208.107 148.253 208.549 148.56 209.056 148.676C211.502 149.425 214.144 148.109 215.975 146.321C217.806 144.533 219.119 142.276 220.915 140.458C221.91 139.45 223.039 138.59 224.064 137.613C226.108 135.664 227.699 133.299 229.23 130.928C229.691 130.213 230.158 129.48 230.349 128.652C230.54 127.824 230.452 126.985 230.67 126.184C230.956 125.135 231.724 124.297 232.363 123.418C233.617 121.692 234.456 119.58 234.288 117.452C234.121 115.325 232.805 113.227 230.799 112.504C230.177 112.257 229.492 112.215 228.845 112.385C228.022 112.639 227.415 113.318 226.855 113.971L225.506 115.519C225.178 115.862 224.921 116.266 224.749 116.708C224.662 116.931 224.641 117.174 224.689 117.409C224.737 117.643 224.851 117.858 225.018 118.029" fill="#FBBEBE"/>
<path d="M228.793 106.239C227.866 106.293 226.844 106.385 226.189 107.048C225.914 107.353 225.692 107.701 225.531 108.078C224.894 109.376 224.274 110.732 224.228 112.177C224.191 113.332 224.525 114.462 224.7 115.602C224.846 116.552 224.476 117.52 224.406 118.48C225.558 118.127 227.078 117.647 228.122 117.051C228.834 116.643 229.521 116.179 230.298 115.921C231.406 115.551 233.264 116.19 234.318 116.703C234.375 115.964 233.819 114.675 233.879 113.933C233.887 113.621 233.942 113.312 234.043 113.016C234.201 112.703 234.388 112.406 234.601 112.129C235.002 111.476 235.187 110.713 235.128 109.95C235.07 109.186 234.771 108.46 234.275 107.876C233.339 106.824 231.875 106.431 230.478 106.258C229.599 106.156 228.713 106.125 227.828 106.166" fill="#66D655"/>
<defs>
<linearGradient id="paint0_linear" x1="190.419" y1="147.292" x2="190.419" y2="15.5118" gradientUnits="userSpaceOnUse">
<stop stop-color="#808080" stop-opacity="0.25"/>
<stop offset="0.54" stop-color="#808080" stop-opacity="0.12"/>
<stop offset="1" stop-color="#808080" stop-opacity="0.1"/>
</linearGradient>
</defs>
</svg>
