<svg width="250" height="155" viewBox="0 0 250 155" fill="none" xmlns="http://www.w3.org/2000/svg">
<g clip-path="url(#clip0)">
<path d="M203.671 37.9764L77.202 0L46.6929 101.601L173.162 139.578L203.671 37.9764Z" fill="#F1F1F1"/>
<path d="M60.5836 154.633C94.043 154.633 121.167 151.755 121.167 148.204C121.167 144.653 94.043 141.775 60.5836 141.775C27.1242 141.775 0 144.653 0 148.204C0 151.755 27.1242 154.633 60.5836 154.633Z" fill="#3F3D56"/>
<path d="M66.2072 16.9549H51.5007V38.3872H66.2072V16.9549Z" fill="#2F2E41"/>
<path d="M54.3429 26.8415C54.3429 26.8415 54.8961 37.4228 50.0035 37.8567C46.5803 38.1603 56.6794 47.5367 56.6794 47.5367L65.3581 35.5201C65.3581 35.5201 58.8526 36.1864 63.0215 28.8442L54.3429 26.8415Z" fill="#FFB8B8"/>
<path opacity="0.1" d="M65.3585 35.5212L62.6162 39.3194L56.679 47.5365C56.679 47.5365 51.7211 42.9321 49.9307 40.0736C49.2581 38.9979 49.0307 38.1695 49.6835 37.9247C49.6864 37.9228 49.6899 37.9219 49.6934 37.9223C49.7871 37.8872 49.8853 37.8655 49.9851 37.858C49.9908 37.8566 49.9966 37.8558 50.0025 37.8555C50.2876 37.8315 50.568 37.7683 50.8358 37.6676C54.8318 36.174 54.3422 26.8416 54.3422 26.8416L63.0217 28.8446C60.2398 33.7432 62.2107 35.0785 63.8304 35.4223C64.1858 35.4964 64.5479 35.5345 64.911 35.536C65.1854 35.5385 65.3585 35.5212 65.3585 35.5212Z" fill="black"/>
<path d="M67.9096 18.151C66.3206 22.8555 63.8842 27.1421 58.9186 27.1421C53.9529 27.1421 50.2073 23.1087 49.9275 18.151C49.57 11.816 53.8384 9.13369 58.9186 9.15993C64.92 9.19093 69.7953 12.5679 67.9096 18.151Z" fill="#2F2E41"/>
<path d="M46.6656 94.6017L49.0021 110.958C49.0021 110.958 46.9994 120.971 48.0008 127.981L49.0021 135.325H53.6753L55.0104 127.647C55.0104 127.647 56.3456 119.636 56.3456 115.964C56.3456 115.964 60.0173 99.2748 57.6808 95.9368L46.6656 94.6017Z" fill="#FFB8B8"/>
<path d="M75.0381 93.6003L72.7016 110.958C72.7016 110.958 74.7043 120.971 73.7029 127.981L72.7016 135.325H68.0284L66.6933 127.647C66.6933 127.647 65.3581 119.636 65.3581 115.964C65.3581 115.964 61.6864 98.2734 64.0229 94.9354L75.0381 93.6003Z" fill="#FFB8B8"/>
<path d="M70.365 134.323C70.365 134.323 73.0354 133.322 73.3691 134.657C73.7029 135.992 74.3705 143.002 74.3705 143.002C74.3705 143.002 76.3733 146.006 77.7085 146.34C79.0436 146.674 82.0478 151.013 78.3761 151.347C74.7043 151.68 71.0326 150.345 71.0326 149.678C71.0326 149.01 69.6974 148.676 69.0298 148.676C68.3622 148.676 66.0257 147.675 66.3595 146.674C66.6933 145.672 67.6946 133.989 67.6946 133.989L70.365 134.323Z" fill="#2F2E41"/>
<path d="M51.3387 134.323C51.3387 134.323 48.6684 133.322 48.3346 134.657C48.0008 135.992 47.3332 143.002 47.3332 143.002C47.3332 143.002 45.3304 146.006 43.9953 146.34C42.6601 146.674 39.6559 151.013 43.3277 151.347C46.9994 151.68 50.6712 150.345 50.6712 149.678C50.6712 149.01 52.0063 148.676 52.6739 148.676C53.3415 148.676 55.6781 147.675 55.3443 146.674C55.0105 145.672 54.0091 133.989 54.0091 133.989L51.3387 134.323Z" fill="#2F2E41"/>
<path d="M59.3498 30.7586C63.1723 30.7586 66.271 27.6598 66.271 23.8373C66.271 20.0148 63.1723 16.9161 59.3498 16.9161C55.5273 16.9161 52.4285 20.0148 52.4285 23.8373C52.4285 27.6598 55.5273 30.7586 59.3498 30.7586Z" fill="#FFB8B8"/>
<path d="M85.3858 61.8886C85.3858 61.8886 71.3675 67.8975 70.0321 61.5548C69.2111 57.591 68.6535 53.5771 68.363 49.5395C68.3617 49.5381 68.3599 49.5373 68.3581 49.537C68.1627 49.4183 61.2562 45.1799 62.6162 39.3194C62.9328 38.0499 63.5274 36.8666 64.3571 35.855C64.3571 35.855 64.5623 35.7215 64.911 35.536C65.3197 35.3177 65.7417 35.1253 66.1746 34.9599C68.5312 34.0622 72.4505 33.5553 73.368 39.5246C74.7033 48.2042 74.7033 57.5514 74.7033 57.5514C74.7033 57.5514 78.7092 59.8881 84.0504 57.5514C89.3917 55.2146 94.7329 56.5499 95.0668 59.5543C95.4006 62.5563 85.3858 61.8886 85.3858 61.8886Z" fill="#FFB8B8"/>
<path d="M50.0024 37.8555L49.9307 40.0736L49.1345 65.0785L49.001 69.2329L37.3195 82.2521C37.3195 82.2521 34.9827 89.2601 29.9752 90.2615C24.9678 91.263 33.3135 80.583 33.3135 80.583L44.6637 63.8916L44.681 63.3303C44.8088 58.6536 44.4191 53.9772 43.5188 49.3862C43.1856 47.6773 43.1214 45.9269 43.3284 44.1982C43.7933 40.4742 46.857 38.8595 48.6671 38.224C48.9998 38.1047 49.3392 38.0048 49.6835 37.9248C49.6864 37.9228 49.6899 37.9219 49.6933 37.9223C49.8442 37.8852 49.9456 37.8654 49.9851 37.858C49.9908 37.8567 49.9966 37.8558 50.0024 37.8555Z" fill="#FFB8B8"/>
<path d="M68.6969 61.8886V63.2239C63.8304 69.171 53.0589 66.3619 49.1345 65.0785C48.2122 64.7769 47.6682 64.5593 47.6682 64.5593C47.8679 64.1411 47.9815 63.6869 48.002 63.2239V60.222C48.002 59.2205 48.3334 59.8881 48.6672 59.5543C49.001 59.2205 47.6682 57.2175 47.6682 57.2175C44.3299 55.2146 46.3329 49.5395 46.3329 49.5395L48.6672 44.5321V38.224C48.9999 38.1046 49.3392 38.0047 49.6835 37.9247C49.6864 37.9228 49.6899 37.9219 49.6934 37.9223C49.7871 37.8872 49.8854 37.8655 49.9852 37.858C49.9909 37.8567 49.9967 37.8558 50.0025 37.8555C50.2876 37.8315 50.568 37.7683 50.8358 37.6676C51.4614 38.9584 52.8215 40.6572 55.6776 40.8599C59.0974 41.1048 62.3393 37.4178 63.8304 35.4223C64.1858 35.4964 64.5479 35.5345 64.911 35.536C65.3197 35.3177 65.7418 35.1253 66.1746 34.9599L64.6909 41.1938C63.3779 44.4752 68.1924 49.3664 68.3581 49.537C68.3599 49.5373 68.3617 49.5381 68.363 49.5395V53.2116L68.0292 57.2175L67.6954 58.219L68.363 59.2205L68.0292 60.222L68.363 60.8896C68.6969 61.5548 68.6969 61.2234 68.6969 61.8886Z" fill="#D0CDE1"/>
<path d="M48.3346 64.2264L47.3332 63.8926C47.3332 63.8926 35.3166 93.9341 43.3277 95.2692C51.3387 96.6044 57.347 98.941 58.6822 96.6044C60.0174 94.2679 59.3498 85.923 59.3498 85.923L60.6849 85.5892C60.6849 85.5892 58.3484 97.9396 63.0215 96.9382C67.6946 95.9368 80.7126 94.2678 80.7126 92.9327C80.7126 91.5975 68.696 62.7611 68.696 62.7611C68.696 62.7611 63.6891 65.8953 48.3346 64.2264Z" fill="#2F2E41"/>
<path d="M58.9185 11.0528C60.8787 11.0528 62.4677 9.46379 62.4677 7.50368C62.4677 5.54356 60.8787 3.95457 58.9185 3.95457C56.9584 3.95457 55.3694 5.54356 55.3694 7.50368C55.3694 9.46379 56.9584 11.0528 58.9185 11.0528Z" fill="#2F2E41"/>
<path d="M54.6596 5.61083C54.6597 4.73102 54.9865 3.8826 55.5767 3.23013C56.1669 2.57766 56.9784 2.16766 57.8538 2.07964C57.7371 2.06805 57.6187 2.06172 57.4989 2.06172C56.5576 2.06172 55.6549 2.43565 54.9893 3.10123C54.3237 3.76682 53.9498 4.66954 53.9498 5.61082C53.9498 6.5521 54.3237 7.45483 54.9893 8.12042C55.6549 8.78601 56.5576 9.15993 57.4989 9.15993C57.6187 9.15993 57.7371 9.1536 57.8538 9.14201C56.9784 9.05399 56.167 8.64398 55.5768 7.99152C54.9866 7.33905 54.6597 6.49063 54.6596 5.61083Z" fill="#2F2E41"/>
<path d="M56.0606 14.9251C56.0606 14.9251 55.9865 14.5126 53.0882 15.5995C50.1898 16.6864 48.4524 24.7071 49.9016 29.417C50.4856 31.315 50.0105 32.6835 49.2351 33.6411C46.3253 37.2342 47.4708 42.6311 51.7091 44.4788C51.8288 44.5309 51.9509 44.5825 52.0754 44.6335L53.8869 45.7203C53.8869 45.7203 51.5776 42.6819 52.7332 38.7951C53.7368 35.4834 53.8608 31.9674 53.0929 28.5933C52.9603 28.0241 52.8097 27.4374 52.6386 26.8386C51.1894 21.7664 51.8942 22.3522 56.9664 17.28C56.9664 17.28 59.8648 19.4538 62.4008 20.5407C64.9369 21.6276 67.1107 22.7145 65.2992 26.3375C63.4877 29.9604 59.1402 33.2211 62.0385 37.9309C64.9369 42.6408 65.2992 40.8293 64.9369 42.6408L64.5746 44.4523L66.7484 42.2785L65.2992 45.1769C65.2992 45.1769 70.0091 45.1769 71.4583 41.5539L72.1828 42.2785C72.1828 42.2785 75.0812 37.2064 69.6468 32.4965C69.6468 32.4965 67.8353 31.4096 70.3714 27.7866C72.9074 24.1637 70.9597 16.3743 67.699 14.9251C64.4384 13.4759 56.0606 14.9251 56.0606 14.9251Z" fill="#2F2E41"/>
<path d="M93.7033 71.2942L103.45 68.2409C102.91 64.1874 101.679 60.2567 99.8093 56.62L90.0628 59.6733C92.3499 63.1252 93.6122 67.1544 93.7033 71.2942Z" fill="black"/>
<path d="M250 0.825333H113.007V56.7106H250V0.825333Z" fill="#3F3D56"/>
<path d="M132.696 21.6301H122.482C121.785 17.6008 121.785 13.4817 122.482 9.45238H132.696C131.545 13.4301 131.545 17.6524 132.696 21.6301Z" fill="#FF6584"/>
<path d="M141.538 26.8175H151.751C152.448 22.7882 152.448 18.6691 151.751 14.6398H141.538C142.688 18.6175 142.688 22.8398 141.538 26.8175Z" fill="black"/>
<path d="M164.247 8.95215C165.924 17.4045 166.402 26.0511 165.665 34.6368C165.472 36.8722 165.195 39.0983 164.836 41.3149C164.672 42.3227 164.485 43.3257 164.293 44.3284C164.183 44.9029 163.953 45.6182 164.314 46.159C165.017 47.2124 167.429 46.9375 168.492 46.9719C170.702 47.0434 172.916 47.0555 175.127 47.0941L181.78 47.2102L184.984 47.2661C186.075 47.2851 187.271 47.4543 188.353 47.3147C189.778 47.131 189.431 45.6385 189.41 44.5297C189.367 42.3376 189.309 40.146 189.234 37.9547C188.94 29.2709 188.399 20.6003 187.611 11.9427C187.51 10.8382 187.573 9.51675 187.275 8.4488C187.155 8.01705 187.035 7.89221 186.567 7.81467C185.492 7.63701 184.212 7.82408 183.126 7.83164L179.492 7.85693L164.715 7.95976C164.619 7.96309 164.528 8.00363 164.461 8.07283C164.394 8.14203 164.357 8.23447 164.357 8.33068C164.357 8.42689 164.394 8.51934 164.461 8.58854C164.528 8.65773 164.619 8.69827 164.715 8.7016L176.827 8.61731L182.157 8.58022L185.064 8.55999C185.661 8.55583 186.22 8.37492 186.594 9.0323C186.831 9.44825 186.734 10.4884 186.779 10.9724C187.503 18.7342 188.028 26.5111 188.354 34.3032C188.436 36.2503 188.505 38.198 188.562 40.1461C188.585 40.9577 188.607 41.7695 188.626 42.5813C188.637 43.0684 188.648 43.5555 188.658 44.0426C188.668 44.545 188.876 45.5296 188.694 45.9911C188.305 46.9753 186.571 46.5519 185.723 46.5371L182.766 46.4855L176.852 46.3823L170.939 46.2791C169.961 46.262 168.982 46.2546 168.005 46.2129C167.68 46.1991 167.356 46.1835 167.032 46.1605C166.068 46.0918 165.03 46.3197 164.916 44.9875C164.845 44.1653 165.295 43.0316 165.435 42.2092C165.594 41.2805 165.738 40.3494 165.867 39.4161C166.11 37.6723 166.303 35.9227 166.447 34.1673C167.126 25.6686 166.626 17.1168 164.962 8.75493C164.87 8.28701 164.154 8.48509 164.247 8.95214V8.95215Z" fill="#F1F1F1"/>
<path d="M212.961 8.95215C214.638 17.4045 215.116 26.0511 214.379 34.6368C214.186 36.8722 213.909 39.0983 213.55 41.3149C213.386 42.3227 213.199 43.3257 213.007 44.3284C212.897 44.9029 212.667 45.6182 213.028 46.159C213.732 47.2124 216.143 46.9375 217.206 46.9719C219.416 47.0434 221.63 47.0555 223.842 47.0941L230.495 47.2102L233.698 47.2661C234.789 47.2851 235.985 47.4543 237.067 47.3147C238.493 47.131 238.145 45.6385 238.124 44.5297C238.081 42.3376 238.023 40.146 237.949 37.9547C237.655 29.2709 237.113 20.6003 236.325 11.9427C236.224 10.8382 236.287 9.51675 235.989 8.4488C235.869 8.01705 235.75 7.89221 235.281 7.81467C234.207 7.63701 232.927 7.82408 231.84 7.83164L228.206 7.85693L213.429 7.95976C213.333 7.96309 213.242 8.00363 213.175 8.07283C213.108 8.14203 213.071 8.23447 213.071 8.33068C213.071 8.42689 213.108 8.51934 213.175 8.58854C213.242 8.65773 213.333 8.69827 213.429 8.7016L225.541 8.61731L230.871 8.58022L233.778 8.55999C234.375 8.55583 234.934 8.37492 235.308 9.0323C235.546 9.44825 235.448 10.4884 235.494 10.9724C236.217 18.7342 236.742 26.5111 237.068 34.3032C237.15 36.2503 237.219 38.198 237.276 40.1461C237.299 40.9577 237.321 41.7695 237.34 42.5813C237.351 43.0684 237.362 43.5555 237.372 44.0426C237.383 44.545 237.591 45.5296 237.408 45.9911C237.019 46.9753 235.285 46.5519 234.437 46.5371L231.48 46.4855L225.566 46.3823L219.653 46.2791C218.675 46.262 217.696 46.2546 216.719 46.2129C216.395 46.1991 216.07 46.1835 215.746 46.1605C214.782 46.0918 213.745 46.3197 213.63 44.9875C213.559 44.1653 214.009 43.0316 214.149 42.2092C214.308 41.2805 214.452 40.3494 214.581 39.4161C214.824 37.6723 215.017 35.9227 215.161 34.1673C215.84 25.6686 215.34 17.1168 213.676 8.75493C213.584 8.28701 212.869 8.48509 212.961 8.95214V8.95215Z" fill="#F1F1F1"/>
<path d="M167.658 10.8616H172.564C172.661 10.8583 172.752 10.8177 172.818 10.7485C172.885 10.6793 172.923 10.5869 172.923 10.4907C172.923 10.3945 172.885 10.302 172.818 10.2328C172.752 10.1636 172.661 10.1231 172.564 10.1198H167.658C167.562 10.1231 167.47 10.1636 167.404 10.2328C167.337 10.302 167.299 10.3945 167.299 10.4907C167.299 10.5869 167.337 10.6793 167.404 10.7485C167.47 10.8177 167.562 10.8583 167.658 10.8616Z" fill="#F1F1F1"/>
<path d="M167.657 12.5351L172.282 12.3602C172.758 12.3422 172.761 11.6003 172.282 11.6184L167.657 11.7932C167.182 11.8112 167.179 12.5531 167.657 12.5351Z" fill="#F1F1F1"/>
<path d="M167.658 13.9458H172.144C172.24 13.9424 172.331 13.9019 172.398 13.8327C172.465 13.7635 172.502 13.6711 172.502 13.5749C172.502 13.4786 172.465 13.3862 172.398 13.317C172.331 13.2478 172.24 13.2073 172.144 13.2039H167.658C167.562 13.2073 167.47 13.2478 167.404 13.317C167.337 13.3862 167.299 13.4786 167.299 13.5749C167.299 13.6711 167.337 13.7635 167.404 13.8327C167.47 13.9019 167.562 13.9424 167.658 13.9458Z" fill="#F1F1F1"/>
<path d="M182.524 10.5133C181.517 9.98793 180.603 10.8519 180.461 11.8389C180.392 12.3216 180.377 12.9813 180.684 13.3913C180.999 13.81 181.603 13.9855 182.104 14.0165C183.062 14.0756 184.081 13.5414 184.316 12.5608C184.427 12.1254 184.373 11.6644 184.164 11.2666C183.955 10.8688 183.606 10.5625 183.185 10.4067C182.733 10.2501 182.539 10.9665 182.988 11.1221C183.196 11.2086 183.37 11.3604 183.485 11.5547C183.599 11.7489 183.648 11.975 183.623 12.1991C183.593 12.4567 183.48 12.6977 183.301 12.8854C183.122 13.0731 182.887 13.1973 182.631 13.239C182.019 13.3798 181.301 13.2287 181.183 12.538C181.094 12.0213 181.375 10.7497 182.15 11.1539C182.572 11.3745 182.948 10.7345 182.524 10.5133V10.5133Z" fill="#F1F1F1"/>
<path d="M216.372 10.8616H221.279C221.375 10.8583 221.466 10.8177 221.533 10.7485C221.599 10.6793 221.637 10.5869 221.637 10.4907C221.637 10.3945 221.599 10.302 221.533 10.2328C221.466 10.1636 221.375 10.1231 221.279 10.1198H216.372C216.276 10.1231 216.185 10.1636 216.118 10.2328C216.051 10.302 216.014 10.3945 216.014 10.4907C216.014 10.5869 216.051 10.6793 216.118 10.7485C216.185 10.8177 216.276 10.8583 216.372 10.8616Z" fill="#F1F1F1"/>
<path d="M216.372 12.5351L220.997 12.3602C221.472 12.3422 221.475 11.6003 220.997 11.6184L216.372 11.7932C215.896 11.8112 215.893 12.5531 216.372 12.5351Z" fill="#F1F1F1"/>
<path d="M216.372 13.9458H220.858C220.954 13.9424 221.045 13.9019 221.112 13.8327C221.179 13.7635 221.216 13.6711 221.216 13.5749C221.216 13.4786 221.179 13.3862 221.112 13.317C221.045 13.2478 220.954 13.2073 220.858 13.2039H216.372C216.276 13.2073 216.185 13.2478 216.118 13.317C216.051 13.3862 216.014 13.4786 216.014 13.5749C216.014 13.6711 216.051 13.7635 216.118 13.8327C216.185 13.9019 216.276 13.9424 216.372 13.9458Z" fill="#F1F1F1"/>
<path d="M231.238 10.5133C230.231 9.98793 229.317 10.8519 229.175 11.8389C229.106 12.3216 229.091 12.9813 229.399 13.3913C229.713 13.81 230.317 13.9855 230.818 14.0165C231.776 14.0756 232.795 13.5414 233.03 12.5608C233.141 12.1254 233.087 11.6644 232.878 11.2666C232.669 10.8688 232.321 10.5625 231.899 10.4067C231.447 10.2501 231.253 10.9665 231.702 11.1221C231.91 11.2086 232.085 11.3604 232.199 11.5547C232.314 11.7489 232.362 11.975 232.337 12.1991C232.307 12.4567 232.194 12.6977 232.016 12.8854C231.837 13.0731 231.601 13.1973 231.345 13.239C230.733 13.3798 230.015 13.2287 229.897 12.538C229.808 12.0213 230.089 10.7497 230.864 11.1539C231.286 11.3745 231.662 10.7345 231.238 10.5133V10.5133Z" fill="#F1F1F1"/>
<path d="M168.639 18.0139C174.036 18.0707 179.428 17.9041 184.814 17.514L184.456 17.0445C183.574 19.2784 183.599 21.633 183.715 23.9961C183.745 24.5882 183.93 25.3867 183.81 25.9731C183.659 26.7106 182.997 26.5343 182.339 26.5556C180.888 26.6025 179.438 26.6362 177.987 26.6567C176.617 26.676 175.246 26.6837 173.876 26.6796C173.231 26.6775 172.586 26.673 171.941 26.6658C171.184 26.6574 170.323 26.8773 170.128 26.0001C170.003 25.4383 170.129 24.6993 170.129 24.1215L170.131 22.0081L170.133 17.7811C170.13 17.685 170.09 17.5939 170.02 17.527C169.951 17.4602 169.859 17.4228 169.762 17.4228C169.666 17.4228 169.574 17.4602 169.505 17.527C169.435 17.5939 169.395 17.685 169.392 17.7811L169.388 22.9474L169.387 25.2957C169.386 25.7621 169.289 26.3256 169.463 26.7685C169.864 27.7871 171.595 27.4049 172.425 27.4126C174.118 27.4281 175.811 27.4256 177.503 27.4048C179.196 27.3844 180.888 27.3459 182.58 27.2896C183.309 27.2653 184.318 27.4311 184.539 26.5322C184.694 25.9019 184.513 25.0801 184.48 24.437C184.443 23.703 184.402 22.9689 184.392 22.2339C184.369 20.5176 184.537 18.8479 185.171 17.2417C185.186 17.1867 185.188 17.1289 185.177 17.073C185.166 17.017 185.142 16.9644 185.108 16.919C185.073 16.8736 185.029 16.8368 184.978 16.8114C184.927 16.7859 184.871 16.7725 184.814 16.7722C179.43 17.1621 174.039 17.3288 168.639 17.2721C168.543 17.2754 168.452 17.316 168.385 17.3852C168.318 17.4544 168.281 17.5468 168.281 17.643C168.281 17.7392 168.318 17.8317 168.385 17.9009C168.452 17.9701 168.543 18.0106 168.639 18.0139L168.639 18.0139Z" fill="#F1F1F1"/>
<path d="M170.177 18.417C172.487 19.2346 174.74 20.2073 176.919 21.3284C178.874 22.3387 181.433 23.4424 182.779 25.2483C183.061 25.6268 183.705 25.2573 183.419 24.8739C182.045 23.0298 179.68 21.9448 177.693 20.8967C175.333 19.658 172.887 18.5903 170.374 17.7017C169.924 17.5413 169.73 18.2578 170.177 18.417Z" fill="#F1F1F1"/>
<path d="M184.687 17.0959C182.236 18.1442 180.159 20.1639 177.968 21.6604C175.597 23.2803 173.155 24.7879 170.643 26.183C170.226 26.4158 170.599 27.0568 171.017 26.8236C173.524 25.4236 175.966 23.9161 178.343 22.301C180.533 20.8048 182.611 18.7845 185.062 17.7365C185.499 17.5493 185.122 16.9101 184.687 17.0959V17.0959Z" fill="#F1F1F1"/>
<path d="M217.353 18.0139C222.75 18.0707 228.142 17.9041 233.528 17.514L233.17 17.0445C232.288 19.2784 232.313 21.633 232.429 23.9961C232.459 24.5882 232.645 25.3867 232.524 25.9731C232.373 26.7106 231.711 26.5343 231.053 26.5556C229.603 26.6025 228.152 26.6362 226.701 26.6567C225.331 26.676 223.961 26.6837 222.59 26.6796C221.945 26.6775 221.3 26.673 220.656 26.6658C219.898 26.6574 219.038 26.8773 218.842 26.0001C218.717 25.4383 218.843 24.6993 218.843 24.1215L218.845 22.0081L218.848 17.7811C218.844 17.685 218.804 17.5939 218.734 17.527C218.665 17.4602 218.573 17.4228 218.477 17.4228C218.38 17.4228 218.288 17.4602 218.219 17.527C218.15 17.5939 218.109 17.685 218.106 17.7811L218.102 22.9474L218.101 25.2957C218.1 25.7621 218.003 26.3256 218.178 26.7685C218.578 27.7871 220.309 27.4049 221.139 27.4126C222.832 27.4281 224.525 27.4256 226.218 27.4048C227.91 27.3844 229.603 27.3459 231.295 27.2896C232.023 27.2653 233.032 27.4311 233.253 26.5322C233.408 25.9019 233.227 25.0801 233.194 24.437C233.157 23.703 233.116 22.9689 233.106 22.2339C233.083 20.5176 233.251 18.8479 233.885 17.2417C233.9 17.1867 233.902 17.1289 233.891 17.073C233.88 17.017 233.856 16.9644 233.822 16.919C233.787 16.8736 233.743 16.8368 233.692 16.8114C233.641 16.7859 233.585 16.7725 233.528 16.7722C228.144 17.1621 222.753 17.3288 217.353 17.2721C217.257 17.2754 217.166 17.316 217.099 17.3852C217.032 17.4544 216.995 17.5468 216.995 17.643C216.995 17.7392 217.032 17.8317 217.099 17.9009C217.166 17.9701 217.257 18.0106 217.353 18.0139L217.353 18.0139Z" fill="#F1F1F1"/>
<path d="M218.891 18.417C221.201 19.2346 223.454 20.2073 225.633 21.3284C227.588 22.3387 230.147 23.4424 231.493 25.2483C231.775 25.6268 232.419 25.2573 232.134 24.8739C230.76 23.0298 228.394 21.9448 226.407 20.8967C224.047 19.658 221.601 18.5903 219.089 17.7017C218.638 17.5413 218.444 18.2578 218.891 18.417Z" fill="#F1F1F1"/>
<path d="M233.402 17.0959C230.95 18.1442 228.873 20.1639 226.682 21.6604C224.311 23.2803 221.869 24.7879 219.357 26.183C218.94 26.4158 219.314 27.0568 219.731 26.8236C222.238 25.4236 224.68 23.9161 227.057 22.301C229.247 20.8048 231.325 18.7845 233.776 17.7365C234.214 17.5493 233.836 16.9101 233.402 17.0959V17.0959Z" fill="#F1F1F1"/>
<path d="M217.353 32.8507C222.75 32.9075 228.142 32.7408 233.528 32.3508L233.17 31.8813C232.288 34.1152 232.313 36.4697 232.429 38.8329C232.459 39.425 232.645 40.2234 232.524 40.8099C232.373 41.5474 231.711 41.3711 231.053 41.3924C229.603 41.4393 228.152 41.4729 226.701 41.4935C225.331 41.5128 223.961 41.5204 222.59 41.5163C221.945 41.5143 221.3 41.5097 220.656 41.5026C219.898 41.4942 219.038 41.7141 218.842 40.8369C218.717 40.2751 218.843 39.5361 218.843 38.9583L218.845 36.8448L218.848 32.6179C218.844 32.5218 218.804 32.4307 218.734 32.3638C218.665 32.297 218.573 32.2596 218.477 32.2596C218.38 32.2596 218.288 32.297 218.219 32.3638C218.15 32.4307 218.109 32.5218 218.106 32.6179L218.102 37.7842L218.101 40.1324C218.1 40.5989 218.003 41.1624 218.178 41.6052C218.578 42.6239 220.309 42.2417 221.139 42.2493C222.832 42.2649 224.525 42.2623 226.218 42.2416C227.91 42.2211 229.603 42.1827 231.295 42.1264C232.023 42.1021 233.032 42.2679 233.253 41.3689C233.408 40.7387 233.227 39.9169 233.194 39.2738C233.157 38.5398 233.116 37.8057 233.106 37.0707C233.083 35.3544 233.251 33.6847 233.885 32.0785C233.9 32.0235 233.902 31.9657 233.891 31.9098C233.88 31.8538 233.856 31.8012 233.822 31.7558C233.787 31.7105 233.743 31.6736 233.692 31.6482C233.641 31.6227 233.585 31.6093 233.528 31.609C228.144 31.9989 222.753 32.1656 217.353 32.1089C217.257 32.1122 217.166 32.1528 217.099 32.222C217.032 32.2912 216.995 32.3836 216.995 32.4798C216.995 32.576 217.032 32.6685 217.099 32.7377C217.166 32.8069 217.257 32.8474 217.353 32.8507H217.353Z" fill="#F1F1F1"/>
<path d="M218.891 33.2538C221.201 34.0714 223.454 35.0441 225.633 36.1652C227.588 37.1755 230.147 38.2792 231.493 40.0851C231.775 40.4636 232.419 40.0941 232.134 39.7107C230.76 37.8666 228.394 36.7816 226.407 35.7335C224.047 34.4948 221.601 33.4271 219.089 32.5385C218.638 32.378 218.444 33.0946 218.891 33.2538Z" fill="#F1F1F1"/>
<path d="M233.402 31.9327C230.95 32.981 228.873 35.0007 226.682 36.4972C224.311 38.1171 221.869 39.6247 219.357 41.0198C218.94 41.2526 219.314 41.8936 219.731 41.6604C222.238 40.2604 224.68 38.7529 227.057 37.1378C229.247 35.6415 231.325 33.6213 233.776 32.5733C234.214 32.3861 233.836 31.7469 233.402 31.9327Z" fill="#F1F1F1"/>
<path d="M170.041 32.2915C175.042 32.3676 180.042 32.3477 185.043 32.2317C185.519 32.2207 185.521 31.4788 185.043 31.4899C180.043 31.6058 175.042 31.6258 170.041 31.5497C169.945 31.553 169.854 31.5936 169.787 31.6628C169.72 31.732 169.683 31.8244 169.683 31.9206C169.683 32.0168 169.72 32.1093 169.787 32.1785C169.854 32.2477 169.945 32.2882 170.041 32.2915Z" fill="#F1F1F1"/>
<path d="M170.462 35.6549C175.603 35.7369 180.743 35.7148 185.884 35.5887C186.36 35.577 186.362 34.8351 185.884 34.8468C180.744 34.973 175.603 34.9951 170.462 34.9131C169.984 34.9054 169.984 35.6473 170.462 35.6549Z" fill="#F1F1F1"/>
<path d="M169.899 39.2864L184.48 38.6093C184.955 38.5873 184.958 37.8453 184.48 37.8675L169.899 38.5446C169.424 38.5667 169.421 39.3086 169.899 39.2864Z" fill="#F1F1F1"/>
<path d="M192.612 28.8059H206.49C206.587 28.8026 206.678 28.7621 206.744 28.6929C206.811 28.6237 206.849 28.5312 206.849 28.435C206.849 28.3388 206.811 28.2464 206.744 28.1772C206.678 28.108 206.587 28.0674 206.49 28.0641H192.612C192.515 28.0674 192.424 28.108 192.357 28.1772C192.291 28.2464 192.253 28.3388 192.253 28.435C192.253 28.5312 192.291 28.6237 192.357 28.6929C192.424 28.7621 192.515 28.8026 192.612 28.8059Z" fill="#F1F1F1"/>
<path d="M205.882 24.5647L208.051 26.5439C208.299 26.7703 208.981 27.2376 209.135 27.5336C209.454 28.1455 209.111 28.0059 208.565 28.2179C207.224 28.7517 205.988 29.5192 204.915 30.4848C204.556 30.8011 205.082 31.3241 205.439 31.0094C206.418 30.1296 207.543 29.4271 208.763 28.9332C209.2 28.7602 210.03 28.6589 210.238 28.1378C210.492 27.5001 209.682 27.0295 209.298 26.6791L206.407 24.0401C206.055 23.7188 205.529 24.242 205.882 24.5647V24.5647Z" fill="#F1F1F1"/>
<path d="M172.201 53.5237H182.414C183.111 49.4944 183.111 45.3753 182.414 41.346H172.201C173.351 45.3237 173.351 49.546 172.201 53.5237Z" fill="black"/>
<path d="M129.668 44.3743H139.882C140.579 40.345 140.579 36.2259 139.882 32.1966H129.668C130.819 36.1743 130.819 40.3966 129.668 44.3743Z" fill="black"/>
<path d="M194.208 17.6681H204.422C205.119 13.6388 205.119 9.51971 204.422 5.49039H194.208C195.359 9.46808 195.359 13.6904 194.208 17.6681Z" fill="black"/>
</g>
<defs>
<clipPath id="clip0">
<rect width="250" height="154.633" fill="white"/>
</clipPath>
</defs>
</svg>
