<svg width="250" height="173" viewBox="0 0 250 173" fill="none" xmlns="http://www.w3.org/2000/svg">
<g clip-path="url(#clip0)">
<path opacity="0.1" d="M141.407 23.4979C125.383 23.5193 109.958 18.9767 95.2048 13.9302C80.4514 8.88379 65.8116 3.23281 50.0849 0.838218C39.9706 -0.701009 28.4693 -0.55952 20.563 5.02929C12.9527 10.4059 10.7489 19.3047 9.68556 27.526C8.88594 33.7108 8.51721 40.2021 11.5121 45.8595C13.5915 49.7869 17.1502 53.024 19.6584 56.767C28.4135 69.7883 23.1484 86.4218 14.6398 99.7453C10.6503 105.997 5.97684 111.988 2.96056 118.598C-0.055727 125.207 -1.29268 132.702 1.78363 139.225C4.83207 145.691 11.7179 150.383 19.1074 153.588C34.1138 160.11 51.5855 161.507 68.5878 162.045C106.224 163.24 143.933 160.804 181.541 158.369C195.458 157.468 209.438 156.562 223.068 153.953C230.635 152.506 238.428 150.358 243.794 145.65C250.605 139.673 251.998 129.915 247.042 122.9C238.73 111.135 216.814 108.916 210.855 96.1867C207.568 89.1787 210.402 81.1417 214.576 74.3867C223.529 59.8927 238.938 46.91 239.198 30.6988C239.375 19.5662 231.362 8.70585 219.393 3.86737C206.848 -1.20051 189.743 0.102905 180.953 9.54836C171.915 19.2789 155.556 23.4829 141.407 23.4979Z" fill="#66D655"/>
<path d="M212.776 138.35C212.776 138.35 210.141 136.612 207.53 137.849C207.53 137.849 208.334 139.396 211.639 139.251L212.776 138.35Z" fill="#66D655"/>
<path d="M213.11 138.442C213.11 138.442 213.912 141.495 211.901 143.573C211.901 143.573 210.692 142.314 211.901 139.231L213.11 138.442Z" fill="#66D655"/>
<path d="M216.386 135.512C216.386 135.512 216.191 132.916 210.327 133.778C210.327 133.778 210.3 135.452 212.358 136.245C214.416 137.038 215.359 136.369 216.386 135.512Z" fill="#66D655"/>
<path d="M216.754 135.495C216.754 135.495 219.233 136.29 217.022 141.789C217.022 141.789 215.387 141.424 215.093 139.236C214.799 137.047 215.67 136.292 216.754 135.495Z" fill="#66D655"/>
<path d="M220.064 131.812C220.064 131.812 220.401 127.539 214.409 127.977C214.409 127.977 213.98 131.835 219.007 132.839L220.064 131.812Z" fill="#66D655"/>
<path d="M224.024 126.988C224.024 126.988 223.203 122.146 217.213 123.588C217.213 123.588 217.192 127.775 223.046 128.142L224.024 126.988Z" fill="#66D655"/>
<path d="M226.918 122.002C226.918 122.002 225.542 117.286 219.608 118.696C219.608 118.696 221.021 122.939 226.524 122.872L226.918 122.002Z" fill="#66D655"/>
<path d="M229.666 117.131C229.666 117.131 228.322 112.237 222.592 113.701C222.592 113.701 224.504 118.351 229.287 117.959L229.666 117.131Z" fill="#66D655"/>
<path d="M231.437 112.505C231.437 112.505 230.404 106.52 225.062 107.844C225.062 107.844 226.614 113.29 231.045 113.378L231.437 112.505Z" fill="#66D655"/>
<path d="M233.099 106.916C233.099 106.916 231.857 100.884 226.453 102.629C226.453 102.629 228.571 108.331 232.715 107.742L233.099 106.916Z" fill="#66D655"/>
<path d="M234.119 101.715C234.119 101.715 232.149 95.6807 227.971 95.8437C227.971 95.8437 229.984 102.217 233.769 102.918L234.119 101.715Z" fill="#66D655"/>
<path d="M234.779 96.639C234.779 96.639 232.635 89.3759 229.235 89.9354C229.235 89.9354 230.719 95.4878 234.659 97.7709L234.779 96.639Z" fill="#66D655"/>
<path d="M235.152 90.5828C235.152 90.5828 233.141 84.531 229.793 84.2887C229.793 84.2887 231.161 90.2441 235.086 92.1564L235.152 90.5828Z" fill="#66D655"/>
<path d="M235.557 84.9319C235.557 84.9319 233.051 78.8736 230.841 78.7364C230.841 78.7364 231.93 84.7025 235.343 85.9266L235.557 84.9319Z" fill="#66D655"/>
<path d="M235.834 79.6753C235.834 79.6753 234.293 73.0961 232.078 72.5495C232.078 72.5495 232.38 77.9325 235.611 80.1684L235.834 79.6753Z" fill="#66D655"/>
<path d="M236.67 72.7896C236.67 72.7896 235.049 67.5438 233.255 66.7441C233.255 66.7441 233.609 72.9289 236.256 74.0715L236.67 72.7896Z" fill="#66D655"/>
<path d="M237.362 68.2876L237.688 59.0394C237.688 59.0394 234.333 66.011 237.12 69.9105L237.362 68.2876Z" fill="#66D655"/>
<path d="M239.952 59.0887C239.952 59.0887 242.368 52.3358 242.953 51.9585C242.953 51.9585 238.216 56.3404 238.679 61.9764L239.952 59.0887Z" fill="#66D655"/>
<path d="M220.227 131.78C220.227 131.78 224.476 131.224 224.35 137.229C224.35 137.229 220.51 137.855 219.256 132.888L220.227 131.78Z" fill="#66D655"/>
<path d="M224.225 126.825C224.225 126.825 229.135 126.81 228.727 132.957C228.727 132.957 224.605 133.694 223.246 127.987L224.225 126.825Z" fill="#66D655"/>
<path d="M226.965 122.399C226.965 122.399 231.422 120.308 234.273 125.704C234.273 125.704 230.157 127.445 226.571 123.271L226.965 122.399Z" fill="#66D655"/>
<path d="M229.765 117.176C229.765 117.176 234.329 114.953 237.009 120.223C237.009 120.223 232.254 121.86 229.388 118.01L229.765 117.176Z" fill="#66D655"/>
<path d="M231.379 112.636C231.379 112.636 235.772 108.44 239.277 112.683C239.277 112.683 234.79 116.137 231.178 113.57L231.379 112.636Z" fill="#66D655"/>
<path d="M232.85 106.773C232.85 106.773 237.268 102.485 240.745 106.97C240.745 106.97 235.787 110.492 232.691 107.673L232.85 106.773Z" fill="#66D655"/>
<path d="M233.675 101.544C233.675 101.544 237.079 96.1846 241.088 97.3808C241.088 97.3808 237.555 103.055 233.714 102.802L233.675 101.544Z" fill="#66D655"/>
<path d="M234.678 96.6047C234.678 96.6047 238.109 89.8561 241.354 91.0309C241.354 91.0309 238.88 96.2188 234.591 97.743L234.678 96.6047Z" fill="#66D655"/>
<path d="M234.916 90.2312C234.916 90.2312 238.443 84.919 241.746 85.5686C241.746 85.5686 238.863 90.9558 234.573 91.7683L234.916 90.2312Z" fill="#66D655"/>
<path d="M235.191 84.814C235.191 84.814 237.924 78.8521 240.145 78.8114C240.145 78.8114 238.833 84.7303 235.375 85.8258L235.191 84.814Z" fill="#66D655"/>
<path d="M235.727 79.5467C235.727 79.5467 238.764 73.5099 241.048 73.497C241.048 73.497 239.493 78.6592 235.827 80.0762L235.727 79.5467Z" fill="#66D655"/>
<path d="M236.183 73.1669C236.183 73.1669 238.456 68.1719 240.338 67.6059C240.338 67.6059 239.202 73.6942 236.434 74.4917L236.183 73.1669Z" fill="#66D655"/>
<path d="M237.633 68.1054L242.711 60.3686C242.711 60.3686 241.41 68.0004 236.891 69.5868L237.633 68.1054Z" fill="#66D655"/>
<path d="M241.118 59.7126C241.118 59.7126 247.02 55.6394 247.235 54.9813C247.235 54.9813 244.233 60.6858 238.659 61.6934L241.118 59.7126Z" fill="#66D655"/>
<path d="M241.472 57.8796C241.472 57.8796 248.249 51.3647 249.979 51.3711C249.979 51.3711 244.39 51.6262 241.309 57.5323L241.472 57.8796Z" fill="#66D655"/>
<path d="M236.25 74.1337L236.496 74.1658C237.77 64.1995 239.626 58.3019 241.723 57.5795L241.641 57.3437C239.418 58.1154 237.549 63.9229 236.25 74.1337Z" fill="#444053"/>
<path d="M234.376 97.9681L234.749 97.9981C234.828 97.0678 234.889 96.1159 234.929 95.1662C235.285 86.917 235.836 79.3409 236.561 73.6621L236.346 73.3941C235.62 79.0858 234.912 86.8891 234.556 95.1512C234.516 96.0945 234.455 97.042 234.376 97.9681Z" fill="#444053"/>
<path d="M205.821 143.105C205.886 143.077 212.452 140.145 219.267 133.152C223.26 129.056 226.577 124.353 229.096 119.217C232.248 112.801 234.168 104.916 234.811 97.2564L234.423 97.4387C232.976 114.632 225.149 126.38 218.926 132.779C212.177 139.709 205.684 142.612 205.62 142.64L205.821 143.105Z" fill="#444053"/>
<path d="M222.823 18.2713H16.8329C16.3462 18.2713 15.8794 18.4647 15.5353 18.8088C15.1911 19.153 14.9978 19.6197 14.9978 20.1064V25.453H224.659V20.1064C224.659 19.6197 224.465 19.153 224.121 18.8088C223.777 18.4647 223.31 18.2713 222.823 18.2713Z" fill="#3F3D56"/>
<path d="M14.9978 25.453V145.77C14.9978 146.751 15.3876 147.692 16.0816 148.386C16.7755 149.08 17.7166 149.47 18.6979 149.47H220.958C221.94 149.47 222.881 149.08 223.575 148.386C224.269 147.692 224.659 146.751 224.659 145.77V25.453H14.9978Z" fill="white"/>
<path opacity="0.8" d="M18.3185 22.6661C18.7921 22.6661 19.176 22.2822 19.176 21.8086C19.176 21.335 18.7921 20.9511 18.3185 20.9511C17.8449 20.9511 17.461 21.335 17.461 21.8086C17.461 22.2822 17.8449 22.6661 18.3185 22.6661Z" fill="#FA5959"/>
<path opacity="0.8" d="M20.6767 22.6661C21.1502 22.6661 21.5342 22.2822 21.5342 21.8086C21.5342 21.335 21.1502 20.9511 20.6767 20.9511C20.2031 20.9511 19.8192 21.335 19.8192 21.8086C19.8192 22.2822 20.2031 22.6661 20.6767 22.6661Z" fill="#FED253"/>
<path opacity="0.8" d="M23.0348 22.6661C23.5084 22.6661 23.8923 22.2822 23.8923 21.8086C23.8923 21.335 23.5084 20.9511 23.0348 20.9511C22.5612 20.9511 22.1773 21.335 22.1773 21.8086C22.1773 22.2822 22.5612 22.6661 23.0348 22.6661Z" fill="#8CCF4D"/>
<path opacity="0.05" d="M202.987 45.5144H34.4868V119.607H202.987V45.5144Z" fill="black"/>
<path d="M201.701 46.076H35.7731V118.535H201.701V46.076Z" fill="#3F3D56"/>
<path d="M81.0066 64.7247C77.7419 64.7247 74.5504 65.6928 71.8358 67.5066C69.1213 69.3205 67.0055 71.8985 65.7561 74.9148C64.5068 77.931 64.1799 81.25 64.8168 84.4521C65.4537 87.6541 67.0259 90.5954 69.3344 92.904C71.643 95.2125 74.5842 96.7847 77.7863 97.4216C80.9883 98.0585 84.3073 97.7316 87.3236 96.4822C90.3399 95.2329 92.9179 93.1171 94.7317 90.4025C96.5456 87.688 97.5137 84.4965 97.5137 81.2317C97.5137 79.064 97.0867 76.9175 96.2572 74.9148C95.4276 72.912 94.2117 71.0923 92.6789 69.5595C91.1461 68.0267 89.3263 66.8108 87.3236 65.9812C85.3209 65.1517 83.1744 64.7247 81.0066 64.7247ZM83.9672 81.6283V89.4445H78.1318V81.6283C77.3243 81.0171 76.7292 80.1676 76.4304 79.1999C76.1317 78.2322 76.1444 77.1951 76.4668 76.235C76.7892 75.2749 77.405 74.4403 78.2273 73.849C79.0495 73.2578 80.0367 72.9397 81.0495 72.9397C82.0623 72.9397 83.0495 73.2578 83.8718 73.849C84.694 74.4403 85.3098 75.2749 85.6322 76.235C85.9546 77.1951 85.9674 78.2322 85.6686 79.1999C85.3699 80.1676 84.7747 81.0171 83.9672 81.6283Z" fill="#66D655"/>
<path opacity="0.05" d="M81.0066 64.7247C77.7419 64.7247 74.5504 65.6928 71.8358 67.5066C69.1213 69.3205 67.0055 71.8985 65.7561 74.9148C64.5068 77.931 64.1799 81.25 64.8168 84.4521C65.4537 87.6541 67.0259 90.5954 69.3344 92.904C71.643 95.2125 74.5842 96.7847 77.7863 97.4216C80.9883 98.0585 84.3073 97.7316 87.3236 96.4822C90.3399 95.2329 92.9179 93.1171 94.7317 90.4025C96.5456 87.688 97.5137 84.4965 97.5137 81.2317C97.5137 79.064 97.0867 76.9175 96.2572 74.9148C95.4276 72.912 94.2117 71.0923 92.6789 69.5595C91.1461 68.0267 89.3263 66.8108 87.3236 65.9812C85.3209 65.1517 83.1744 64.7247 81.0066 64.7247ZM83.9672 81.6283V89.4445H78.1318V81.6283C77.3243 81.0171 76.7292 80.1676 76.4304 79.1999C76.1317 78.2322 76.1444 77.1951 76.4668 76.235C76.7892 75.2749 77.405 74.4403 78.2273 73.849C79.0495 73.2578 80.0367 72.9397 81.0495 72.9397C82.0623 72.9397 83.0495 73.2578 83.8718 73.849C84.694 74.4403 85.3098 75.2749 85.6322 76.235C85.9546 77.1951 85.9674 78.2322 85.6686 79.1999C85.3699 80.1676 84.7747 81.0171 83.9672 81.6283Z" fill="black"/>
<path d="M81.0066 60.0084C76.8091 60.0084 72.7057 61.2531 69.2156 63.5852C65.7254 65.9172 63.0052 69.2319 61.3988 73.1099C59.7925 76.988 59.3722 81.2553 60.1911 85.3722C61.01 89.4891 63.0313 93.2707 65.9995 96.2389C68.9676 99.207 72.7492 101.228 76.8662 102.047C80.9831 102.866 85.2504 102.446 89.1284 100.84C93.0065 99.2332 96.3211 96.5129 98.6532 93.0228C100.985 89.5326 102.23 85.4293 102.23 81.2317C102.23 75.6029 99.9939 70.2047 96.0138 66.2246C92.0336 62.2444 86.6354 60.0084 81.0066 60.0084ZM84.8118 81.7419V91.7898H77.3086V81.7419C76.27 80.9559 75.5045 79.8635 75.1201 78.619C74.7358 77.3745 74.752 76.0406 75.1666 74.8059C75.5811 73.5711 76.3731 72.4977 77.4306 71.7372C78.4881 70.9767 79.7577 70.5676 81.0602 70.5676C82.3628 70.5676 83.6324 70.9767 84.6899 71.7372C85.7474 72.4977 86.5393 73.5711 86.9539 74.8059C87.3684 76.0406 87.3847 77.3745 87.0003 78.619C86.616 79.8635 85.8505 80.9559 84.8118 81.7419Z" fill="#66D655"/>
<path d="M179.62 78.447H111.019V85.7358H179.62V78.447Z" fill="white"/>
<path d="M179.62 91.7383H164.828V99.0271H179.62V91.7383Z" fill="#66D655"/>
<path d="M117.772 81.9821H116.531L117.635 80.8802C117.655 80.8598 117.666 80.8325 117.666 80.8041C117.666 80.7756 117.655 80.7483 117.635 80.7279C117.625 80.7179 117.613 80.7099 117.6 80.7045C117.587 80.699 117.573 80.6962 117.559 80.6962C117.545 80.6962 117.531 80.699 117.518 80.7045C117.505 80.7099 117.493 80.7179 117.483 80.7279L116.379 81.832V80.5886C116.379 80.5602 116.368 80.5329 116.347 80.5128C116.327 80.4927 116.3 80.4814 116.272 80.4814C116.243 80.482 116.216 80.4934 116.196 80.5134C116.176 80.5334 116.165 80.5603 116.164 80.5886V81.832L115.063 80.7215C115.053 80.7115 115.041 80.7035 115.028 80.6981C115.015 80.6926 115.001 80.6898 114.986 80.6898C114.972 80.6898 114.958 80.6926 114.945 80.6981C114.932 80.7035 114.92 80.7115 114.91 80.7215C114.891 80.7419 114.88 80.7692 114.88 80.7976C114.88 80.826 114.891 80.8533 114.91 80.8737L116.014 81.9756H114.771C114.743 81.9762 114.716 81.9876 114.696 82.0076C114.676 82.0276 114.664 82.0546 114.664 82.0828C114.664 82.1112 114.675 82.1385 114.695 82.1586C114.715 82.1787 114.743 82.19 114.771 82.19H116.014L114.91 83.294C114.891 83.3144 114.88 83.3417 114.88 83.3701C114.88 83.3986 114.891 83.4258 114.91 83.4462C114.931 83.4655 114.958 83.4763 114.986 83.4763C115.015 83.4763 115.042 83.4655 115.063 83.4462L116.164 82.3422V83.5834C116.164 83.6119 116.176 83.6391 116.196 83.6592C116.216 83.6793 116.243 83.6906 116.272 83.6906C116.3 83.6906 116.327 83.6793 116.347 83.6592C116.368 83.6391 116.379 83.6119 116.379 83.5834V82.3422L117.483 83.4462C117.504 83.4655 117.531 83.4763 117.559 83.4763C117.587 83.4763 117.614 83.4655 117.635 83.4462C117.655 83.4258 117.666 83.3986 117.666 83.3701C117.666 83.3417 117.655 83.3144 117.635 83.294L116.531 82.19H117.772C117.801 82.19 117.828 82.1787 117.848 82.1586C117.868 82.1385 117.879 82.1112 117.879 82.0828C117.878 82.0555 117.866 82.0299 117.846 82.0111C117.826 81.9924 117.8 81.982 117.772 81.9821Z" fill="#66D655"/>
<path d="M122.274 81.9821H121.033L122.137 80.8802C122.157 80.8598 122.168 80.8325 122.168 80.8041C122.168 80.7756 122.157 80.7483 122.137 80.7279C122.127 80.7179 122.115 80.7099 122.102 80.7045C122.089 80.699 122.075 80.6962 122.061 80.6962C122.047 80.6962 122.033 80.699 122.02 80.7045C122.007 80.7099 121.995 80.7179 121.985 80.7279L120.881 81.832V80.5886C120.881 80.5602 120.869 80.5329 120.849 80.5128C120.829 80.4927 120.802 80.4814 120.774 80.4814C120.745 80.482 120.718 80.4934 120.698 80.5134C120.678 80.5334 120.667 80.5603 120.666 80.5886V81.832L119.564 80.7215C119.555 80.7115 119.543 80.7035 119.53 80.6981C119.517 80.6926 119.503 80.6898 119.488 80.6898C119.474 80.6898 119.46 80.6926 119.447 80.6981C119.434 80.7035 119.422 80.7115 119.412 80.7215C119.392 80.7419 119.381 80.7692 119.381 80.7976C119.381 80.826 119.392 80.8533 119.412 80.8737L120.516 81.9756H119.273C119.245 81.9762 119.218 81.9876 119.198 82.0076C119.178 82.0276 119.166 82.0546 119.166 82.0828C119.166 82.1112 119.177 82.1385 119.197 82.1586C119.217 82.1787 119.245 82.19 119.273 82.19H120.516L119.412 83.294C119.392 83.3144 119.381 83.3417 119.381 83.3701C119.381 83.3986 119.392 83.4258 119.412 83.4462C119.433 83.4655 119.46 83.4763 119.488 83.4763C119.517 83.4763 119.544 83.4655 119.564 83.4462L120.666 82.3422V83.5834C120.666 83.6119 120.678 83.6391 120.698 83.6592C120.718 83.6793 120.745 83.6906 120.774 83.6906C120.802 83.6906 120.829 83.6793 120.849 83.6592C120.869 83.6391 120.881 83.6119 120.881 83.5834V82.3422L121.985 83.4462C122.005 83.4655 122.033 83.4763 122.061 83.4763C122.089 83.4763 122.116 83.4655 122.137 83.4462C122.157 83.4258 122.168 83.3986 122.168 83.3701C122.168 83.3417 122.157 83.3144 122.137 83.294L121.033 82.19H122.274C122.303 82.19 122.33 82.1787 122.35 82.1586C122.37 82.1385 122.381 82.1112 122.381 82.0828C122.38 82.0555 122.368 82.0299 122.348 82.0111C122.328 81.9924 122.302 81.982 122.274 81.9821Z" fill="#66D655"/>
<path d="M126.776 81.9821H125.535L126.639 80.8802C126.659 80.8598 126.67 80.8325 126.67 80.8041C126.67 80.7756 126.659 80.7483 126.639 80.7279C126.629 80.7179 126.617 80.7099 126.604 80.7045C126.591 80.699 126.577 80.6962 126.563 80.6962C126.549 80.6962 126.535 80.699 126.522 80.7045C126.509 80.7099 126.497 80.7179 126.487 80.7279L125.383 81.832V80.5886C125.383 80.5602 125.371 80.5329 125.351 80.5128C125.331 80.4927 125.304 80.4814 125.275 80.4814C125.247 80.482 125.22 80.4934 125.2 80.5134C125.18 80.5334 125.169 80.5603 125.168 80.5886V81.832L124.066 80.7215C124.056 80.7115 124.045 80.7035 124.032 80.6981C124.018 80.6926 124.004 80.6898 123.99 80.6898C123.976 80.6898 123.962 80.6926 123.949 80.6981C123.936 80.7035 123.924 80.7115 123.914 80.7215C123.894 80.7419 123.883 80.7692 123.883 80.7976C123.883 80.826 123.894 80.8533 123.914 80.8737L125.018 81.9756H123.775C123.747 81.9762 123.72 81.9876 123.7 82.0076C123.68 82.0276 123.668 82.0546 123.668 82.0828C123.668 82.1112 123.679 82.1385 123.699 82.1586C123.719 82.1787 123.746 82.19 123.775 82.19H125.018L123.914 83.294C123.894 83.3144 123.883 83.3417 123.883 83.3701C123.883 83.3986 123.894 83.4258 123.914 83.4462C123.935 83.4655 123.962 83.4763 123.99 83.4763C124.019 83.4763 124.046 83.4655 124.066 83.4462L125.168 82.3422V83.5834C125.168 83.6119 125.18 83.6391 125.2 83.6592C125.22 83.6793 125.247 83.6906 125.275 83.6906C125.304 83.6906 125.331 83.6793 125.351 83.6592C125.371 83.6391 125.383 83.6119 125.383 83.5834V82.3422L126.487 83.4462C126.507 83.4655 126.535 83.4763 126.563 83.4763C126.591 83.4763 126.618 83.4655 126.639 83.4462C126.659 83.4258 126.67 83.3986 126.67 83.3701C126.67 83.3417 126.659 83.3144 126.639 83.294L125.535 82.19H126.776C126.805 82.19 126.832 82.1787 126.852 82.1586C126.872 82.1385 126.883 82.1112 126.883 82.0828C126.882 82.0555 126.87 82.0299 126.85 82.0111C126.83 81.9924 126.803 81.982 126.776 81.9821Z" fill="#66D655"/>
<path d="M131.278 81.9821H130.037L131.141 80.8802C131.161 80.8598 131.172 80.8325 131.172 80.8041C131.172 80.7756 131.161 80.7483 131.141 80.7279C131.131 80.7179 131.119 80.7099 131.106 80.7045C131.093 80.699 131.079 80.6962 131.065 80.6962C131.051 80.6962 131.037 80.699 131.023 80.7045C131.01 80.7099 130.999 80.7179 130.989 80.7279L129.885 81.832V80.5886C129.885 80.5602 129.873 80.5329 129.853 80.5128C129.833 80.4927 129.806 80.4814 129.777 80.4814C129.749 80.482 129.722 80.4934 129.702 80.5134C129.682 80.5334 129.671 80.5603 129.67 80.5886V81.832L128.568 80.7215C128.558 80.7115 128.546 80.7035 128.533 80.6981C128.52 80.6926 128.506 80.6898 128.492 80.6898C128.478 80.6898 128.464 80.6926 128.451 80.6981C128.438 80.7035 128.426 80.7115 128.416 80.7215C128.396 80.7419 128.385 80.7692 128.385 80.7976C128.385 80.826 128.396 80.8533 128.416 80.8737L129.52 81.9756H128.277C128.248 81.9762 128.222 81.9876 128.202 82.0076C128.182 82.0276 128.17 82.0546 128.17 82.0828C128.17 82.1112 128.181 82.1385 128.201 82.1586C128.221 82.1787 128.248 82.19 128.277 82.19H129.52L128.416 83.294C128.396 83.3144 128.385 83.3417 128.385 83.3701C128.385 83.3986 128.396 83.4258 128.416 83.4462C128.437 83.4655 128.464 83.4763 128.492 83.4763C128.52 83.4763 128.548 83.4655 128.568 83.4462L129.67 82.3422V83.5834C129.67 83.6119 129.681 83.6391 129.702 83.6592C129.722 83.6793 129.749 83.6906 129.777 83.6906C129.806 83.6906 129.833 83.6793 129.853 83.6592C129.873 83.6391 129.885 83.6119 129.885 83.5834V82.3422L130.989 83.4462C131.009 83.4655 131.036 83.4763 131.065 83.4763C131.093 83.4763 131.12 83.4655 131.141 83.4462C131.161 83.4258 131.172 83.3986 131.172 83.3701C131.172 83.3417 131.161 83.3144 131.141 83.294L130.037 82.19H131.278C131.306 82.19 131.334 82.1787 131.354 82.1586C131.374 82.1385 131.385 82.1112 131.385 82.0828C131.384 82.0555 131.372 82.0299 131.352 82.0111C131.332 81.9924 131.305 81.982 131.278 81.9821Z" fill="#66D655"/>
<path d="M135.78 81.9821H134.539L135.643 80.8802C135.663 80.8598 135.674 80.8325 135.674 80.8041C135.674 80.7756 135.663 80.7483 135.643 80.7279C135.633 80.7179 135.621 80.7099 135.608 80.7045C135.595 80.699 135.581 80.6962 135.567 80.6962C135.553 80.6962 135.539 80.699 135.525 80.7045C135.512 80.7099 135.501 80.7179 135.491 80.7279L134.387 81.832V80.5886C134.387 80.5602 134.375 80.5329 134.355 80.5128C134.335 80.4927 134.308 80.4814 134.279 80.4814C134.251 80.482 134.224 80.4934 134.204 80.5134C134.184 80.5334 134.173 80.5603 134.172 80.5886V81.832L133.07 80.7215C133.06 80.7115 133.048 80.7035 133.035 80.6981C133.022 80.6926 133.008 80.6898 132.994 80.6898C132.98 80.6898 132.966 80.6926 132.953 80.6981C132.94 80.7035 132.928 80.7115 132.918 80.7215C132.898 80.7419 132.887 80.7692 132.887 80.7976C132.887 80.826 132.898 80.8533 132.918 80.8737L134.022 81.9756H132.779C132.75 81.9762 132.723 81.9876 132.704 82.0076C132.684 82.0276 132.672 82.0546 132.672 82.0828C132.672 82.1112 132.683 82.1385 132.703 82.1586C132.723 82.1787 132.75 82.19 132.779 82.19H134.022L132.918 83.294C132.898 83.3144 132.887 83.3417 132.887 83.3701C132.887 83.3986 132.898 83.4258 132.918 83.4462C132.939 83.4655 132.966 83.4763 132.994 83.4763C133.022 83.4763 133.05 83.4655 133.07 83.4462L134.172 82.3422V83.5834C134.172 83.6119 134.183 83.6391 134.204 83.6592C134.224 83.6793 134.251 83.6906 134.279 83.6906C134.308 83.6906 134.335 83.6793 134.355 83.6592C134.375 83.6391 134.387 83.6119 134.387 83.5834V82.3422L135.491 83.4462C135.511 83.4655 135.538 83.4763 135.567 83.4763C135.595 83.4763 135.622 83.4655 135.643 83.4462C135.663 83.4258 135.674 83.3986 135.674 83.3701C135.674 83.3417 135.663 83.3144 135.643 83.294L134.539 82.19H135.78C135.808 82.19 135.836 82.1787 135.856 82.1586C135.876 82.1385 135.887 82.1112 135.887 82.0828C135.886 82.0555 135.874 82.0299 135.854 82.0111C135.834 81.9924 135.807 81.982 135.78 81.9821Z" fill="#66D655"/>
<path d="M140.282 81.9821H139.041L140.145 80.8802C140.164 80.8598 140.175 80.8325 140.175 80.8041C140.175 80.7756 140.164 80.7483 140.145 80.7279C140.135 80.7179 140.123 80.7099 140.11 80.7045C140.097 80.699 140.083 80.6962 140.069 80.6962C140.054 80.6962 140.04 80.699 140.027 80.7045C140.014 80.7099 140.002 80.7179 139.992 80.7279L138.888 81.832V80.5886C138.888 80.5602 138.877 80.5329 138.857 80.5128C138.837 80.4927 138.81 80.4814 138.781 80.4814C138.753 80.482 138.726 80.4934 138.706 80.5134C138.686 80.5334 138.675 80.5603 138.674 80.5886V81.832L137.572 80.7215C137.562 80.7115 137.55 80.7035 137.537 80.6981C137.524 80.6926 137.51 80.6898 137.496 80.6898C137.482 80.6898 137.468 80.6926 137.455 80.6981C137.442 80.7035 137.43 80.7115 137.42 80.7215C137.4 80.7419 137.389 80.7692 137.389 80.7976C137.389 80.826 137.4 80.8533 137.42 80.8737L138.524 81.9756H137.281C137.252 81.9762 137.225 81.9876 137.205 82.0076C137.185 82.0276 137.174 82.0546 137.173 82.0828C137.173 82.1112 137.185 82.1385 137.205 82.1586C137.225 82.1787 137.252 82.19 137.281 82.19H138.524L137.42 83.294C137.4 83.3144 137.389 83.3417 137.389 83.3701C137.389 83.3986 137.4 83.4258 137.42 83.4462C137.441 83.4655 137.468 83.4763 137.496 83.4763C137.524 83.4763 137.551 83.4655 137.572 83.4462L138.674 82.3422V83.5834C138.674 83.6119 138.685 83.6391 138.705 83.6592C138.726 83.6793 138.753 83.6906 138.781 83.6906C138.81 83.6906 138.837 83.6793 138.857 83.6592C138.877 83.6391 138.888 83.6119 138.888 83.5834V82.3422L139.992 83.4462C140.013 83.4655 140.04 83.4763 140.069 83.4763C140.097 83.4763 140.124 83.4655 140.145 83.4462C140.164 83.4258 140.175 83.3986 140.175 83.3701C140.175 83.3417 140.164 83.3144 140.145 83.294L139.041 82.19H140.282C140.31 82.19 140.338 82.1787 140.358 82.1586C140.378 82.1385 140.389 82.1112 140.389 82.0828C140.387 82.0555 140.375 82.0299 140.355 82.0111C140.336 81.9924 140.309 81.982 140.282 81.9821Z" fill="#66D655"/>
<path d="M144.784 81.9821H143.543L144.647 80.8802C144.666 80.8598 144.677 80.8325 144.677 80.8041C144.677 80.7756 144.666 80.7483 144.647 80.7279C144.637 80.7179 144.625 80.7099 144.612 80.7045C144.599 80.699 144.585 80.6962 144.57 80.6962C144.556 80.6962 144.542 80.699 144.529 80.7045C144.516 80.7099 144.504 80.7179 144.494 80.7279L143.39 81.832V80.5886C143.39 80.5602 143.379 80.5329 143.359 80.5128C143.339 80.4927 143.312 80.4814 143.283 80.4814C143.255 80.482 143.228 80.4934 143.208 80.5134C143.188 80.5334 143.177 80.5603 143.176 80.5886V81.832L142.074 80.7215C142.064 80.7115 142.052 80.7035 142.039 80.6981C142.026 80.6926 142.012 80.6898 141.998 80.6898C141.984 80.6898 141.97 80.6926 141.957 80.6981C141.944 80.7035 141.932 80.7115 141.922 80.7215C141.902 80.7419 141.891 80.7692 141.891 80.7976C141.891 80.826 141.902 80.8533 141.922 80.8737L143.026 81.9756H141.783C141.754 81.9762 141.727 81.9876 141.707 82.0076C141.687 82.0276 141.676 82.0546 141.675 82.0828C141.675 82.1112 141.687 82.1385 141.707 82.1586C141.727 82.1787 141.754 82.19 141.783 82.19H143.026L141.922 83.294C141.902 83.3144 141.891 83.3417 141.891 83.3701C141.891 83.3986 141.902 83.4258 141.922 83.4462C141.942 83.4655 141.97 83.4763 141.998 83.4763C142.026 83.4763 142.053 83.4655 142.074 83.4462L143.176 82.3422V83.5834C143.176 83.6119 143.187 83.6391 143.207 83.6592C143.227 83.6793 143.255 83.6906 143.283 83.6906C143.312 83.6906 143.339 83.6793 143.359 83.6592C143.379 83.6391 143.39 83.6119 143.39 83.5834V82.3422L144.494 83.4462C144.515 83.4655 144.542 83.4763 144.57 83.4763C144.599 83.4763 144.626 83.4655 144.647 83.4462C144.666 83.4258 144.677 83.3986 144.677 83.3701C144.677 83.3417 144.666 83.3144 144.647 83.294L143.543 82.19H144.784C144.812 82.19 144.839 82.1787 144.86 82.1586C144.88 82.1385 144.891 82.1112 144.891 82.0828C144.889 82.0555 144.877 82.0299 144.857 82.0111C144.837 81.9924 144.811 81.982 144.784 81.9821Z" fill="#66D655"/>
<path d="M149.286 81.9821H148.044L149.149 80.8802C149.168 80.8598 149.179 80.8325 149.179 80.8041C149.179 80.7756 149.168 80.7483 149.149 80.7279C149.139 80.7179 149.127 80.7099 149.114 80.7045C149.101 80.699 149.087 80.6962 149.072 80.6962C149.058 80.6962 149.044 80.699 149.031 80.7045C149.018 80.7099 149.006 80.7179 148.996 80.7279L147.892 81.832V80.5886C147.892 80.5602 147.881 80.5329 147.861 80.5128C147.841 80.4927 147.814 80.4814 147.785 80.4814C147.757 80.482 147.73 80.4934 147.71 80.5134C147.69 80.5334 147.678 80.5603 147.678 80.5886V81.832L146.576 80.7215C146.566 80.7115 146.554 80.7035 146.541 80.6981C146.528 80.6926 146.514 80.6898 146.5 80.6898C146.486 80.6898 146.472 80.6926 146.459 80.6981C146.446 80.7035 146.434 80.7115 146.424 80.7215C146.404 80.7419 146.393 80.7692 146.393 80.7976C146.393 80.826 146.404 80.8533 146.424 80.8737L147.528 81.9756H146.284C146.256 81.9762 146.229 81.9876 146.209 82.0076C146.189 82.0276 146.178 82.0546 146.177 82.0828C146.177 82.1112 146.189 82.1385 146.209 82.1586C146.229 82.1787 146.256 82.19 146.284 82.19H147.528L146.424 83.294C146.404 83.3144 146.393 83.3417 146.393 83.3701C146.393 83.3986 146.404 83.4258 146.424 83.4462C146.444 83.4655 146.472 83.4763 146.5 83.4763C146.528 83.4763 146.555 83.4655 146.576 83.4462L147.678 82.3422V83.5834C147.678 83.6119 147.689 83.6391 147.709 83.6592C147.729 83.6793 147.757 83.6906 147.785 83.6906C147.814 83.6906 147.841 83.6793 147.861 83.6592C147.881 83.6391 147.892 83.6119 147.892 83.5834V82.3422L148.996 83.4462C149.017 83.4655 149.044 83.4763 149.072 83.4763C149.101 83.4763 149.128 83.4655 149.149 83.4462C149.168 83.4258 149.179 83.3986 149.179 83.3701C149.179 83.3417 149.168 83.3144 149.149 83.294L148.044 82.19H149.286C149.314 82.19 149.341 82.1787 149.361 82.1586C149.382 82.1385 149.393 82.1112 149.393 82.0828C149.391 82.0555 149.379 82.0299 149.359 82.0111C149.339 81.9924 149.313 81.982 149.286 81.9821Z" fill="#66D655"/>
<path d="M153.788 81.9821H152.546L153.65 80.8802C153.67 80.8598 153.681 80.8325 153.681 80.8041C153.681 80.7756 153.67 80.7483 153.65 80.7279C153.64 80.7179 153.629 80.7099 153.616 80.7045C153.602 80.699 153.588 80.6962 153.574 80.6962C153.56 80.6962 153.546 80.699 153.533 80.7045C153.52 80.7099 153.508 80.7179 153.498 80.7279L152.394 81.832V80.5886C152.394 80.5602 152.383 80.5329 152.363 80.5128C152.343 80.4927 152.315 80.4814 152.287 80.4814C152.259 80.482 152.232 80.4934 152.212 80.5134C152.192 80.5334 152.18 80.5603 152.18 80.5886V81.832L151.078 80.7215C151.068 80.7115 151.056 80.7035 151.043 80.6981C151.03 80.6926 151.016 80.6898 151.002 80.6898C150.988 80.6898 150.974 80.6926 150.961 80.6981C150.947 80.7035 150.936 80.7115 150.926 80.7215C150.906 80.7419 150.895 80.7692 150.895 80.7976C150.895 80.826 150.906 80.8533 150.926 80.8737L152.03 81.9756H150.786C150.758 81.9762 150.731 81.9876 150.711 82.0076C150.691 82.0276 150.68 82.0546 150.679 82.0828C150.679 82.1112 150.69 82.1385 150.711 82.1586C150.731 82.1787 150.758 82.19 150.786 82.19H152.03L150.926 83.294C150.906 83.3144 150.895 83.3417 150.895 83.3701C150.895 83.3986 150.906 83.4258 150.926 83.4462C150.946 83.4655 150.974 83.4763 151.002 83.4763C151.03 83.4763 151.057 83.4655 151.078 83.4462L152.18 82.3422V83.5834C152.18 83.6119 152.191 83.6391 152.211 83.6592C152.231 83.6793 152.259 83.6906 152.287 83.6906C152.315 83.6906 152.343 83.6793 152.363 83.6592C152.383 83.6391 152.394 83.6119 152.394 83.5834V82.3422L153.498 83.4462C153.519 83.4655 153.546 83.4763 153.574 83.4763C153.603 83.4763 153.63 83.4655 153.65 83.4462C153.67 83.4258 153.681 83.3986 153.681 83.3701C153.681 83.3417 153.67 83.3144 153.65 83.294L152.546 82.19H153.788C153.816 82.19 153.843 82.1787 153.863 82.1586C153.883 82.1385 153.895 82.1112 153.895 82.0828C153.893 82.0555 153.881 82.0299 153.861 82.0111C153.841 81.9924 153.815 81.982 153.788 81.9821Z" fill="#66D655"/>
<path d="M158.29 81.9821H157.048L158.152 80.8802C158.172 80.8598 158.183 80.8325 158.183 80.8041C158.183 80.7756 158.172 80.7483 158.152 80.7279C158.142 80.7179 158.131 80.7099 158.117 80.7045C158.104 80.699 158.09 80.6962 158.076 80.6962C158.062 80.6962 158.048 80.699 158.035 80.7045C158.022 80.7099 158.01 80.7179 158 80.7279L156.896 81.832V80.5886C156.896 80.5602 156.885 80.5329 156.865 80.5128C156.845 80.4927 156.817 80.4814 156.789 80.4814C156.761 80.482 156.734 80.4934 156.714 80.5134C156.694 80.5334 156.682 80.5603 156.682 80.5886V81.832L155.58 80.7215C155.57 80.7115 155.558 80.7035 155.545 80.6981C155.532 80.6926 155.518 80.6898 155.504 80.6898C155.49 80.6898 155.476 80.6926 155.462 80.6981C155.449 80.7035 155.438 80.7115 155.428 80.7215C155.408 80.7419 155.397 80.7692 155.397 80.7976C155.397 80.826 155.408 80.8533 155.428 80.8737L156.532 81.9756H155.288C155.26 81.9762 155.233 81.9876 155.213 82.0076C155.193 82.0276 155.182 82.0546 155.181 82.0828C155.181 82.1112 155.192 82.1385 155.212 82.1586C155.233 82.1787 155.26 82.19 155.288 82.19H156.532L155.428 83.294C155.408 83.3144 155.397 83.3417 155.397 83.3701C155.397 83.3986 155.408 83.4258 155.428 83.4462C155.448 83.4655 155.475 83.4763 155.504 83.4763C155.532 83.4763 155.559 83.4655 155.58 83.4462L156.682 82.3422V83.5834C156.682 83.6119 156.693 83.6391 156.713 83.6592C156.733 83.6793 156.76 83.6906 156.789 83.6906C156.817 83.6906 156.845 83.6793 156.865 83.6592C156.885 83.6391 156.896 83.6119 156.896 83.5834V82.3422L158 83.4462C158.021 83.4655 158.048 83.4763 158.076 83.4763C158.104 83.4763 158.132 83.4655 158.152 83.4462C158.172 83.4258 158.183 83.3986 158.183 83.3701C158.183 83.3417 158.172 83.3144 158.152 83.294L157.048 82.19H158.29C158.318 82.19 158.345 82.1787 158.365 82.1586C158.385 82.1385 158.397 82.1112 158.397 82.0828C158.395 82.0555 158.383 82.0299 158.363 82.0111C158.343 81.9924 158.317 81.982 158.29 81.9821Z" fill="#66D655"/>
<path d="M162.791 81.9821H161.55L162.654 80.8802C162.674 80.8598 162.685 80.8325 162.685 80.8041C162.685 80.7756 162.674 80.7483 162.654 80.7279C162.644 80.7179 162.632 80.7099 162.619 80.7045C162.606 80.699 162.592 80.6962 162.578 80.6962C162.564 80.6962 162.55 80.699 162.537 80.7045C162.524 80.7099 162.512 80.7179 162.502 80.7279L161.398 81.832V80.5886C161.398 80.5602 161.387 80.5329 161.367 80.5128C161.347 80.4927 161.319 80.4814 161.291 80.4814C161.263 80.482 161.236 80.4934 161.216 80.5134C161.196 80.5334 161.184 80.5603 161.184 80.5886V81.832L160.082 80.7215C160.072 80.7115 160.06 80.7035 160.047 80.6981C160.034 80.6926 160.02 80.6898 160.006 80.6898C159.991 80.6898 159.977 80.6926 159.964 80.6981C159.951 80.7035 159.939 80.7115 159.93 80.7215C159.91 80.7419 159.899 80.7692 159.899 80.7976C159.899 80.826 159.91 80.8533 159.93 80.8737L161.034 81.9756H159.79C159.762 81.9762 159.735 81.9876 159.715 82.0076C159.695 82.0276 159.684 82.0546 159.683 82.0828C159.683 82.1112 159.694 82.1385 159.714 82.1586C159.734 82.1787 159.762 82.19 159.79 82.19H161.034L159.93 83.294C159.91 83.3144 159.899 83.3417 159.899 83.3701C159.899 83.3986 159.91 83.4258 159.93 83.4462C159.95 83.4655 159.977 83.4763 160.006 83.4763C160.034 83.4763 160.061 83.4655 160.082 83.4462L161.184 82.3422V83.5834C161.184 83.6119 161.195 83.6391 161.215 83.6592C161.235 83.6793 161.262 83.6906 161.291 83.6906C161.319 83.6906 161.347 83.6793 161.367 83.6592C161.387 83.6391 161.398 83.6119 161.398 83.5834V82.3422L162.502 83.4462C162.523 83.4655 162.55 83.4763 162.578 83.4763C162.606 83.4763 162.634 83.4655 162.654 83.4462C162.674 83.4258 162.685 83.3986 162.685 83.3701C162.685 83.3417 162.674 83.3144 162.654 83.294L161.55 82.19H162.791C162.82 82.19 162.847 82.1787 162.867 82.1586C162.887 82.1385 162.899 82.1112 162.899 82.0828C162.897 82.0555 162.885 82.0299 162.865 82.0111C162.845 81.9924 162.819 81.982 162.791 81.9821Z" fill="#66D655"/>
<path d="M197.304 108.061C197.298 107.802 197.266 107.544 197.207 107.291C197.015 106.567 196.579 105.69 195.863 105.471C195.124 105.245 194.41 104.943 193.732 104.571C193.604 102.273 194.131 99.9211 193.557 97.6937C193.342 96.8791 192.989 96.0987 192.894 95.2648C192.776 94.2272 193.059 93.121 192.646 92.1649C192.32 91.4103 191.604 90.8787 190.834 90.6C190.064 90.3213 189.235 90.2462 188.418 90.1712C187.389 90.0876 184.058 89.6932 182.896 90.6128C182.816 90.675 182.744 90.7471 182.681 90.8272C182.656 90.8626 182.633 90.8998 182.613 90.9387L182.602 90.9558C182.579 91.0005 182.559 91.0471 182.544 91.0952C182.528 91.1478 182.516 91.2015 182.508 91.256C182.508 91.2731 182.508 91.2903 182.508 91.3074C182.508 91.3246 182.508 91.3824 182.508 91.421V91.4789C182.508 91.5175 182.508 91.5561 182.508 91.5968C182.508 91.6376 182.508 91.6268 182.508 91.6418C182.523 91.8348 182.551 92.0277 182.551 92.2185C182.553 92.3135 182.544 92.4085 182.525 92.5015C182.453 92.7543 182.332 92.9904 182.169 93.1961L182.13 93.2518C182.107 93.2861 182.083 93.3183 182.062 93.3526C182.04 93.3869 182.023 93.4126 182.006 93.4426C181.989 93.4726 181.972 93.4919 181.957 93.5198C181.936 93.5551 181.917 93.5916 181.901 93.6291C181.901 93.6506 181.877 93.6698 181.869 93.6913C181.842 93.7492 181.82 93.8095 181.805 93.8714C181.754 94.0576 181.75 94.2533 181.792 94.4416C181.849 94.6821 181.949 94.9106 182.085 95.1169C182.139 95.2048 182.197 95.2905 182.257 95.3763L182.407 95.5799C182.379 95.7788 182.364 95.9793 182.362 96.1802C182.362 96.8515 182.514 97.514 182.808 98.1178C183.101 98.7216 183.528 99.251 184.055 99.666C184.14 100.571 184.131 101.483 184.028 102.386C184.008 102.575 183.985 102.766 183.959 102.955C183.933 103.143 183.914 103.268 183.888 103.424C183.575 103.469 183.255 103.445 182.951 103.353C182.811 103.291 182.668 103.236 182.523 103.188C181.899 103.032 181.262 103.653 180.645 103.465C180.645 103.495 180.628 103.523 180.617 103.55C180.488 103.47 180.34 103.427 180.188 103.424C179.822 103.407 179.524 103.141 179.258 102.89L178.441 102.121C178.388 102.073 178.34 102.02 178.299 101.962C178.256 101.879 178.222 101.79 178.201 101.698C178.064 101.254 177.731 100.901 177.41 100.564C177.349 100.487 177.268 100.429 177.176 100.395C177.141 100.39 177.104 100.39 177.069 100.395C177.047 100.365 177.023 100.336 176.998 100.309C176.943 100.245 176.883 100.185 176.82 100.129C176.43 99.7689 176.392 99.4602 176.053 99.0571C175.757 98.6728 175.489 98.268 175.251 97.8459C175.223 97.6208 175.185 97.3893 175.137 97.1556C175.029 96.6206 174.872 96.0968 174.668 95.5907L174.239 94.641L174.19 94.6903C173.879 94.2272 173.547 93.9743 173.249 94.0343C172.749 94.1372 172.503 95.1062 172.582 96.3731L172.754 97.6594C172.754 97.6916 172.769 97.7237 172.777 97.7559C172.746 97.9083 172.73 98.0634 172.73 98.2189C172.73 98.399 172.897 98.5319 172.985 98.6927C173.126 98.9105 173.2 99.1644 173.199 99.4237C173.189 99.5159 173.161 99.6038 173.157 99.6938C173.168 99.8952 173.238 100.089 173.358 100.251L174.43 102.052L174.644 102.429L174.657 102.446C174.725 102.578 174.823 102.691 174.944 102.777C174.986 103.227 175.106 103.668 175.298 104.078C175.335 104.159 175.375 104.236 175.418 104.314C175.706 104.787 176.046 105.228 176.43 105.628L176.94 106.2C177.444 106.762 177.948 107.326 178.495 107.844C178.69 108.053 178.927 108.218 179.189 108.331C179.318 108.382 179.458 108.399 179.595 108.379C179.732 108.359 179.861 108.303 179.969 108.217C179.969 108.483 179.969 108.749 179.969 109.015C180.049 109.02 180.126 109.046 180.192 109.09C180.258 109.135 180.311 109.196 180.346 109.268C180.38 109.34 180.395 109.42 180.388 109.499C180.382 109.579 180.354 109.655 180.308 109.72C179.858 110.876 179.404 112.042 178.722 113.077C179.203 113.362 179.649 113.703 180.051 114.091C180.312 114.38 180.544 114.694 180.743 115.028C180.763 115.187 180.778 115.343 180.786 115.5C180.945 118.055 179.957 120.591 179.071 123.027C178.816 123.717 178.537 124.439 178.559 125.158C178.391 125.261 178.23 125.376 178.079 125.503C178.254 125.961 178.186 126.371 178.167 126.862C178.16 127.156 178.1 127.447 177.989 127.719C177.895 127.908 177.792 128.092 177.68 128.27C177.125 129.25 177.002 130.414 176.891 131.533C176.825 132.208 177.086 133.034 176.78 133.638C176.25 134.676 175.781 135.782 175.708 136.935C175.705 137.195 175.672 137.453 175.609 137.705C175.543 137.919 175.425 138.102 175.365 138.312C175.303 138.593 175.288 138.883 175.322 139.169C175.363 140.197 175.21 141.223 174.872 142.194C174.604 142.959 174.308 143.778 174.518 144.565C174.001 145.108 173.681 145.81 173.611 146.557C173.606 146.748 173.583 146.938 173.542 147.125C173.477 147.316 173.391 147.499 173.285 147.671C172.854 148.457 172.652 149.349 172.702 150.244C172.059 151.116 171.737 152.193 171.547 153.262C171.356 154.332 171.272 155.421 171.028 156.478C170.702 157.876 170.112 159.289 169.997 160.721C169.302 161.164 169.002 162.024 168.869 162.836C168.736 163.649 168.715 164.502 168.374 165.252C168.198 165.643 167.945 165.992 167.778 166.391C167.661 166.708 167.574 167.036 167.521 167.371C167.418 167.894 167.328 168.477 167.454 168.978C167.272 169.171 167.06 169.332 166.826 169.456C166.86 169.323 166.888 169.191 166.912 169.056C166.359 169.557 165.355 169.381 164.914 169.984C164.781 170.178 164.729 170.416 164.769 170.648C164.809 170.88 164.938 171.087 165.128 171.225C165.266 171.309 165.416 171.373 165.572 171.416C166.644 171.759 167.746 172.104 168.848 171.922C168.978 171.908 169.104 171.868 169.218 171.804C169.362 171.698 169.48 171.562 169.564 171.405C169.729 171.144 169.894 170.882 170.057 170.62C170.452 170.738 170.853 170.832 171.259 170.901C171.3 171.244 171.33 171.587 171.345 171.93C171.559 171.973 171.847 171.986 171.947 171.787C171.978 171.711 171.991 171.63 171.984 171.549C171.984 171.397 172.005 171.195 172.018 170.989H172.061C172.715 171.016 173.366 170.884 173.958 170.605C173.729 168.706 174.486 166.85 175.142 165.053C175.834 163.162 176.428 161.237 177.026 159.312C177.455 157.957 177.929 156.645 178.349 155.288C178.878 153.573 179.409 151.858 179.942 150.143C180.173 149.389 180.407 148.643 180.673 147.892C181.232 146.374 181.896 144.896 182.66 143.47C182.874 143.064 183.089 142.664 183.264 142.243C183.479 141.731 183.631 141.195 183.802 140.666C184.176 139.579 184.626 138.52 185.149 137.497C185.164 137.469 185.175 137.443 185.19 137.418C185.363 138.127 185.537 138.848 185.653 139.562C185.809 140.437 185.822 141.332 185.689 142.211C185.586 142.809 185.391 143.401 185.415 144.008C185.447 144.846 185.895 145.607 186.116 146.415C186.258 147.02 186.338 147.638 186.356 148.259C186.416 149.224 186.939 150.306 186.57 151.2C185.423 154.032 185.978 157.23 185.325 160.204C184.988 161.73 183.957 163.164 184.038 164.725C184.095 165.833 184.193 166.937 184.33 168.039C184.363 168.387 184.453 168.727 184.598 169.045C184.683 169.212 184.782 169.373 184.892 169.525C184.797 169.561 184.718 169.658 184.649 169.862C184.473 170.398 184.649 171.062 185.125 171.362C185.319 171.466 185.528 171.538 185.745 171.577C186.036 171.659 186.338 171.701 186.641 171.701C186.735 171.696 186.829 171.684 186.922 171.667C187.253 171.806 187.592 171.928 187.936 172.031C187.936 172.119 187.953 172.207 187.964 172.295C187.964 172.341 187.974 172.386 187.994 172.428C188.013 172.469 188.041 172.507 188.075 172.537C188.129 172.562 188.188 172.572 188.247 172.567H189.411C189.411 172.471 189.411 172.372 189.411 172.275C189.544 172.289 189.678 172.275 189.806 172.234C189.933 172.192 190.051 172.125 190.15 172.035C190.253 171.904 190.326 171.752 190.365 171.589C190.682 170.513 190.997 169.436 191.31 168.359C191.685 167.168 191.841 165.918 191.771 164.672C191.357 160.721 192.266 156.757 191.97 152.795C191.792 150.414 191.915 148.02 192.335 145.669C192.431 145.137 192.549 144.597 192.592 144.068C192.686 143.069 192.571 142.059 192.641 141.066C192.665 140.719 192.712 140.374 192.755 140.029C193.049 137.887 193.203 135.728 193.216 133.565C193.209 132.849 193.165 132.133 193.083 131.422C193.306 131.365 193.509 131.246 193.668 131.079C193.859 130.83 193.81 130.481 193.807 130.163C193.807 129.404 194.127 128.688 194.384 127.972C194.714 126.985 194.985 125.978 195.194 124.958C195.416 124.136 195.537 123.29 195.555 122.439C195.555 122.353 195.55 122.268 195.542 122.182C195.623 122.126 195.69 122.053 195.739 121.968C195.795 121.842 195.83 121.708 195.842 121.571C195.919 121.024 195.998 120.476 196.076 119.927C196.133 119.534 196.189 119.141 196.245 118.75L196.927 113.993C196.985 113.579 197.045 113.167 197.102 112.756L197.28 111.525C197.3 111.38 197.321 111.234 197.336 111.097C197.859 110.222 197.36 109.056 197.304 108.061ZM191.617 125.871C191.364 125.271 191.128 124.656 191.188 124.008H191.164C191.221 123.809 191.211 123.597 191.136 123.404C191.07 123.247 190.954 123.115 190.883 122.958C190.807 122.767 190.768 122.563 190.768 122.358C190.714 121.054 190.817 119.748 191.074 118.469C191.102 118.319 191.132 118.167 191.16 118.017C191.25 117.965 191.332 117.9 191.404 117.826C191.517 117.697 191.61 117.553 191.681 117.397C191.923 116.91 192.144 116.415 192.348 115.911C192.414 115.749 192.51 115.56 192.676 115.519C192.641 116.773 192.77 118.053 192.26 119.185C192.163 119.368 192.091 119.562 192.045 119.764C191.998 120.083 192.131 120.407 192.084 120.724C192.06 120.889 191.99 121.042 191.962 121.204C191.941 121.284 191.941 121.369 191.963 121.448C191.985 121.528 192.027 121.601 192.086 121.659C192.114 121.679 192.145 121.695 192.178 121.706C192.165 121.792 192.155 121.88 192.146 121.963C192.129 122.139 192.12 122.304 192.11 122.407C192.06 122.931 192.041 123.458 192.052 123.985C192.052 124.553 192.073 125.121 192.065 125.7C192.073 125.866 192.045 126.032 191.983 126.187C191.941 126.266 191.886 126.339 191.82 126.401C191.758 126.208 191.689 126.039 191.617 125.871Z" fill="url(#paint0_linear)"/>
<path d="M174.694 100.997C175.348 100.863 175.571 99.2529 175.191 97.4005C174.812 95.5482 173.974 94.1553 173.32 94.2893C172.666 94.4234 172.443 96.0336 172.822 97.886C173.202 99.7383 174.04 101.131 174.694 100.997Z" fill="#FBBEBE"/>
<path d="M184.684 169.902C184.508 170.434 184.684 171.099 185.16 171.388C185.352 171.491 185.56 171.563 185.775 171.602C186.066 171.685 186.367 171.726 186.669 171.725C187.04 171.707 187.395 171.562 187.766 171.51C187.809 171.499 187.854 171.506 187.893 171.527C187.911 171.547 187.925 171.571 187.933 171.597C187.942 171.623 187.944 171.65 187.94 171.677C187.944 171.888 187.96 172.099 187.987 172.308C187.987 172.354 187.998 172.399 188.017 172.441C188.036 172.483 188.064 172.52 188.099 172.55C188.152 172.575 188.211 172.585 188.27 172.58H189.432C189.458 171.559 189.347 170.539 189.1 169.549C189.084 169.473 189.055 169.4 189.014 169.334C188.915 169.226 188.786 169.151 188.643 169.12C188.359 169.002 188.052 168.948 187.745 168.963C187.37 169.013 187.057 169.255 186.737 169.456C186.418 169.658 185.983 169.836 185.595 169.733C185.207 169.63 184.883 169.306 184.684 169.902Z" fill="#3F3D56"/>
<path d="M167.623 168.961C167.297 169.311 166.896 169.583 166.451 169.759L166.254 169.853C166.226 169.863 166.203 169.882 166.187 169.907C166.183 169.923 166.183 169.941 166.187 169.957C166.191 169.974 166.198 169.99 166.209 170.003C166.373 170.257 166.615 170.45 166.899 170.553C167.183 170.657 167.493 170.665 167.782 170.575C167.91 170.544 168.028 170.482 168.127 170.395C168.291 170.202 168.384 169.958 168.393 169.705C168.458 169.444 168.447 169.169 168.361 168.914C168.063 168.243 167.954 168.547 167.623 168.961Z" fill="#FBBEBE"/>
<path d="M172.078 171.602C172.085 171.683 172.072 171.765 172.042 171.84C171.941 172.038 171.66 172.027 171.442 171.984C171.408 171.257 171.32 170.533 171.178 169.819C170.762 169.799 170.462 170.194 170.239 170.548L169.664 171.459C169.581 171.616 169.464 171.752 169.321 171.857C169.206 171.92 169.081 171.96 168.95 171.975C167.853 172.158 166.745 171.812 165.686 171.469C165.53 171.428 165.38 171.364 165.242 171.281C165.053 171.142 164.925 170.935 164.885 170.704C164.845 170.473 164.896 170.236 165.027 170.042C165.471 169.441 166.468 169.613 167.021 169.116C166.963 169.466 166.869 169.808 166.738 170.138C167.478 170.027 167.975 169.349 168.571 168.897C168.721 168.77 168.901 168.684 169.094 168.648C169.239 168.636 169.384 168.651 169.523 168.693C170.21 168.866 170.853 169.183 171.409 169.621C171.634 169.799 171.986 170.05 172.085 170.325C172.19 170.653 172.078 171.253 172.078 171.602Z" fill="#3F3D56"/>
<path d="M186.825 100.871C189.271 100.871 191.254 98.8879 191.254 96.4418C191.254 93.9957 189.271 92.0127 186.825 92.0127C184.379 92.0127 182.396 93.9957 182.396 96.4418C182.396 98.8879 184.379 100.871 186.825 100.871Z" fill="#FBBEBE"/>
<path d="M195.55 122.591C195.533 123.438 195.412 124.28 195.192 125.098C194.983 126.113 194.712 127.116 194.382 128.099C194.127 128.813 193.808 129.529 193.81 130.285C193.81 130.601 193.861 130.95 193.668 131.199C193.496 131.373 193.28 131.497 193.042 131.557C192.924 131.588 192.814 131.647 192.723 131.729C192.631 131.81 192.56 131.912 192.515 132.026C192.314 131.725 192.163 131.394 192.069 131.044C191.684 129.867 191.327 128.683 190.997 127.492C190.967 127.424 190.954 127.349 190.959 127.274C190.964 127.199 190.988 127.127 191.027 127.063C191.081 127.016 191.145 126.98 191.214 126.958C191.433 126.869 191.635 126.739 191.807 126.577C191.888 126.505 191.955 126.418 192.005 126.322C192.067 126.168 192.095 126.003 192.088 125.837C192.088 125.269 192.088 124.703 192.073 124.135C192.064 123.61 192.084 123.086 192.133 122.564C192.133 122.461 192.153 122.296 192.17 122.12C192.202 121.783 192.266 121.393 192.448 121.262C192.721 121.08 193.535 121.324 193.844 121.367C194.376 121.44 194.916 121.526 195.435 121.627C195.51 121.943 195.549 122.267 195.55 122.591Z" fill="#3F3D56"/>
<path d="M177.667 101.4C177.496 101.743 177.084 101.908 176.767 102.125L175.68 102.871C175.607 102.936 175.522 102.986 175.43 103.018C175.337 103.05 175.239 103.062 175.142 103.055C175.053 103.023 174.972 102.973 174.903 102.908C174.835 102.844 174.779 102.766 174.741 102.68C174.742 102.674 174.742 102.669 174.741 102.663L174.516 102.286L173.444 100.489C173.325 100.328 173.255 100.136 173.245 99.9361C173.245 99.8439 173.277 99.7582 173.285 99.666C173.288 99.4071 173.213 99.1532 173.071 98.9371C172.985 98.7763 172.814 98.6434 172.818 98.4634C172.81 98.2267 172.851 97.991 172.938 97.7709C173.05 97.5674 173.212 97.395 173.407 97.2693C173.508 97.1964 173.611 97.1278 173.718 97.0549C173.775 97.016 173.838 96.9871 173.905 96.9692C174.083 96.9327 174.259 97.0806 174.439 97.0871C175.212 97.6059 175.51 98.5877 176.119 99.2951C176.462 99.6982 176.497 100.007 176.885 100.367C176.947 100.423 177.007 100.483 177.065 100.545C177.141 100.629 177.206 100.722 177.258 100.824C177.328 101.008 177.755 101.225 177.667 101.4Z" fill="#3F3D56"/>
<path d="M185.269 100.873C185.588 101.548 185.837 102.29 185.745 103.032C185.726 103.233 185.662 103.427 185.558 103.6C185.25 104.074 184.602 104.159 184.038 104.187C183.92 104.177 183.8 104.191 183.687 104.228C183.573 104.265 183.468 104.324 183.378 104.402C183.303 104.511 183.266 104.642 183.273 104.775C183.281 104.908 183.332 105.034 183.419 105.135C183.6 105.328 183.825 105.475 184.075 105.564C184.967 105.956 185.929 106.28 186.898 106.189C187.348 106.147 187.786 106.016 188.234 105.949C188.722 105.896 189.213 105.869 189.704 105.868C190.287 105.846 190.868 105.789 191.449 105.731L192.989 105.579C193.073 105.58 193.154 105.55 193.218 105.495C193.332 105.362 193.186 105.167 193.044 105.066C192.228 104.462 191.188 104.046 190.723 103.137C190.508 102.708 190.442 102.198 190.283 101.735C190.124 101.272 189.872 100.854 189.773 100.382C189.72 99.9683 189.697 99.5514 189.702 99.1343C189.708 98.7138 189.554 98.3067 189.273 97.9939C188.967 97.7087 188.523 97.6358 188.107 97.6187C187.082 97.5737 185.991 97.8181 185.265 98.5405C185.07 98.7356 184.902 98.9693 184.701 99.1451C184.499 99.3208 184.225 99.3723 184.358 99.6038C184.491 99.8354 184.752 99.979 184.894 100.183C185.037 100.402 185.162 100.633 185.269 100.873Z" fill="#FBBEBE"/>
<path d="M194 107.109C193.73 108.76 193.29 110.378 192.688 111.939C192.386 112.644 192.128 113.367 191.917 114.104C191.752 114.769 191.784 115.481 191.632 116.147C191.443 116.977 191.254 117.809 191.102 118.645C190.847 119.921 190.745 121.224 190.798 122.525C190.798 122.73 190.837 122.933 190.913 123.123C190.984 123.277 191.098 123.41 191.164 123.569C191.214 123.708 191.234 123.856 191.224 124.004C191.214 124.152 191.173 124.295 191.104 124.427C190.994 124.672 190.845 124.898 190.663 125.095C188.665 125.691 186.527 125.496 184.446 125.623C182.527 125.739 180.587 126.133 178.696 125.805C178.482 124.947 178.84 124.049 179.146 123.213C180.036 120.784 181.02 118.255 180.861 115.71C180.845 115.413 180.811 115.118 180.761 114.825C180.45 113.022 180.788 111.154 181.331 109.407C181.667 108.318 181.652 107.158 181.575 106.024C181.537 105.656 181.532 105.285 181.56 104.916C181.591 104.539 181.731 104.179 181.963 103.881C181.963 103.866 181.982 103.851 181.993 103.836C182.004 103.821 182.088 103.823 182.154 103.836C182.171 103.843 182.189 103.847 182.208 103.847C182.226 103.847 182.244 103.843 182.261 103.836L182.285 103.821C182.294 103.814 182.305 103.811 182.316 103.811C182.327 103.811 182.338 103.814 182.347 103.821C182.396 103.851 182.424 103.954 182.531 103.973C182.69 103.997 182.849 104.012 183.009 104.018C183.202 104.024 183.393 104.051 183.58 104.099H183.605C183.884 104.146 184.17 104.122 184.437 104.029C184.615 103.984 184.786 103.918 184.947 103.831C184.994 103.78 185.29 103.733 185.35 103.696C185.545 103.578 185.503 103.025 185.543 102.798C185.566 102.57 185.62 102.346 185.704 102.133C185.802 101.976 185.936 101.845 186.096 101.752C186.256 101.659 186.437 101.607 186.622 101.6C186.991 101.591 187.36 101.624 187.721 101.698C188.521 101.812 189.34 101.793 190.125 101.977C190.519 102.069 190.95 102.208 191.312 102.028C191.411 102.052 191.426 102.138 191.426 102.243C191.417 102.343 191.396 102.441 191.366 102.536C191.229 103.128 191.694 103.673 192.123 104.101C192.304 104.304 192.517 104.474 192.755 104.605C192.969 104.704 193.184 104.745 193.398 104.852C193.572 104.944 193.719 105.079 193.827 105.244C193.95 105.433 194.034 105.645 194.071 105.868C194.117 106.283 194.093 106.702 194 107.109Z" fill="#3F3D56"/>
<path opacity="0.1" d="M194 107.109C193.73 108.76 193.29 110.378 192.688 111.939C192.386 112.644 192.128 113.367 191.917 114.104C191.752 114.769 191.784 115.481 191.632 116.147C191.443 116.977 191.254 117.809 191.102 118.645C191.057 118.671 191.01 118.694 190.963 118.716C190.696 118.843 190.413 118.934 190.122 118.986C189.6 119.049 189.07 119.032 188.553 118.934L185.494 118.525C184.272 118.36 182.971 118.16 182.064 117.333C181.56 116.878 181.23 116.278 180.868 115.699C180.851 115.402 180.817 115.107 180.767 114.814C180.456 113.011 180.795 111.144 181.337 109.397C181.674 108.308 181.659 107.148 181.582 106.014C181.543 105.645 181.538 105.274 181.567 104.905C181.598 104.528 181.738 104.169 181.97 103.87C182.032 103.852 182.096 103.837 182.16 103.827C182.204 103.818 182.247 103.813 182.291 103.81H182.353C182.426 103.81 182.498 103.819 182.568 103.836C182.714 103.882 182.857 103.937 182.996 104.001H183.022C183.206 104.061 183.399 104.089 183.592 104.082C183.875 104.082 184.167 104.037 184.45 104.018C184.8 103.963 185.157 104.027 185.466 104.2C185.665 104.36 185.854 104.533 186.032 104.717C186.247 104.885 186.488 105.016 186.746 105.105C188.591 105.809 190.639 105.766 192.453 104.985C192.627 104.886 192.825 104.835 193.025 104.839C193.173 104.868 193.313 104.928 193.437 105.015C193.565 105.09 193.692 105.163 193.823 105.229C193.946 105.418 194.029 105.63 194.067 105.853C194.116 106.272 194.094 106.697 194 107.109Z" fill="black"/>
<path d="M195.868 105.69C195.014 105.429 194.194 105.07 193.424 104.618C193.3 104.532 193.16 104.472 193.012 104.442C192.811 104.44 192.613 104.49 192.438 104.588C190.624 105.369 188.578 105.412 186.733 104.708C186.475 104.619 186.234 104.488 186.019 104.32C185.841 104.137 185.652 103.964 185.453 103.803C184.748 103.347 183.772 103.883 182.984 103.589C182.844 103.527 182.701 103.472 182.555 103.424C181.931 103.268 181.296 103.889 180.683 103.701C180.455 104.321 180.287 104.961 180.18 105.613C180.092 106.361 180.046 107.114 180.04 107.868C180.04 108.32 180.019 108.773 180.04 109.225C180.116 109.237 180.188 109.265 180.252 109.307C180.316 109.349 180.371 109.403 180.413 109.467C180.441 109.542 180.453 109.622 180.447 109.702C180.441 109.781 180.418 109.859 180.379 109.928C179.931 111.079 179.476 112.243 178.797 113.275C179.276 113.56 179.72 113.9 180.122 114.287C180.872 115.08 181.241 116.192 182.051 116.926C182.964 117.751 184.266 117.952 185.481 118.115L188.54 118.525C189.058 118.622 189.588 118.64 190.112 118.578C190.402 118.525 190.684 118.434 190.95 118.306C191.124 118.233 191.282 118.129 191.417 117.997C191.53 117.869 191.623 117.725 191.694 117.569C191.936 117.084 192.157 116.589 192.36 116.087C192.431 115.909 192.538 115.701 192.731 115.686C193.868 114.662 194.939 113.611 196.076 112.587C196.532 112.208 196.942 111.776 197.295 111.3C197.859 110.466 197.347 109.285 197.295 108.278C197.289 108.02 197.257 107.763 197.199 107.512C197.015 106.781 196.582 105.907 195.868 105.69Z" fill="#66D655"/>
<path opacity="0.1" d="M177.667 101.4C177.496 101.743 177.084 101.908 176.767 102.125L175.68 102.871C175.607 102.936 175.522 102.986 175.43 103.018C175.337 103.05 175.239 103.062 175.142 103.055C175.053 103.023 174.972 102.973 174.903 102.908C174.835 102.844 174.779 102.766 174.741 102.68C174.741 102.631 174.741 102.577 174.741 102.526C174.733 102.352 174.756 102.179 174.809 102.013C174.916 101.771 175.081 101.559 175.29 101.396C175.693 101.014 176.173 100.722 176.698 100.539C176.78 100.507 176.869 100.498 176.955 100.513C176.989 100.522 177.02 100.535 177.05 100.554C177.126 100.637 177.191 100.731 177.243 100.832C177.328 101.008 177.755 101.225 177.667 101.4Z" fill="black"/>
<path d="M180.227 103.66C179.862 103.643 179.564 103.379 179.298 103.128L178.486 102.374C178.432 102.328 178.384 102.274 178.344 102.215C178.301 102.132 178.267 102.043 178.246 101.951C178.074 101.518 177.804 101.131 177.457 100.819C177.397 100.743 177.315 100.685 177.223 100.652C177.136 100.636 177.046 100.645 176.964 100.678C176.439 100.861 175.959 101.153 175.555 101.535C175.347 101.698 175.182 101.91 175.075 102.153C175.021 102.318 174.998 102.492 175.007 102.665C175.012 103.232 175.139 103.79 175.38 104.303C175.416 104.382 175.457 104.462 175.5 104.539C175.786 105.012 176.124 105.451 176.507 105.849L177.017 106.419C177.519 106.981 178.021 107.542 178.565 108.059C178.76 108.267 178.997 108.432 179.26 108.543C179.392 108.597 179.536 108.614 179.677 108.591C179.817 108.568 179.949 108.507 180.057 108.415C180.16 108.296 180.237 108.157 180.285 108.007C180.615 107.15 180.928 106.258 180.947 105.334C180.952 104.964 180.936 104.594 180.9 104.226C180.868 103.836 180.591 103.683 180.227 103.66Z" fill="#66D655"/>
<path d="M193.218 133.673C193.206 135.829 193.052 137.982 192.759 140.119C192.716 140.464 192.669 140.809 192.646 141.154C192.575 142.156 192.691 143.161 192.596 144.156C192.547 144.694 192.436 145.228 192.341 145.753C191.922 148.097 191.8 150.485 191.977 152.859C192.273 156.81 191.366 160.763 191.777 164.704C191.827 165.47 191.785 166.239 191.651 166.995C191.574 167.465 191.463 167.927 191.319 168.38C191.006 169.454 190.691 170.525 190.375 171.596C190.338 171.759 190.265 171.911 190.161 172.042C190.052 172.136 189.923 172.207 189.785 172.248C189.646 172.289 189.5 172.3 189.357 172.28C188.12 172.241 186.956 171.707 185.833 171.186C185.704 171.136 185.584 171.063 185.479 170.972C185.245 170.73 185.265 170.348 185.162 170.029C185.059 169.709 184.78 169.409 184.621 169.081C184.491 168.771 184.412 168.442 184.388 168.106C184.245 167.008 184.148 165.906 184.096 164.8C184.015 163.244 185.044 161.812 185.383 160.298C186.026 157.323 185.481 154.133 186.624 151.309C186.984 150.418 186.461 149.337 186.409 148.377C186.391 147.757 186.31 147.141 186.169 146.537C185.955 145.731 185.503 144.972 185.47 144.136C185.447 143.532 185.642 142.942 185.743 142.346C185.876 141.469 185.864 140.576 185.706 139.703C185.593 138.983 185.419 138.262 185.245 137.559L185.207 137.639C184.684 138.659 184.235 139.716 183.863 140.801C183.691 141.326 183.541 141.862 183.327 142.372C183.151 142.801 182.934 143.193 182.722 143.596C181.961 145.017 181.298 146.489 180.739 148.002C180.473 148.743 180.24 149.502 180.008 150.246L178.42 155.391C177.991 156.744 177.521 158.052 177.101 159.402C176.507 161.332 175.913 163.244 175.223 165.13C174.58 166.92 173.815 168.775 174.044 170.666C173.453 170.943 172.804 171.075 172.151 171.049C171.046 170.952 169.962 170.688 168.936 170.269C168.526 170.117 168.102 169.945 167.825 169.609C167.349 169.028 167.467 168.177 167.611 167.437C167.665 167.104 167.751 166.776 167.868 166.459C168.031 166.065 168.297 165.716 168.464 165.325C168.8 164.577 168.822 163.73 168.955 162.918C169.088 162.105 169.384 161.248 170.078 160.806C170.196 159.379 170.783 157.97 171.107 156.575C171.352 155.518 171.433 154.431 171.626 153.359C171.819 152.287 172.13 151.215 172.777 150.347C172.726 149.452 172.928 148.56 173.36 147.774C173.465 147.602 173.55 147.419 173.615 147.228C173.655 147.041 173.678 146.852 173.684 146.662C173.755 145.917 174.073 145.217 174.589 144.674C174.374 143.892 174.672 143.075 174.94 142.316C175.278 141.348 175.43 140.325 175.39 139.3C175.357 139.014 175.371 138.724 175.431 138.443C175.491 138.228 175.609 138.046 175.678 137.84C175.739 137.588 175.771 137.33 175.774 137.07C175.858 135.911 176.327 134.817 176.846 133.782C177.155 133.177 176.893 132.356 176.957 131.683C177.069 130.564 177.191 129.407 177.746 128.431C177.849 128.247 177.961 128.071 178.053 127.88C178.165 127.608 178.225 127.317 178.231 127.023C178.25 126.532 178.319 126.124 178.143 125.668C179.29 124.714 180.855 124.446 182.347 124.382C183.839 124.317 185.348 124.452 186.808 124.135C187.237 124.039 187.666 123.906 188.118 123.841C189.145 123.691 190.187 123.925 191.201 124.156C191.13 124.8 191.366 125.417 191.629 126.015C192.659 128.438 193.199 131.04 193.218 133.673Z" fill="#33313F"/>
<path opacity="0.1" d="M188.169 134.164L185.706 139.703C185.593 138.983 185.419 138.262 185.245 137.559L185.207 137.639V137.523L186.549 134.571L188.169 134.164Z" fill="black"/>
<path opacity="0.1" d="M195.55 122.591C195.408 122.698 195.239 122.761 195.062 122.774C194.79 122.783 194.519 122.746 194.26 122.664L192.33 122.182C192.27 122.167 192.211 122.146 192.155 122.12C192.187 121.783 192.251 121.393 192.433 121.262C192.706 121.08 193.52 121.324 193.829 121.367C194.361 121.44 194.901 121.526 195.42 121.627C195.5 121.942 195.544 122.266 195.55 122.591Z" fill="black"/>
<path d="M197.182 109.836C197.223 110.014 197.28 110.19 197.315 110.37C197.372 110.812 197.357 111.26 197.27 111.697L197.094 112.923L196.918 114.156L196.239 118.9L196.071 120.075L195.836 121.715C195.824 121.851 195.79 121.985 195.733 122.109C195.662 122.226 195.564 122.323 195.447 122.392C195.33 122.461 195.198 122.5 195.062 122.506C194.79 122.514 194.519 122.477 194.26 122.396L192.33 121.912C192.246 121.897 192.165 121.864 192.095 121.815C192.036 121.758 191.993 121.686 191.971 121.606C191.949 121.527 191.949 121.443 191.97 121.363C191.998 121.2 192.069 121.048 192.092 120.885C192.14 120.568 192.007 120.242 192.054 119.927C192.1 119.726 192.172 119.532 192.268 119.35C192.911 117.929 192.538 116.269 192.757 114.726C192.954 113.511 193.467 112.37 194.245 111.416C194.725 110.814 195.276 110.273 195.887 109.804C196.127 109.617 196.509 109.234 196.811 109.161C197.199 109.079 197.118 109.566 197.182 109.836Z" fill="#66D655"/>
<path d="M182.581 91.3696C182.439 91.8198 182.66 92.315 182.559 92.7738C182.45 93.2797 181.974 93.6313 181.839 94.1394C181.624 94.9133 182.28 95.6186 182.761 96.2617C184.54 98.6498 184.306 101.956 183.697 104.869C183.208 107.206 182.53 109.5 181.672 111.729C181.404 112.421 181.108 113.125 180.58 113.643C181.567 113.36 182.615 113.075 183.603 113.35C184.855 113.697 185.936 114.912 187.205 114.636C187.968 114.467 188.504 113.789 189.19 113.414C190.476 112.722 192.026 113.157 193.46 113.38C193.769 113.453 194.093 113.436 194.393 113.333C194.622 113.209 194.817 113.03 194.959 112.812C195.599 111.99 195.982 110.999 196.061 109.96C196.095 109.443 196.018 108.925 195.837 108.44C195.655 107.955 195.373 107.513 195.008 107.146C194.704 106.858 194.339 106.627 194.105 106.288C193.878 105.893 193.756 105.445 193.752 104.989C193.582 102.631 194.157 100.223 193.565 97.9424C193.351 97.1299 193.001 96.3517 192.907 95.5199C192.789 94.4845 193.07 93.3762 192.658 92.4286C192.335 91.6762 191.621 91.1424 190.851 90.868C190.082 90.5936 189.258 90.5164 188.442 90.4392C187.267 90.3406 183.072 89.8368 182.581 91.3696Z" fill="#33313F"/>
<g opacity="0.1">
<path opacity="0.1" d="M183.697 104.869C183.21 107.197 182.536 109.481 181.682 111.701C181.83 111.407 181.955 111.099 182.072 110.792C182.932 108.564 183.609 106.27 184.098 103.932C184.709 101.017 184.943 97.7152 183.164 95.3249C182.735 94.7546 182.184 94.1372 182.203 93.4684C182.045 93.6706 181.922 93.8982 181.839 94.1415C181.624 94.9154 182.28 95.6207 182.761 96.2638C184.54 98.6498 184.306 101.956 183.697 104.869Z" fill="black"/>
<path opacity="0.1" d="M182.585 92.5573C182.757 92.3436 182.885 92.0981 182.962 91.8348C182.995 91.5163 182.987 91.1949 182.936 90.8787C182.771 91.003 182.647 91.174 182.581 91.3696C182.454 91.7491 182.6 92.1607 182.585 92.5573Z" fill="black"/>
<path opacity="0.1" d="M195.362 111.868C195.22 112.086 195.025 112.265 194.796 112.387C194.496 112.493 194.172 112.509 193.863 112.434C192.429 112.22 190.862 111.778 189.593 112.471C188.905 112.844 188.371 113.521 187.606 113.693C186.339 113.976 185.258 112.76 184.006 112.406C183.119 112.16 182.184 112.364 181.29 112.621C181.112 113 180.873 113.346 180.58 113.646C181.567 113.363 182.615 113.077 183.603 113.352C184.855 113.699 185.936 114.915 187.205 114.638C187.968 114.469 188.504 113.791 189.19 113.416C190.476 112.724 192.026 113.159 193.46 113.382C193.769 113.455 194.093 113.438 194.393 113.335C194.622 113.211 194.817 113.032 194.959 112.814C195.347 112.301 195.647 111.727 195.846 111.116C195.703 111.378 195.541 111.629 195.362 111.868Z" fill="black"/>
</g>
</g>
<defs>
<linearGradient id="paint0_linear" x1="164.77" y1="131.289" x2="197.57" y2="131.289" gradientUnits="userSpaceOnUse">
<stop stop-color="#808080" stop-opacity="0.25"/>
<stop offset="0.54" stop-color="#808080" stop-opacity="0.12"/>
<stop offset="1" stop-color="#808080" stop-opacity="0.1"/>
</linearGradient>
<clipPath id="clip0">
<rect width="250" height="172.593" fill="white"/>
</clipPath>
</defs>
</svg>
